G75*
%MOIN*%
%OFA0B0*%
%FSLAX25Y25*%
%IPPOS*%
%LPD*%
%AMOC8*
5,1,8,0,0,1.08239X$1,22.5*
%
%ADD10C,0.00000*%
%ADD11C,0.00200*%
%ADD12C,0.01000*%
%ADD13C,0.00500*%
%ADD14C,0.00600*%
%ADD15C,0.00800*%
%ADD16C,0.00100*%
D10*
X0001000Y0001000D02*
X0001250Y0170197D01*
X0119479Y0170171D01*
X0119545Y0001010D01*
X0001000Y0001000D01*
D11*
X0045070Y0041448D02*
X0045070Y0043648D01*
X0045070Y0042670D02*
X0046292Y0042670D01*
X0047208Y0042915D02*
X0047697Y0041448D01*
X0047452Y0040715D02*
X0048186Y0042915D01*
X0049091Y0042915D02*
X0049702Y0042915D01*
X0049738Y0042913D01*
X0049774Y0042908D01*
X0049809Y0042899D01*
X0049842Y0042887D01*
X0049875Y0042872D01*
X0049906Y0042853D01*
X0049935Y0042832D01*
X0049962Y0042808D01*
X0049986Y0042781D01*
X0050007Y0042752D01*
X0050026Y0042721D01*
X0050041Y0042688D01*
X0050053Y0042655D01*
X0050062Y0042620D01*
X0050067Y0042584D01*
X0050069Y0042548D01*
X0050069Y0041815D01*
X0050067Y0041779D01*
X0050062Y0041743D01*
X0050053Y0041708D01*
X0050041Y0041675D01*
X0050026Y0041642D01*
X0050007Y0041611D01*
X0049986Y0041582D01*
X0049962Y0041555D01*
X0049935Y0041531D01*
X0049906Y0041510D01*
X0049875Y0041491D01*
X0049842Y0041476D01*
X0049809Y0041464D01*
X0049774Y0041455D01*
X0049738Y0041450D01*
X0049702Y0041448D01*
X0049091Y0041448D01*
X0049091Y0040715D02*
X0049091Y0042915D01*
X0050952Y0042426D02*
X0050952Y0041815D01*
X0050952Y0042181D02*
X0051930Y0042181D01*
X0051930Y0042426D01*
X0051928Y0042469D01*
X0051923Y0042511D01*
X0051913Y0042553D01*
X0051901Y0042593D01*
X0051884Y0042633D01*
X0051864Y0042671D01*
X0051842Y0042706D01*
X0051816Y0042740D01*
X0051787Y0042772D01*
X0051755Y0042801D01*
X0051721Y0042827D01*
X0051686Y0042849D01*
X0051648Y0042869D01*
X0051608Y0042886D01*
X0051568Y0042898D01*
X0051526Y0042908D01*
X0051484Y0042913D01*
X0051441Y0042915D01*
X0051398Y0042913D01*
X0051356Y0042908D01*
X0051314Y0042898D01*
X0051274Y0042886D01*
X0051234Y0042869D01*
X0051197Y0042849D01*
X0051161Y0042827D01*
X0051127Y0042801D01*
X0051095Y0042772D01*
X0051066Y0042740D01*
X0051040Y0042706D01*
X0051018Y0042671D01*
X0050998Y0042633D01*
X0050981Y0042593D01*
X0050969Y0042553D01*
X0050959Y0042511D01*
X0050954Y0042469D01*
X0050952Y0042426D01*
X0050952Y0041815D02*
X0050954Y0041779D01*
X0050959Y0041743D01*
X0050968Y0041708D01*
X0050980Y0041675D01*
X0050995Y0041642D01*
X0051014Y0041611D01*
X0051035Y0041582D01*
X0051059Y0041555D01*
X0051086Y0041531D01*
X0051115Y0041510D01*
X0051146Y0041491D01*
X0051179Y0041476D01*
X0051212Y0041464D01*
X0051247Y0041455D01*
X0051283Y0041450D01*
X0051319Y0041448D01*
X0051930Y0041448D01*
X0052909Y0041448D02*
X0052909Y0042915D01*
X0053642Y0042915D01*
X0053642Y0042670D01*
X0054444Y0042426D02*
X0055055Y0042426D01*
X0055177Y0042426D02*
X0055666Y0041448D01*
X0056467Y0041448D02*
X0057201Y0043648D01*
X0057934Y0041448D01*
X0057751Y0041998D02*
X0056651Y0041998D01*
X0055055Y0042426D02*
X0055103Y0042428D01*
X0055151Y0042434D01*
X0055198Y0042443D01*
X0055244Y0042456D01*
X0055289Y0042473D01*
X0055332Y0042493D01*
X0055374Y0042516D01*
X0055414Y0042543D01*
X0055452Y0042572D01*
X0055487Y0042605D01*
X0055520Y0042640D01*
X0055549Y0042678D01*
X0055576Y0042718D01*
X0055599Y0042760D01*
X0055619Y0042803D01*
X0055636Y0042848D01*
X0055649Y0042894D01*
X0055658Y0042941D01*
X0055664Y0042989D01*
X0055666Y0043037D01*
X0055664Y0043085D01*
X0055658Y0043133D01*
X0055649Y0043180D01*
X0055636Y0043226D01*
X0055619Y0043271D01*
X0055599Y0043314D01*
X0055576Y0043356D01*
X0055549Y0043396D01*
X0055520Y0043434D01*
X0055487Y0043469D01*
X0055452Y0043502D01*
X0055414Y0043531D01*
X0055374Y0043558D01*
X0055332Y0043581D01*
X0055289Y0043601D01*
X0055244Y0043618D01*
X0055198Y0043631D01*
X0055151Y0043640D01*
X0055103Y0043646D01*
X0055055Y0043648D01*
X0054444Y0043648D01*
X0054444Y0041448D01*
X0058843Y0041448D02*
X0058843Y0043648D01*
X0059577Y0042426D01*
X0060310Y0043648D01*
X0060310Y0041448D01*
X0073277Y0042057D02*
X0073277Y0044257D01*
X0073888Y0044257D01*
X0073936Y0044255D01*
X0073984Y0044249D01*
X0074031Y0044240D01*
X0074077Y0044227D01*
X0074122Y0044210D01*
X0074165Y0044190D01*
X0074207Y0044167D01*
X0074247Y0044140D01*
X0074285Y0044111D01*
X0074320Y0044078D01*
X0074353Y0044043D01*
X0074382Y0044005D01*
X0074409Y0043965D01*
X0074432Y0043923D01*
X0074452Y0043880D01*
X0074469Y0043835D01*
X0074482Y0043789D01*
X0074491Y0043742D01*
X0074497Y0043694D01*
X0074499Y0043646D01*
X0074497Y0043598D01*
X0074491Y0043550D01*
X0074482Y0043503D01*
X0074469Y0043457D01*
X0074452Y0043412D01*
X0074432Y0043369D01*
X0074409Y0043327D01*
X0074382Y0043287D01*
X0074353Y0043249D01*
X0074320Y0043214D01*
X0074285Y0043181D01*
X0074247Y0043152D01*
X0074207Y0043125D01*
X0074165Y0043102D01*
X0074122Y0043082D01*
X0074077Y0043065D01*
X0074031Y0043052D01*
X0073984Y0043043D01*
X0073936Y0043037D01*
X0073888Y0043035D01*
X0073277Y0043035D01*
X0074010Y0043035D02*
X0074499Y0042057D01*
X0075423Y0042546D02*
X0075912Y0044257D01*
X0076278Y0043035D02*
X0076278Y0042057D01*
X0076645Y0042546D02*
X0075423Y0042546D01*
X0078416Y0052087D02*
X0078416Y0052698D01*
X0078418Y0052746D01*
X0078424Y0052794D01*
X0078433Y0052841D01*
X0078446Y0052887D01*
X0078463Y0052932D01*
X0078483Y0052975D01*
X0078506Y0053017D01*
X0078533Y0053057D01*
X0078562Y0053095D01*
X0078595Y0053130D01*
X0078630Y0053163D01*
X0078668Y0053192D01*
X0078708Y0053219D01*
X0078750Y0053242D01*
X0078793Y0053262D01*
X0078838Y0053279D01*
X0078884Y0053292D01*
X0078931Y0053301D01*
X0078979Y0053307D01*
X0079027Y0053309D01*
X0079075Y0053307D01*
X0079123Y0053301D01*
X0079170Y0053292D01*
X0079216Y0053279D01*
X0079261Y0053262D01*
X0079304Y0053242D01*
X0079346Y0053219D01*
X0079386Y0053192D01*
X0079424Y0053163D01*
X0079459Y0053130D01*
X0079492Y0053095D01*
X0079521Y0053057D01*
X0079548Y0053017D01*
X0079571Y0052975D01*
X0079591Y0052932D01*
X0079608Y0052887D01*
X0079621Y0052841D01*
X0079630Y0052794D01*
X0079636Y0052746D01*
X0079638Y0052698D01*
X0079638Y0052087D01*
X0079638Y0052820D02*
X0080616Y0053309D01*
X0080616Y0054233D02*
X0080616Y0054844D01*
X0080614Y0054892D01*
X0080608Y0054940D01*
X0080599Y0054987D01*
X0080586Y0055033D01*
X0080569Y0055078D01*
X0080549Y0055121D01*
X0080526Y0055163D01*
X0080499Y0055203D01*
X0080470Y0055241D01*
X0080437Y0055276D01*
X0080402Y0055309D01*
X0080364Y0055338D01*
X0080324Y0055365D01*
X0080282Y0055388D01*
X0080239Y0055408D01*
X0080194Y0055425D01*
X0080148Y0055438D01*
X0080101Y0055447D01*
X0080053Y0055453D01*
X0080005Y0055455D01*
X0079957Y0055453D01*
X0079909Y0055447D01*
X0079862Y0055438D01*
X0079816Y0055425D01*
X0079771Y0055408D01*
X0079728Y0055388D01*
X0079686Y0055365D01*
X0079646Y0055338D01*
X0079608Y0055309D01*
X0079573Y0055276D01*
X0079540Y0055241D01*
X0079511Y0055203D01*
X0079484Y0055163D01*
X0079461Y0055121D01*
X0079441Y0055078D01*
X0079424Y0055033D01*
X0079411Y0054987D01*
X0079402Y0054940D01*
X0079396Y0054892D01*
X0079394Y0054844D01*
X0079393Y0054966D02*
X0079393Y0054477D01*
X0079394Y0054966D02*
X0079392Y0055009D01*
X0079387Y0055051D01*
X0079377Y0055093D01*
X0079365Y0055133D01*
X0079348Y0055173D01*
X0079328Y0055211D01*
X0079306Y0055246D01*
X0079280Y0055280D01*
X0079251Y0055312D01*
X0079219Y0055341D01*
X0079185Y0055367D01*
X0079150Y0055389D01*
X0079112Y0055409D01*
X0079072Y0055426D01*
X0079032Y0055438D01*
X0078990Y0055448D01*
X0078948Y0055453D01*
X0078905Y0055455D01*
X0078862Y0055453D01*
X0078820Y0055448D01*
X0078778Y0055438D01*
X0078738Y0055426D01*
X0078698Y0055409D01*
X0078661Y0055389D01*
X0078625Y0055367D01*
X0078591Y0055341D01*
X0078559Y0055312D01*
X0078530Y0055280D01*
X0078504Y0055246D01*
X0078482Y0055211D01*
X0078462Y0055173D01*
X0078445Y0055133D01*
X0078433Y0055093D01*
X0078423Y0055051D01*
X0078418Y0055009D01*
X0078416Y0054966D01*
X0078416Y0054233D01*
X0078416Y0052087D02*
X0080616Y0052087D01*
X0059666Y0086627D02*
X0059666Y0087727D01*
X0059664Y0087763D01*
X0059659Y0087799D01*
X0059650Y0087834D01*
X0059638Y0087867D01*
X0059623Y0087900D01*
X0059604Y0087931D01*
X0059583Y0087960D01*
X0059559Y0087987D01*
X0059532Y0088011D01*
X0059503Y0088032D01*
X0059472Y0088051D01*
X0059439Y0088066D01*
X0059406Y0088078D01*
X0059371Y0088087D01*
X0059335Y0088092D01*
X0059299Y0088094D01*
X0058688Y0088094D01*
X0058688Y0088827D02*
X0058688Y0086627D01*
X0057538Y0087238D02*
X0056927Y0087482D01*
X0056927Y0087483D02*
X0056895Y0087498D01*
X0056865Y0087516D01*
X0056838Y0087537D01*
X0056812Y0087562D01*
X0056790Y0087589D01*
X0056771Y0087618D01*
X0056755Y0087650D01*
X0056742Y0087683D01*
X0056734Y0087717D01*
X0056729Y0087752D01*
X0056728Y0087787D01*
X0056731Y0087822D01*
X0056738Y0087856D01*
X0056749Y0087890D01*
X0056763Y0087922D01*
X0056781Y0087952D01*
X0056802Y0087980D01*
X0056826Y0088006D01*
X0056853Y0088029D01*
X0056882Y0088049D01*
X0056913Y0088065D01*
X0056946Y0088078D01*
X0056980Y0088087D01*
X0057014Y0088093D01*
X0057050Y0088094D01*
X0056744Y0086749D02*
X0056825Y0086722D01*
X0056908Y0086698D01*
X0056991Y0086678D01*
X0057075Y0086660D01*
X0057160Y0086647D01*
X0057245Y0086637D01*
X0057331Y0086630D01*
X0057416Y0086627D01*
X0057452Y0086628D01*
X0057486Y0086634D01*
X0057520Y0086643D01*
X0057553Y0086656D01*
X0057584Y0086672D01*
X0057613Y0086692D01*
X0057640Y0086715D01*
X0057664Y0086741D01*
X0057685Y0086769D01*
X0057703Y0086799D01*
X0057717Y0086831D01*
X0057728Y0086865D01*
X0057735Y0086899D01*
X0057738Y0086934D01*
X0057737Y0086969D01*
X0057732Y0087004D01*
X0057724Y0087038D01*
X0057711Y0087071D01*
X0057695Y0087103D01*
X0057676Y0087132D01*
X0057654Y0087159D01*
X0057628Y0087184D01*
X0057601Y0087205D01*
X0057571Y0087223D01*
X0057539Y0087238D01*
X0057600Y0087972D02*
X0057534Y0087999D01*
X0057468Y0088023D01*
X0057400Y0088044D01*
X0057331Y0088061D01*
X0057262Y0088075D01*
X0057191Y0088085D01*
X0057121Y0088091D01*
X0057050Y0088094D01*
X0055766Y0087727D02*
X0055766Y0086627D01*
X0055216Y0086627D01*
X0055177Y0086629D01*
X0055137Y0086634D01*
X0055099Y0086643D01*
X0055061Y0086656D01*
X0055025Y0086672D01*
X0054991Y0086691D01*
X0054958Y0086713D01*
X0054928Y0086739D01*
X0054900Y0086767D01*
X0054874Y0086797D01*
X0054852Y0086830D01*
X0054833Y0086864D01*
X0054817Y0086900D01*
X0054804Y0086938D01*
X0054795Y0086976D01*
X0054790Y0087016D01*
X0054788Y0087055D01*
X0054790Y0087094D01*
X0054795Y0087134D01*
X0054804Y0087172D01*
X0054817Y0087210D01*
X0054833Y0087246D01*
X0054852Y0087280D01*
X0054874Y0087313D01*
X0054900Y0087343D01*
X0054928Y0087371D01*
X0054958Y0087397D01*
X0054991Y0087419D01*
X0055025Y0087438D01*
X0055061Y0087454D01*
X0055099Y0087467D01*
X0055137Y0087476D01*
X0055177Y0087481D01*
X0055216Y0087483D01*
X0055216Y0087482D02*
X0055766Y0087482D01*
X0055767Y0087727D02*
X0055765Y0087763D01*
X0055760Y0087799D01*
X0055751Y0087834D01*
X0055739Y0087867D01*
X0055724Y0087900D01*
X0055705Y0087931D01*
X0055684Y0087960D01*
X0055660Y0087987D01*
X0055633Y0088011D01*
X0055604Y0088032D01*
X0055573Y0088051D01*
X0055540Y0088066D01*
X0055507Y0088078D01*
X0055472Y0088087D01*
X0055436Y0088092D01*
X0055400Y0088094D01*
X0054911Y0088094D01*
X0053675Y0086994D02*
X0053677Y0086958D01*
X0053682Y0086922D01*
X0053691Y0086887D01*
X0053703Y0086854D01*
X0053718Y0086821D01*
X0053737Y0086790D01*
X0053758Y0086761D01*
X0053782Y0086734D01*
X0053809Y0086710D01*
X0053838Y0086689D01*
X0053869Y0086670D01*
X0053902Y0086655D01*
X0053935Y0086643D01*
X0053970Y0086634D01*
X0054006Y0086629D01*
X0054042Y0086627D01*
X0053675Y0086994D02*
X0053675Y0088827D01*
X0052852Y0088827D02*
X0051874Y0088827D01*
X0051874Y0086627D01*
X0051874Y0087849D02*
X0052852Y0087849D01*
X0051082Y0087849D02*
X0051082Y0088094D01*
X0050349Y0088094D01*
X0050349Y0086627D01*
X0049370Y0086627D02*
X0048759Y0086627D01*
X0048723Y0086629D01*
X0048687Y0086634D01*
X0048652Y0086643D01*
X0048619Y0086655D01*
X0048586Y0086670D01*
X0048555Y0086689D01*
X0048526Y0086710D01*
X0048499Y0086734D01*
X0048475Y0086761D01*
X0048454Y0086790D01*
X0048435Y0086821D01*
X0048420Y0086854D01*
X0048408Y0086887D01*
X0048399Y0086922D01*
X0048394Y0086958D01*
X0048392Y0086994D01*
X0048392Y0087605D01*
X0048392Y0087360D02*
X0049370Y0087360D01*
X0049370Y0087605D01*
X0049368Y0087648D01*
X0049363Y0087690D01*
X0049353Y0087732D01*
X0049341Y0087772D01*
X0049324Y0087812D01*
X0049304Y0087850D01*
X0049282Y0087885D01*
X0049256Y0087919D01*
X0049227Y0087951D01*
X0049195Y0087980D01*
X0049161Y0088006D01*
X0049126Y0088028D01*
X0049088Y0088048D01*
X0049048Y0088065D01*
X0049008Y0088077D01*
X0048966Y0088087D01*
X0048924Y0088092D01*
X0048881Y0088094D01*
X0048838Y0088092D01*
X0048796Y0088087D01*
X0048754Y0088077D01*
X0048714Y0088065D01*
X0048674Y0088048D01*
X0048637Y0088028D01*
X0048601Y0088006D01*
X0048567Y0087980D01*
X0048535Y0087951D01*
X0048506Y0087919D01*
X0048480Y0087885D01*
X0048458Y0087850D01*
X0048438Y0087812D01*
X0048421Y0087772D01*
X0048409Y0087732D01*
X0048399Y0087690D01*
X0048394Y0087648D01*
X0048392Y0087605D01*
X0047509Y0087727D02*
X0047509Y0086994D01*
X0047507Y0086958D01*
X0047502Y0086922D01*
X0047493Y0086887D01*
X0047481Y0086854D01*
X0047466Y0086821D01*
X0047447Y0086790D01*
X0047426Y0086761D01*
X0047402Y0086734D01*
X0047375Y0086710D01*
X0047346Y0086689D01*
X0047315Y0086670D01*
X0047282Y0086655D01*
X0047249Y0086643D01*
X0047214Y0086634D01*
X0047178Y0086629D01*
X0047142Y0086627D01*
X0046531Y0086627D01*
X0046531Y0085894D02*
X0046531Y0088094D01*
X0047142Y0088094D01*
X0047178Y0088092D01*
X0047214Y0088087D01*
X0047249Y0088078D01*
X0047282Y0088066D01*
X0047315Y0088051D01*
X0047346Y0088032D01*
X0047375Y0088011D01*
X0047402Y0087987D01*
X0047426Y0087960D01*
X0047447Y0087931D01*
X0047466Y0087900D01*
X0047481Y0087867D01*
X0047493Y0087834D01*
X0047502Y0087799D01*
X0047507Y0087763D01*
X0047509Y0087727D01*
X0045626Y0088094D02*
X0044892Y0085894D01*
X0044648Y0085894D01*
X0045137Y0086627D02*
X0044648Y0088094D01*
X0043732Y0087849D02*
X0042510Y0087849D01*
X0042510Y0088827D02*
X0042510Y0086627D01*
X0043732Y0086627D02*
X0043732Y0088827D01*
X0044041Y0091257D02*
X0044041Y0093457D01*
X0044652Y0093457D01*
X0044700Y0093455D01*
X0044748Y0093449D01*
X0044795Y0093440D01*
X0044841Y0093427D01*
X0044886Y0093410D01*
X0044929Y0093390D01*
X0044971Y0093367D01*
X0045011Y0093340D01*
X0045049Y0093311D01*
X0045084Y0093278D01*
X0045117Y0093243D01*
X0045146Y0093205D01*
X0045173Y0093165D01*
X0045196Y0093123D01*
X0045216Y0093080D01*
X0045233Y0093035D01*
X0045246Y0092989D01*
X0045255Y0092942D01*
X0045261Y0092894D01*
X0045263Y0092846D01*
X0045261Y0092798D01*
X0045255Y0092750D01*
X0045246Y0092703D01*
X0045233Y0092657D01*
X0045216Y0092612D01*
X0045196Y0092569D01*
X0045173Y0092527D01*
X0045146Y0092487D01*
X0045117Y0092449D01*
X0045084Y0092414D01*
X0045049Y0092381D01*
X0045011Y0092352D01*
X0044971Y0092325D01*
X0044929Y0092302D01*
X0044886Y0092282D01*
X0044841Y0092265D01*
X0044795Y0092252D01*
X0044748Y0092243D01*
X0044700Y0092237D01*
X0044652Y0092235D01*
X0044041Y0092235D01*
X0044774Y0092235D02*
X0045263Y0091257D01*
X0046165Y0091623D02*
X0046165Y0092235D01*
X0046165Y0091990D02*
X0047143Y0091990D01*
X0047143Y0092235D01*
X0047141Y0092278D01*
X0047136Y0092320D01*
X0047126Y0092362D01*
X0047114Y0092402D01*
X0047097Y0092442D01*
X0047077Y0092480D01*
X0047055Y0092515D01*
X0047029Y0092549D01*
X0047000Y0092581D01*
X0046968Y0092610D01*
X0046934Y0092636D01*
X0046899Y0092658D01*
X0046861Y0092678D01*
X0046821Y0092695D01*
X0046781Y0092707D01*
X0046739Y0092717D01*
X0046697Y0092722D01*
X0046654Y0092724D01*
X0046611Y0092722D01*
X0046569Y0092717D01*
X0046527Y0092707D01*
X0046487Y0092695D01*
X0046447Y0092678D01*
X0046410Y0092658D01*
X0046374Y0092636D01*
X0046340Y0092610D01*
X0046308Y0092581D01*
X0046279Y0092549D01*
X0046253Y0092515D01*
X0046231Y0092480D01*
X0046211Y0092442D01*
X0046194Y0092402D01*
X0046182Y0092362D01*
X0046172Y0092320D01*
X0046167Y0092278D01*
X0046165Y0092235D01*
X0046165Y0091623D02*
X0046167Y0091587D01*
X0046172Y0091551D01*
X0046181Y0091516D01*
X0046193Y0091483D01*
X0046208Y0091450D01*
X0046227Y0091419D01*
X0046248Y0091390D01*
X0046272Y0091363D01*
X0046299Y0091339D01*
X0046328Y0091318D01*
X0046359Y0091299D01*
X0046392Y0091284D01*
X0046425Y0091272D01*
X0046460Y0091263D01*
X0046496Y0091258D01*
X0046532Y0091256D01*
X0046532Y0091257D02*
X0047143Y0091257D01*
X0048454Y0091257D02*
X0047965Y0092723D01*
X0048943Y0092723D02*
X0048454Y0091257D01*
X0050932Y0091746D02*
X0050932Y0092968D01*
X0050934Y0093011D01*
X0050939Y0093053D01*
X0050949Y0093095D01*
X0050961Y0093135D01*
X0050978Y0093175D01*
X0050998Y0093212D01*
X0051020Y0093248D01*
X0051046Y0093282D01*
X0051075Y0093314D01*
X0051107Y0093343D01*
X0051141Y0093369D01*
X0051176Y0093391D01*
X0051214Y0093411D01*
X0051254Y0093428D01*
X0051294Y0093440D01*
X0051336Y0093450D01*
X0051378Y0093455D01*
X0051421Y0093457D01*
X0051910Y0093457D01*
X0052183Y0095130D02*
X0052181Y0095087D01*
X0052176Y0095045D01*
X0052166Y0095003D01*
X0052154Y0094963D01*
X0052137Y0094923D01*
X0052117Y0094886D01*
X0052095Y0094850D01*
X0052069Y0094816D01*
X0052040Y0094784D01*
X0052008Y0094755D01*
X0051974Y0094729D01*
X0051939Y0094707D01*
X0051901Y0094687D01*
X0051861Y0094670D01*
X0051821Y0094658D01*
X0051779Y0094648D01*
X0051737Y0094643D01*
X0051694Y0094641D01*
X0051651Y0094643D01*
X0051609Y0094648D01*
X0051567Y0094658D01*
X0051527Y0094670D01*
X0051487Y0094687D01*
X0051450Y0094707D01*
X0051414Y0094729D01*
X0051380Y0094755D01*
X0051348Y0094784D01*
X0051319Y0094816D01*
X0051293Y0094850D01*
X0051271Y0094886D01*
X0051251Y0094923D01*
X0051234Y0094963D01*
X0051222Y0095003D01*
X0051212Y0095045D01*
X0051207Y0095087D01*
X0051205Y0095130D01*
X0051205Y0095619D01*
X0051207Y0095662D01*
X0051212Y0095704D01*
X0051222Y0095746D01*
X0051234Y0095786D01*
X0051251Y0095826D01*
X0051271Y0095864D01*
X0051293Y0095899D01*
X0051319Y0095933D01*
X0051348Y0095965D01*
X0051380Y0095994D01*
X0051414Y0096020D01*
X0051450Y0096042D01*
X0051487Y0096062D01*
X0051527Y0096079D01*
X0051567Y0096091D01*
X0051609Y0096101D01*
X0051651Y0096106D01*
X0051694Y0096108D01*
X0051737Y0096106D01*
X0051779Y0096101D01*
X0051821Y0096091D01*
X0051861Y0096079D01*
X0051901Y0096062D01*
X0051939Y0096042D01*
X0051974Y0096020D01*
X0052008Y0095994D01*
X0052040Y0095965D01*
X0052069Y0095933D01*
X0052095Y0095899D01*
X0052117Y0095864D01*
X0052137Y0095826D01*
X0052154Y0095786D01*
X0052166Y0095746D01*
X0052176Y0095704D01*
X0052181Y0095662D01*
X0052183Y0095619D01*
X0052183Y0095130D01*
X0053162Y0094641D02*
X0053162Y0096107D01*
X0053895Y0096107D01*
X0053895Y0095863D01*
X0054517Y0096107D02*
X0055006Y0094641D01*
X0054762Y0093907D02*
X0055495Y0096107D01*
X0056195Y0098025D02*
X0056806Y0098025D01*
X0056854Y0098027D01*
X0056902Y0098033D01*
X0056949Y0098042D01*
X0056995Y0098055D01*
X0057040Y0098072D01*
X0057083Y0098092D01*
X0057125Y0098115D01*
X0057165Y0098142D01*
X0057203Y0098171D01*
X0057238Y0098204D01*
X0057271Y0098239D01*
X0057300Y0098277D01*
X0057327Y0098317D01*
X0057350Y0098359D01*
X0057370Y0098402D01*
X0057387Y0098447D01*
X0057400Y0098493D01*
X0057409Y0098540D01*
X0057415Y0098588D01*
X0057417Y0098636D01*
X0057417Y0099614D01*
X0057415Y0099662D01*
X0057409Y0099710D01*
X0057400Y0099757D01*
X0057387Y0099803D01*
X0057370Y0099848D01*
X0057350Y0099891D01*
X0057327Y0099933D01*
X0057300Y0099973D01*
X0057271Y0100011D01*
X0057238Y0100046D01*
X0057203Y0100079D01*
X0057165Y0100108D01*
X0057125Y0100135D01*
X0057083Y0100158D01*
X0057040Y0100178D01*
X0056995Y0100195D01*
X0056949Y0100208D01*
X0056902Y0100217D01*
X0056854Y0100223D01*
X0056806Y0100225D01*
X0056195Y0100225D01*
X0056195Y0098025D01*
X0054679Y0099003D02*
X0054068Y0099003D01*
X0054679Y0099003D02*
X0054727Y0099005D01*
X0054775Y0099011D01*
X0054822Y0099020D01*
X0054868Y0099033D01*
X0054913Y0099050D01*
X0054956Y0099070D01*
X0054998Y0099093D01*
X0055038Y0099120D01*
X0055076Y0099149D01*
X0055111Y0099182D01*
X0055144Y0099217D01*
X0055173Y0099255D01*
X0055200Y0099295D01*
X0055223Y0099337D01*
X0055243Y0099380D01*
X0055260Y0099425D01*
X0055273Y0099471D01*
X0055282Y0099518D01*
X0055288Y0099566D01*
X0055290Y0099614D01*
X0055288Y0099662D01*
X0055282Y0099710D01*
X0055273Y0099757D01*
X0055260Y0099803D01*
X0055243Y0099848D01*
X0055223Y0099891D01*
X0055200Y0099933D01*
X0055173Y0099973D01*
X0055144Y0100011D01*
X0055111Y0100046D01*
X0055076Y0100079D01*
X0055038Y0100108D01*
X0054998Y0100135D01*
X0054956Y0100158D01*
X0054913Y0100178D01*
X0054868Y0100195D01*
X0054822Y0100208D01*
X0054775Y0100217D01*
X0054727Y0100223D01*
X0054679Y0100225D01*
X0054068Y0100225D01*
X0054068Y0098025D01*
X0052953Y0098636D02*
X0052953Y0100225D01*
X0051731Y0100225D02*
X0051731Y0098636D01*
X0051733Y0098588D01*
X0051739Y0098540D01*
X0051748Y0098493D01*
X0051761Y0098447D01*
X0051778Y0098402D01*
X0051798Y0098359D01*
X0051821Y0098317D01*
X0051848Y0098277D01*
X0051877Y0098239D01*
X0051910Y0098204D01*
X0051945Y0098171D01*
X0051983Y0098142D01*
X0052023Y0098115D01*
X0052065Y0098092D01*
X0052108Y0098072D01*
X0052153Y0098055D01*
X0052199Y0098042D01*
X0052246Y0098033D01*
X0052294Y0098027D01*
X0052342Y0098025D01*
X0052390Y0098027D01*
X0052438Y0098033D01*
X0052485Y0098042D01*
X0052531Y0098055D01*
X0052576Y0098072D01*
X0052619Y0098092D01*
X0052661Y0098115D01*
X0052701Y0098142D01*
X0052739Y0098171D01*
X0052774Y0098204D01*
X0052807Y0098239D01*
X0052836Y0098277D01*
X0052863Y0098317D01*
X0052886Y0098359D01*
X0052906Y0098402D01*
X0052923Y0098447D01*
X0052936Y0098493D01*
X0052945Y0098540D01*
X0052951Y0098588D01*
X0052953Y0098636D01*
X0049663Y0099491D02*
X0048930Y0097291D01*
X0048685Y0097291D01*
X0049174Y0098025D02*
X0048685Y0099491D01*
X0047863Y0099003D02*
X0047863Y0098758D01*
X0046885Y0098758D01*
X0046885Y0099003D02*
X0046885Y0098391D01*
X0046887Y0098355D01*
X0046892Y0098319D01*
X0046901Y0098284D01*
X0046913Y0098251D01*
X0046928Y0098218D01*
X0046947Y0098187D01*
X0046968Y0098158D01*
X0046992Y0098131D01*
X0047019Y0098107D01*
X0047048Y0098086D01*
X0047079Y0098067D01*
X0047112Y0098052D01*
X0047145Y0098040D01*
X0047180Y0098031D01*
X0047216Y0098026D01*
X0047252Y0098024D01*
X0047252Y0098025D02*
X0047863Y0098025D01*
X0047863Y0099003D02*
X0047861Y0099046D01*
X0047856Y0099088D01*
X0047846Y0099130D01*
X0047834Y0099170D01*
X0047817Y0099210D01*
X0047797Y0099248D01*
X0047775Y0099283D01*
X0047749Y0099317D01*
X0047720Y0099349D01*
X0047688Y0099378D01*
X0047654Y0099404D01*
X0047619Y0099426D01*
X0047581Y0099446D01*
X0047541Y0099463D01*
X0047501Y0099475D01*
X0047459Y0099485D01*
X0047417Y0099490D01*
X0047374Y0099492D01*
X0047331Y0099490D01*
X0047289Y0099485D01*
X0047247Y0099475D01*
X0047207Y0099463D01*
X0047167Y0099446D01*
X0047130Y0099426D01*
X0047094Y0099404D01*
X0047060Y0099378D01*
X0047028Y0099349D01*
X0046999Y0099317D01*
X0046973Y0099283D01*
X0046951Y0099248D01*
X0046931Y0099210D01*
X0046914Y0099170D01*
X0046902Y0099130D01*
X0046892Y0099088D01*
X0046887Y0099046D01*
X0046885Y0099003D01*
X0046191Y0099247D02*
X0046191Y0099491D01*
X0045458Y0099491D01*
X0045458Y0098025D01*
X0044385Y0098025D02*
X0043652Y0098025D01*
X0043609Y0098027D01*
X0043567Y0098032D01*
X0043525Y0098042D01*
X0043485Y0098054D01*
X0043445Y0098071D01*
X0043408Y0098091D01*
X0043372Y0098113D01*
X0043338Y0098139D01*
X0043306Y0098168D01*
X0043277Y0098200D01*
X0043251Y0098234D01*
X0043229Y0098270D01*
X0043209Y0098307D01*
X0043192Y0098347D01*
X0043180Y0098387D01*
X0043170Y0098429D01*
X0043165Y0098471D01*
X0043163Y0098514D01*
X0043163Y0099736D01*
X0043165Y0099779D01*
X0043170Y0099821D01*
X0043180Y0099863D01*
X0043192Y0099903D01*
X0043209Y0099943D01*
X0043229Y0099980D01*
X0043251Y0100016D01*
X0043277Y0100050D01*
X0043306Y0100082D01*
X0043338Y0100111D01*
X0043372Y0100137D01*
X0043407Y0100159D01*
X0043445Y0100179D01*
X0043485Y0100196D01*
X0043525Y0100208D01*
X0043567Y0100218D01*
X0043609Y0100223D01*
X0043652Y0100225D01*
X0044385Y0100225D01*
X0044385Y0099247D02*
X0044385Y0098025D01*
X0044265Y0096841D02*
X0044998Y0095619D01*
X0045731Y0096841D01*
X0045731Y0094641D01*
X0046741Y0095007D02*
X0046741Y0095619D01*
X0046741Y0095374D02*
X0047719Y0095374D01*
X0047719Y0095619D01*
X0047717Y0095662D01*
X0047712Y0095704D01*
X0047702Y0095746D01*
X0047690Y0095786D01*
X0047673Y0095826D01*
X0047653Y0095864D01*
X0047631Y0095899D01*
X0047605Y0095933D01*
X0047576Y0095965D01*
X0047544Y0095994D01*
X0047510Y0096020D01*
X0047475Y0096042D01*
X0047437Y0096062D01*
X0047397Y0096079D01*
X0047357Y0096091D01*
X0047315Y0096101D01*
X0047273Y0096106D01*
X0047230Y0096108D01*
X0047187Y0096106D01*
X0047145Y0096101D01*
X0047103Y0096091D01*
X0047063Y0096079D01*
X0047023Y0096062D01*
X0046986Y0096042D01*
X0046950Y0096020D01*
X0046916Y0095994D01*
X0046884Y0095965D01*
X0046855Y0095933D01*
X0046829Y0095899D01*
X0046807Y0095864D01*
X0046787Y0095826D01*
X0046770Y0095786D01*
X0046758Y0095746D01*
X0046748Y0095704D01*
X0046743Y0095662D01*
X0046741Y0095619D01*
X0046741Y0095007D02*
X0046743Y0094971D01*
X0046748Y0094935D01*
X0046757Y0094900D01*
X0046769Y0094867D01*
X0046784Y0094834D01*
X0046803Y0094803D01*
X0046824Y0094774D01*
X0046848Y0094747D01*
X0046875Y0094723D01*
X0046904Y0094702D01*
X0046935Y0094683D01*
X0046968Y0094668D01*
X0047001Y0094656D01*
X0047036Y0094647D01*
X0047072Y0094642D01*
X0047108Y0094640D01*
X0047108Y0094641D02*
X0047719Y0094641D01*
X0048729Y0094641D02*
X0048729Y0096107D01*
X0049829Y0096107D01*
X0049829Y0096108D02*
X0049865Y0096106D01*
X0049901Y0096101D01*
X0049936Y0096092D01*
X0049969Y0096080D01*
X0050002Y0096065D01*
X0050033Y0096046D01*
X0050062Y0096025D01*
X0050089Y0096001D01*
X0050113Y0095974D01*
X0050134Y0095945D01*
X0050153Y0095914D01*
X0050168Y0095881D01*
X0050180Y0095848D01*
X0050189Y0095813D01*
X0050194Y0095777D01*
X0050196Y0095741D01*
X0050195Y0095741D02*
X0050195Y0094641D01*
X0049462Y0094641D02*
X0049462Y0096107D01*
X0050932Y0091746D02*
X0050934Y0091703D01*
X0050939Y0091661D01*
X0050949Y0091619D01*
X0050961Y0091579D01*
X0050978Y0091539D01*
X0050998Y0091502D01*
X0051020Y0091466D01*
X0051046Y0091432D01*
X0051075Y0091400D01*
X0051107Y0091371D01*
X0051141Y0091345D01*
X0051177Y0091323D01*
X0051214Y0091303D01*
X0051254Y0091286D01*
X0051294Y0091274D01*
X0051336Y0091264D01*
X0051378Y0091259D01*
X0051421Y0091257D01*
X0051910Y0091257D01*
X0054517Y0093907D02*
X0054762Y0093907D01*
X0057596Y0094641D02*
X0057596Y0096841D01*
X0058207Y0096841D01*
X0058250Y0096839D01*
X0058292Y0096834D01*
X0058334Y0096824D01*
X0058374Y0096812D01*
X0058414Y0096795D01*
X0058452Y0096775D01*
X0058487Y0096753D01*
X0058521Y0096727D01*
X0058553Y0096698D01*
X0058582Y0096666D01*
X0058608Y0096632D01*
X0058630Y0096597D01*
X0058650Y0096559D01*
X0058667Y0096519D01*
X0058679Y0096479D01*
X0058689Y0096437D01*
X0058694Y0096395D01*
X0058696Y0096352D01*
X0058694Y0096309D01*
X0058689Y0096267D01*
X0058679Y0096225D01*
X0058667Y0096185D01*
X0058650Y0096145D01*
X0058630Y0096108D01*
X0058608Y0096072D01*
X0058582Y0096038D01*
X0058553Y0096006D01*
X0058521Y0095977D01*
X0058487Y0095951D01*
X0058452Y0095929D01*
X0058414Y0095909D01*
X0058374Y0095892D01*
X0058334Y0095880D01*
X0058292Y0095870D01*
X0058250Y0095865D01*
X0058207Y0095863D01*
X0057596Y0095863D01*
X0058207Y0095863D02*
X0058255Y0095861D01*
X0058303Y0095855D01*
X0058350Y0095846D01*
X0058396Y0095833D01*
X0058441Y0095816D01*
X0058484Y0095796D01*
X0058526Y0095773D01*
X0058566Y0095746D01*
X0058604Y0095717D01*
X0058639Y0095684D01*
X0058672Y0095649D01*
X0058701Y0095611D01*
X0058728Y0095571D01*
X0058751Y0095529D01*
X0058771Y0095486D01*
X0058788Y0095441D01*
X0058801Y0095395D01*
X0058810Y0095348D01*
X0058816Y0095300D01*
X0058818Y0095252D01*
X0058816Y0095204D01*
X0058810Y0095156D01*
X0058801Y0095109D01*
X0058788Y0095063D01*
X0058771Y0095018D01*
X0058751Y0094975D01*
X0058728Y0094933D01*
X0058701Y0094893D01*
X0058672Y0094855D01*
X0058639Y0094820D01*
X0058604Y0094787D01*
X0058566Y0094758D01*
X0058526Y0094731D01*
X0058484Y0094708D01*
X0058441Y0094688D01*
X0058396Y0094671D01*
X0058350Y0094658D01*
X0058303Y0094649D01*
X0058255Y0094643D01*
X0058207Y0094641D01*
X0057596Y0094641D01*
X0059629Y0095130D02*
X0059629Y0095619D01*
X0059631Y0095662D01*
X0059636Y0095704D01*
X0059646Y0095746D01*
X0059658Y0095786D01*
X0059675Y0095826D01*
X0059695Y0095864D01*
X0059717Y0095899D01*
X0059743Y0095933D01*
X0059772Y0095965D01*
X0059804Y0095994D01*
X0059838Y0096020D01*
X0059874Y0096042D01*
X0059911Y0096062D01*
X0059951Y0096079D01*
X0059991Y0096091D01*
X0060033Y0096101D01*
X0060075Y0096106D01*
X0060118Y0096108D01*
X0060161Y0096106D01*
X0060203Y0096101D01*
X0060245Y0096091D01*
X0060285Y0096079D01*
X0060325Y0096062D01*
X0060363Y0096042D01*
X0060398Y0096020D01*
X0060432Y0095994D01*
X0060464Y0095965D01*
X0060493Y0095933D01*
X0060519Y0095899D01*
X0060541Y0095864D01*
X0060561Y0095826D01*
X0060578Y0095786D01*
X0060590Y0095746D01*
X0060600Y0095704D01*
X0060605Y0095662D01*
X0060607Y0095619D01*
X0060607Y0095130D01*
X0060605Y0095087D01*
X0060600Y0095045D01*
X0060590Y0095003D01*
X0060578Y0094963D01*
X0060561Y0094923D01*
X0060541Y0094886D01*
X0060519Y0094850D01*
X0060493Y0094816D01*
X0060464Y0094784D01*
X0060432Y0094755D01*
X0060398Y0094729D01*
X0060363Y0094707D01*
X0060325Y0094687D01*
X0060285Y0094670D01*
X0060245Y0094658D01*
X0060203Y0094648D01*
X0060161Y0094643D01*
X0060118Y0094641D01*
X0060075Y0094643D01*
X0060033Y0094648D01*
X0059991Y0094658D01*
X0059951Y0094670D01*
X0059911Y0094687D01*
X0059874Y0094707D01*
X0059838Y0094729D01*
X0059804Y0094755D01*
X0059772Y0094784D01*
X0059743Y0094816D01*
X0059717Y0094850D01*
X0059695Y0094886D01*
X0059675Y0094923D01*
X0059658Y0094963D01*
X0059646Y0095003D01*
X0059636Y0095045D01*
X0059631Y0095087D01*
X0059629Y0095130D01*
X0061612Y0096107D02*
X0062101Y0096107D01*
X0062101Y0096108D02*
X0062137Y0096106D01*
X0062173Y0096101D01*
X0062208Y0096092D01*
X0062241Y0096080D01*
X0062274Y0096065D01*
X0062305Y0096046D01*
X0062334Y0096025D01*
X0062361Y0096001D01*
X0062385Y0095974D01*
X0062406Y0095945D01*
X0062425Y0095914D01*
X0062440Y0095881D01*
X0062452Y0095848D01*
X0062461Y0095813D01*
X0062466Y0095777D01*
X0062468Y0095741D01*
X0062468Y0094641D01*
X0061918Y0094641D01*
X0061879Y0094643D01*
X0061839Y0094648D01*
X0061801Y0094657D01*
X0061763Y0094670D01*
X0061727Y0094686D01*
X0061693Y0094705D01*
X0061660Y0094727D01*
X0061630Y0094753D01*
X0061602Y0094781D01*
X0061576Y0094811D01*
X0061554Y0094844D01*
X0061535Y0094878D01*
X0061519Y0094914D01*
X0061506Y0094952D01*
X0061497Y0094990D01*
X0061492Y0095030D01*
X0061490Y0095069D01*
X0061492Y0095108D01*
X0061497Y0095148D01*
X0061506Y0095186D01*
X0061519Y0095224D01*
X0061535Y0095260D01*
X0061554Y0095294D01*
X0061576Y0095327D01*
X0061602Y0095357D01*
X0061630Y0095385D01*
X0061660Y0095411D01*
X0061693Y0095433D01*
X0061727Y0095452D01*
X0061763Y0095468D01*
X0061801Y0095481D01*
X0061839Y0095490D01*
X0061879Y0095495D01*
X0061918Y0095497D01*
X0061918Y0095496D02*
X0062468Y0095496D01*
X0063530Y0096107D02*
X0064263Y0096107D01*
X0064263Y0095863D01*
X0064946Y0095741D02*
X0064946Y0095007D01*
X0064945Y0095007D02*
X0064947Y0094971D01*
X0064952Y0094935D01*
X0064961Y0094900D01*
X0064973Y0094867D01*
X0064988Y0094834D01*
X0065007Y0094803D01*
X0065028Y0094774D01*
X0065052Y0094747D01*
X0065079Y0094723D01*
X0065108Y0094702D01*
X0065139Y0094683D01*
X0065172Y0094668D01*
X0065205Y0094656D01*
X0065240Y0094647D01*
X0065276Y0094642D01*
X0065312Y0094640D01*
X0065312Y0094641D02*
X0065923Y0094641D01*
X0065923Y0096841D01*
X0065923Y0096107D02*
X0065312Y0096107D01*
X0065312Y0096108D02*
X0065276Y0096106D01*
X0065240Y0096101D01*
X0065205Y0096092D01*
X0065172Y0096080D01*
X0065139Y0096065D01*
X0065108Y0096046D01*
X0065079Y0096025D01*
X0065052Y0096001D01*
X0065028Y0095974D01*
X0065007Y0095945D01*
X0064988Y0095914D01*
X0064973Y0095881D01*
X0064961Y0095848D01*
X0064952Y0095813D01*
X0064947Y0095777D01*
X0064945Y0095741D01*
X0063530Y0096107D02*
X0063530Y0094641D01*
X0062335Y0098025D02*
X0062335Y0099125D01*
X0062333Y0099161D01*
X0062328Y0099197D01*
X0062319Y0099232D01*
X0062307Y0099265D01*
X0062292Y0099298D01*
X0062273Y0099329D01*
X0062252Y0099358D01*
X0062228Y0099385D01*
X0062201Y0099409D01*
X0062172Y0099430D01*
X0062141Y0099449D01*
X0062108Y0099464D01*
X0062075Y0099476D01*
X0062040Y0099485D01*
X0062004Y0099490D01*
X0061968Y0099492D01*
X0061968Y0099491D02*
X0061357Y0099491D01*
X0061357Y0098025D01*
X0060406Y0098025D02*
X0060406Y0099491D01*
X0060467Y0100103D02*
X0060345Y0100103D01*
X0060345Y0100225D01*
X0060467Y0100225D01*
X0060467Y0100103D01*
X0059455Y0099491D02*
X0059455Y0098025D01*
X0058844Y0098025D01*
X0058844Y0098024D02*
X0058808Y0098026D01*
X0058772Y0098031D01*
X0058737Y0098040D01*
X0058704Y0098052D01*
X0058671Y0098067D01*
X0058640Y0098086D01*
X0058611Y0098107D01*
X0058584Y0098131D01*
X0058560Y0098158D01*
X0058539Y0098187D01*
X0058520Y0098218D01*
X0058505Y0098251D01*
X0058493Y0098284D01*
X0058484Y0098319D01*
X0058479Y0098355D01*
X0058477Y0098391D01*
X0058477Y0099491D01*
X0063301Y0099003D02*
X0063301Y0098514D01*
X0063303Y0098471D01*
X0063308Y0098429D01*
X0063318Y0098387D01*
X0063330Y0098347D01*
X0063347Y0098307D01*
X0063367Y0098270D01*
X0063389Y0098234D01*
X0063415Y0098200D01*
X0063444Y0098168D01*
X0063476Y0098139D01*
X0063510Y0098113D01*
X0063546Y0098091D01*
X0063583Y0098071D01*
X0063623Y0098054D01*
X0063663Y0098042D01*
X0063705Y0098032D01*
X0063747Y0098027D01*
X0063790Y0098025D01*
X0063833Y0098027D01*
X0063875Y0098032D01*
X0063917Y0098042D01*
X0063957Y0098054D01*
X0063997Y0098071D01*
X0064035Y0098091D01*
X0064070Y0098113D01*
X0064104Y0098139D01*
X0064136Y0098168D01*
X0064165Y0098200D01*
X0064191Y0098234D01*
X0064213Y0098270D01*
X0064233Y0098307D01*
X0064250Y0098347D01*
X0064262Y0098387D01*
X0064272Y0098429D01*
X0064277Y0098471D01*
X0064279Y0098514D01*
X0064279Y0099003D01*
X0064277Y0099046D01*
X0064272Y0099088D01*
X0064262Y0099130D01*
X0064250Y0099170D01*
X0064233Y0099210D01*
X0064213Y0099248D01*
X0064191Y0099283D01*
X0064165Y0099317D01*
X0064136Y0099349D01*
X0064104Y0099378D01*
X0064070Y0099404D01*
X0064035Y0099426D01*
X0063997Y0099446D01*
X0063957Y0099463D01*
X0063917Y0099475D01*
X0063875Y0099485D01*
X0063833Y0099490D01*
X0063790Y0099492D01*
X0063747Y0099490D01*
X0063705Y0099485D01*
X0063663Y0099475D01*
X0063623Y0099463D01*
X0063583Y0099446D01*
X0063546Y0099426D01*
X0063510Y0099404D01*
X0063476Y0099378D01*
X0063444Y0099349D01*
X0063415Y0099317D01*
X0063389Y0099283D01*
X0063367Y0099248D01*
X0063347Y0099210D01*
X0063330Y0099170D01*
X0063318Y0099130D01*
X0063308Y0099088D01*
X0063303Y0099046D01*
X0063301Y0099003D01*
X0075350Y0108478D02*
X0075350Y0108967D01*
X0075350Y0108478D02*
X0075352Y0108435D01*
X0075357Y0108393D01*
X0075367Y0108351D01*
X0075379Y0108311D01*
X0075396Y0108271D01*
X0075416Y0108233D01*
X0075438Y0108198D01*
X0075464Y0108164D01*
X0075493Y0108132D01*
X0075525Y0108103D01*
X0075559Y0108077D01*
X0075595Y0108055D01*
X0075632Y0108035D01*
X0075672Y0108018D01*
X0075712Y0108006D01*
X0075754Y0107996D01*
X0075796Y0107991D01*
X0075839Y0107989D01*
X0075839Y0107990D02*
X0077062Y0107990D01*
X0077062Y0107989D02*
X0077105Y0107991D01*
X0077147Y0107996D01*
X0077189Y0108006D01*
X0077229Y0108018D01*
X0077269Y0108035D01*
X0077307Y0108055D01*
X0077342Y0108077D01*
X0077376Y0108103D01*
X0077408Y0108132D01*
X0077437Y0108164D01*
X0077463Y0108198D01*
X0077485Y0108234D01*
X0077505Y0108271D01*
X0077522Y0108311D01*
X0077534Y0108351D01*
X0077544Y0108393D01*
X0077549Y0108435D01*
X0077551Y0108478D01*
X0077550Y0108478D02*
X0077550Y0108967D01*
X0077550Y0109796D02*
X0076328Y0110835D01*
X0075350Y0110468D02*
X0075352Y0110416D01*
X0075358Y0110364D01*
X0075367Y0110312D01*
X0075381Y0110262D01*
X0075398Y0110212D01*
X0075419Y0110164D01*
X0075443Y0110118D01*
X0075470Y0110074D01*
X0075501Y0110031D01*
X0075535Y0109991D01*
X0075571Y0109954D01*
X0075611Y0109920D01*
X0075653Y0109888D01*
X0075696Y0109860D01*
X0075742Y0109835D01*
X0075790Y0109813D01*
X0075839Y0109795D01*
X0076328Y0110835D02*
X0076294Y0110868D01*
X0076257Y0110898D01*
X0076217Y0110926D01*
X0076176Y0110950D01*
X0076133Y0110970D01*
X0076088Y0110987D01*
X0076042Y0111001D01*
X0075995Y0111010D01*
X0075948Y0111016D01*
X0075900Y0111018D01*
X0075855Y0111016D01*
X0075809Y0111010D01*
X0075765Y0111001D01*
X0075721Y0110988D01*
X0075679Y0110972D01*
X0075638Y0110952D01*
X0075599Y0110928D01*
X0075562Y0110902D01*
X0075527Y0110873D01*
X0075495Y0110841D01*
X0075466Y0110806D01*
X0075440Y0110769D01*
X0075416Y0110730D01*
X0075396Y0110689D01*
X0075380Y0110647D01*
X0075367Y0110603D01*
X0075358Y0110559D01*
X0075352Y0110513D01*
X0075350Y0110468D01*
X0077550Y0111018D02*
X0077550Y0109796D01*
X0076487Y0117910D02*
X0074287Y0117910D01*
X0074287Y0118521D01*
X0074289Y0118569D01*
X0074295Y0118617D01*
X0074304Y0118664D01*
X0074317Y0118710D01*
X0074334Y0118755D01*
X0074354Y0118798D01*
X0074377Y0118840D01*
X0074404Y0118880D01*
X0074433Y0118918D01*
X0074466Y0118953D01*
X0074501Y0118986D01*
X0074539Y0119015D01*
X0074579Y0119042D01*
X0074621Y0119065D01*
X0074664Y0119085D01*
X0074709Y0119102D01*
X0074755Y0119115D01*
X0074802Y0119124D01*
X0074850Y0119130D01*
X0074898Y0119132D01*
X0074946Y0119130D01*
X0074994Y0119124D01*
X0075041Y0119115D01*
X0075087Y0119102D01*
X0075132Y0119085D01*
X0075175Y0119065D01*
X0075217Y0119042D01*
X0075257Y0119015D01*
X0075295Y0118986D01*
X0075330Y0118953D01*
X0075363Y0118918D01*
X0075392Y0118880D01*
X0075419Y0118840D01*
X0075442Y0118798D01*
X0075462Y0118755D01*
X0075479Y0118710D01*
X0075492Y0118664D01*
X0075501Y0118617D01*
X0075507Y0118569D01*
X0075509Y0118521D01*
X0075509Y0117910D01*
X0075509Y0118643D02*
X0076487Y0119132D01*
X0076487Y0120056D02*
X0076487Y0121278D01*
X0076487Y0120667D02*
X0074287Y0120667D01*
X0074776Y0120056D01*
X0075216Y0133046D02*
X0075216Y0133657D01*
X0075216Y0133780D02*
X0076194Y0134269D01*
X0076194Y0135192D02*
X0076194Y0136414D01*
X0076194Y0135192D02*
X0074972Y0136231D01*
X0073993Y0135864D02*
X0073995Y0135812D01*
X0074001Y0135760D01*
X0074010Y0135708D01*
X0074024Y0135658D01*
X0074041Y0135608D01*
X0074062Y0135560D01*
X0074086Y0135514D01*
X0074113Y0135470D01*
X0074144Y0135427D01*
X0074178Y0135387D01*
X0074214Y0135350D01*
X0074254Y0135316D01*
X0074296Y0135284D01*
X0074339Y0135256D01*
X0074385Y0135231D01*
X0074433Y0135209D01*
X0074482Y0135191D01*
X0074972Y0136232D02*
X0074938Y0136265D01*
X0074901Y0136295D01*
X0074861Y0136323D01*
X0074820Y0136347D01*
X0074777Y0136367D01*
X0074732Y0136384D01*
X0074686Y0136398D01*
X0074639Y0136407D01*
X0074592Y0136413D01*
X0074544Y0136415D01*
X0074544Y0136414D02*
X0074499Y0136412D01*
X0074453Y0136406D01*
X0074409Y0136397D01*
X0074365Y0136384D01*
X0074323Y0136368D01*
X0074282Y0136348D01*
X0074243Y0136324D01*
X0074206Y0136298D01*
X0074171Y0136269D01*
X0074139Y0136237D01*
X0074110Y0136202D01*
X0074084Y0136165D01*
X0074060Y0136126D01*
X0074040Y0136085D01*
X0074024Y0136043D01*
X0074011Y0135999D01*
X0074002Y0135955D01*
X0073996Y0135909D01*
X0073994Y0135864D01*
X0073994Y0133657D02*
X0073994Y0133046D01*
X0076194Y0133046D01*
X0075216Y0133657D02*
X0075214Y0133705D01*
X0075208Y0133753D01*
X0075199Y0133800D01*
X0075186Y0133846D01*
X0075169Y0133891D01*
X0075149Y0133934D01*
X0075126Y0133976D01*
X0075099Y0134016D01*
X0075070Y0134054D01*
X0075037Y0134089D01*
X0075002Y0134122D01*
X0074964Y0134151D01*
X0074924Y0134178D01*
X0074882Y0134201D01*
X0074839Y0134221D01*
X0074794Y0134238D01*
X0074748Y0134251D01*
X0074701Y0134260D01*
X0074653Y0134266D01*
X0074605Y0134268D01*
X0074557Y0134266D01*
X0074509Y0134260D01*
X0074462Y0134251D01*
X0074416Y0134238D01*
X0074371Y0134221D01*
X0074328Y0134201D01*
X0074286Y0134178D01*
X0074246Y0134151D01*
X0074208Y0134122D01*
X0074173Y0134089D01*
X0074140Y0134054D01*
X0074111Y0134016D01*
X0074084Y0133976D01*
X0074061Y0133934D01*
X0074041Y0133891D01*
X0074024Y0133846D01*
X0074011Y0133800D01*
X0074002Y0133753D01*
X0073996Y0133705D01*
X0073994Y0133657D01*
X0074293Y0143830D02*
X0075515Y0143830D01*
X0075558Y0143832D01*
X0075600Y0143837D01*
X0075642Y0143847D01*
X0075682Y0143859D01*
X0075722Y0143876D01*
X0075760Y0143896D01*
X0075795Y0143918D01*
X0075829Y0143944D01*
X0075861Y0143973D01*
X0075890Y0144005D01*
X0075916Y0144039D01*
X0075938Y0144075D01*
X0075958Y0144112D01*
X0075975Y0144152D01*
X0075987Y0144192D01*
X0075997Y0144234D01*
X0076002Y0144276D01*
X0076004Y0144319D01*
X0076004Y0144808D01*
X0076004Y0145636D02*
X0076004Y0146859D01*
X0076004Y0146247D02*
X0073804Y0146247D01*
X0074293Y0145636D01*
X0073804Y0144808D02*
X0073804Y0144319D01*
X0073806Y0144276D01*
X0073811Y0144234D01*
X0073821Y0144192D01*
X0073833Y0144152D01*
X0073850Y0144112D01*
X0073870Y0144074D01*
X0073892Y0144039D01*
X0073918Y0144005D01*
X0073947Y0143973D01*
X0073979Y0143944D01*
X0074013Y0143918D01*
X0074049Y0143896D01*
X0074086Y0143876D01*
X0074126Y0143859D01*
X0074166Y0143847D01*
X0074208Y0143837D01*
X0074250Y0143832D01*
X0074293Y0143830D01*
X0076001Y0162550D02*
X0076245Y0162550D01*
X0076288Y0162552D01*
X0076330Y0162557D01*
X0076372Y0162567D01*
X0076412Y0162579D01*
X0076452Y0162596D01*
X0076490Y0162616D01*
X0076525Y0162638D01*
X0076559Y0162664D01*
X0076591Y0162693D01*
X0076620Y0162725D01*
X0076646Y0162759D01*
X0076668Y0162795D01*
X0076688Y0162832D01*
X0076705Y0162872D01*
X0076717Y0162912D01*
X0076727Y0162954D01*
X0076732Y0162996D01*
X0076734Y0163039D01*
X0076734Y0164750D01*
X0078775Y0163772D02*
X0078808Y0163806D01*
X0078838Y0163843D01*
X0078866Y0163883D01*
X0078890Y0163924D01*
X0078910Y0163967D01*
X0078927Y0164012D01*
X0078941Y0164058D01*
X0078950Y0164105D01*
X0078956Y0164152D01*
X0078958Y0164200D01*
X0078774Y0163772D02*
X0077735Y0162550D01*
X0078957Y0162550D01*
X0077734Y0164261D02*
X0077752Y0164310D01*
X0077774Y0164358D01*
X0077799Y0164404D01*
X0077827Y0164447D01*
X0077859Y0164489D01*
X0077893Y0164529D01*
X0077930Y0164565D01*
X0077970Y0164599D01*
X0078013Y0164630D01*
X0078057Y0164657D01*
X0078103Y0164681D01*
X0078151Y0164702D01*
X0078201Y0164719D01*
X0078251Y0164733D01*
X0078303Y0164742D01*
X0078355Y0164748D01*
X0078407Y0164750D01*
X0078452Y0164748D01*
X0078498Y0164742D01*
X0078542Y0164733D01*
X0078586Y0164720D01*
X0078628Y0164704D01*
X0078669Y0164684D01*
X0078708Y0164660D01*
X0078745Y0164634D01*
X0078780Y0164605D01*
X0078812Y0164573D01*
X0078841Y0164538D01*
X0078867Y0164501D01*
X0078891Y0164462D01*
X0078911Y0164421D01*
X0078927Y0164379D01*
X0078940Y0164335D01*
X0078949Y0164291D01*
X0078955Y0164245D01*
X0078957Y0164200D01*
X0113817Y0163212D02*
X0114062Y0163212D01*
X0114105Y0163214D01*
X0114147Y0163219D01*
X0114189Y0163229D01*
X0114229Y0163241D01*
X0114269Y0163258D01*
X0114307Y0163278D01*
X0114342Y0163300D01*
X0114376Y0163326D01*
X0114408Y0163355D01*
X0114437Y0163387D01*
X0114463Y0163421D01*
X0114485Y0163457D01*
X0114505Y0163494D01*
X0114522Y0163534D01*
X0114534Y0163574D01*
X0114544Y0163616D01*
X0114549Y0163658D01*
X0114551Y0163701D01*
X0114551Y0165412D01*
X0115551Y0164923D02*
X0116163Y0165412D01*
X0116163Y0163212D01*
X0116774Y0163212D02*
X0115551Y0163212D01*
X0044385Y0099247D02*
X0044019Y0099247D01*
X0044265Y0096841D02*
X0044265Y0094641D01*
X0041920Y0095252D02*
X0041309Y0095496D01*
X0041308Y0095497D02*
X0041276Y0095512D01*
X0041246Y0095530D01*
X0041219Y0095551D01*
X0041193Y0095576D01*
X0041171Y0095603D01*
X0041152Y0095632D01*
X0041136Y0095664D01*
X0041123Y0095697D01*
X0041115Y0095731D01*
X0041110Y0095766D01*
X0041109Y0095801D01*
X0041112Y0095836D01*
X0041119Y0095870D01*
X0041130Y0095904D01*
X0041144Y0095936D01*
X0041162Y0095966D01*
X0041183Y0095994D01*
X0041207Y0096020D01*
X0041234Y0096043D01*
X0041263Y0096063D01*
X0041294Y0096079D01*
X0041327Y0096092D01*
X0041361Y0096101D01*
X0041395Y0096107D01*
X0041431Y0096108D01*
X0041125Y0094762D02*
X0041206Y0094735D01*
X0041289Y0094711D01*
X0041372Y0094691D01*
X0041456Y0094673D01*
X0041541Y0094660D01*
X0041626Y0094650D01*
X0041712Y0094643D01*
X0041797Y0094640D01*
X0041797Y0094641D02*
X0041833Y0094642D01*
X0041867Y0094648D01*
X0041901Y0094657D01*
X0041934Y0094670D01*
X0041965Y0094686D01*
X0041994Y0094706D01*
X0042021Y0094729D01*
X0042045Y0094755D01*
X0042066Y0094783D01*
X0042084Y0094813D01*
X0042098Y0094845D01*
X0042109Y0094879D01*
X0042116Y0094913D01*
X0042119Y0094948D01*
X0042118Y0094983D01*
X0042113Y0095018D01*
X0042105Y0095052D01*
X0042092Y0095085D01*
X0042076Y0095117D01*
X0042057Y0095146D01*
X0042035Y0095173D01*
X0042009Y0095198D01*
X0041982Y0095219D01*
X0041952Y0095237D01*
X0041920Y0095252D01*
X0041981Y0095986D02*
X0041915Y0096013D01*
X0041849Y0096037D01*
X0041781Y0096058D01*
X0041712Y0096075D01*
X0041643Y0096089D01*
X0041572Y0096099D01*
X0041502Y0096105D01*
X0041431Y0096108D01*
X0040159Y0096107D02*
X0040159Y0094641D01*
X0039548Y0094641D01*
X0039548Y0094640D02*
X0039512Y0094642D01*
X0039476Y0094647D01*
X0039441Y0094656D01*
X0039408Y0094668D01*
X0039375Y0094683D01*
X0039344Y0094702D01*
X0039315Y0094723D01*
X0039288Y0094747D01*
X0039264Y0094774D01*
X0039243Y0094803D01*
X0039224Y0094834D01*
X0039209Y0094867D01*
X0039197Y0094900D01*
X0039188Y0094935D01*
X0039183Y0094971D01*
X0039181Y0095007D01*
X0039181Y0096107D01*
X0038226Y0095741D02*
X0038226Y0095007D01*
X0038227Y0095007D02*
X0038225Y0094971D01*
X0038220Y0094935D01*
X0038211Y0094900D01*
X0038199Y0094867D01*
X0038184Y0094834D01*
X0038165Y0094803D01*
X0038144Y0094774D01*
X0038120Y0094747D01*
X0038093Y0094723D01*
X0038064Y0094702D01*
X0038033Y0094683D01*
X0038000Y0094668D01*
X0037967Y0094656D01*
X0037932Y0094647D01*
X0037896Y0094642D01*
X0037860Y0094640D01*
X0037860Y0094641D02*
X0037249Y0094641D01*
X0037249Y0096841D01*
X0037249Y0096107D02*
X0037860Y0096107D01*
X0037860Y0096108D02*
X0037896Y0096106D01*
X0037932Y0096101D01*
X0037967Y0096092D01*
X0038000Y0096080D01*
X0038033Y0096065D01*
X0038064Y0096046D01*
X0038093Y0096025D01*
X0038120Y0096001D01*
X0038144Y0095974D01*
X0038165Y0095945D01*
X0038184Y0095914D01*
X0038199Y0095881D01*
X0038211Y0095848D01*
X0038220Y0095813D01*
X0038225Y0095777D01*
X0038227Y0095741D01*
X0036471Y0095863D02*
X0036471Y0096107D01*
X0035738Y0096107D01*
X0035738Y0094641D01*
X0034759Y0094641D02*
X0034148Y0094641D01*
X0034148Y0094640D02*
X0034112Y0094642D01*
X0034076Y0094647D01*
X0034041Y0094656D01*
X0034008Y0094668D01*
X0033975Y0094683D01*
X0033944Y0094702D01*
X0033915Y0094723D01*
X0033888Y0094747D01*
X0033864Y0094774D01*
X0033843Y0094803D01*
X0033824Y0094834D01*
X0033809Y0094867D01*
X0033797Y0094900D01*
X0033788Y0094935D01*
X0033783Y0094971D01*
X0033781Y0095007D01*
X0033781Y0095619D01*
X0033781Y0095374D02*
X0034759Y0095374D01*
X0034759Y0095619D01*
X0034757Y0095662D01*
X0034752Y0095704D01*
X0034742Y0095746D01*
X0034730Y0095786D01*
X0034713Y0095826D01*
X0034693Y0095864D01*
X0034671Y0095899D01*
X0034645Y0095933D01*
X0034616Y0095965D01*
X0034584Y0095994D01*
X0034550Y0096020D01*
X0034515Y0096042D01*
X0034477Y0096062D01*
X0034437Y0096079D01*
X0034397Y0096091D01*
X0034355Y0096101D01*
X0034313Y0096106D01*
X0034270Y0096108D01*
X0034227Y0096106D01*
X0034185Y0096101D01*
X0034143Y0096091D01*
X0034103Y0096079D01*
X0034063Y0096062D01*
X0034026Y0096042D01*
X0033990Y0096020D01*
X0033956Y0095994D01*
X0033924Y0095965D01*
X0033895Y0095933D01*
X0033869Y0095899D01*
X0033847Y0095864D01*
X0033827Y0095826D01*
X0033810Y0095786D01*
X0033798Y0095746D01*
X0033788Y0095704D01*
X0033783Y0095662D01*
X0033781Y0095619D01*
X0032898Y0095741D02*
X0032898Y0095007D01*
X0032899Y0095007D02*
X0032897Y0094971D01*
X0032892Y0094935D01*
X0032883Y0094900D01*
X0032871Y0094867D01*
X0032856Y0094834D01*
X0032837Y0094803D01*
X0032816Y0094774D01*
X0032792Y0094747D01*
X0032765Y0094723D01*
X0032736Y0094702D01*
X0032705Y0094683D01*
X0032672Y0094668D01*
X0032639Y0094656D01*
X0032604Y0094647D01*
X0032568Y0094642D01*
X0032532Y0094640D01*
X0032532Y0094641D02*
X0031921Y0094641D01*
X0031921Y0093907D02*
X0031921Y0096107D01*
X0032532Y0096107D01*
X0032532Y0096108D02*
X0032568Y0096106D01*
X0032604Y0096101D01*
X0032639Y0096092D01*
X0032672Y0096080D01*
X0032705Y0096065D01*
X0032736Y0096046D01*
X0032765Y0096025D01*
X0032792Y0096001D01*
X0032816Y0095974D01*
X0032837Y0095945D01*
X0032856Y0095914D01*
X0032871Y0095881D01*
X0032883Y0095848D01*
X0032892Y0095813D01*
X0032897Y0095777D01*
X0032899Y0095741D01*
X0031015Y0096107D02*
X0030282Y0093907D01*
X0030037Y0093907D01*
X0030526Y0094641D02*
X0030037Y0096107D01*
X0029121Y0095863D02*
X0027899Y0095863D01*
X0027899Y0096841D02*
X0027899Y0094641D01*
X0029121Y0094641D02*
X0029121Y0096841D01*
X0031355Y0098514D02*
X0031355Y0099736D01*
X0031357Y0099779D01*
X0031362Y0099821D01*
X0031372Y0099863D01*
X0031384Y0099903D01*
X0031401Y0099943D01*
X0031421Y0099980D01*
X0031443Y0100016D01*
X0031469Y0100050D01*
X0031498Y0100082D01*
X0031530Y0100111D01*
X0031564Y0100137D01*
X0031599Y0100159D01*
X0031637Y0100179D01*
X0031677Y0100196D01*
X0031717Y0100208D01*
X0031759Y0100218D01*
X0031801Y0100223D01*
X0031844Y0100225D01*
X0032577Y0100225D01*
X0032577Y0099247D02*
X0032211Y0099247D01*
X0032577Y0099247D02*
X0032577Y0098025D01*
X0031844Y0098025D01*
X0031801Y0098027D01*
X0031759Y0098032D01*
X0031717Y0098042D01*
X0031677Y0098054D01*
X0031637Y0098071D01*
X0031600Y0098091D01*
X0031564Y0098113D01*
X0031530Y0098139D01*
X0031498Y0098168D01*
X0031469Y0098200D01*
X0031443Y0098234D01*
X0031421Y0098270D01*
X0031401Y0098307D01*
X0031384Y0098347D01*
X0031372Y0098387D01*
X0031362Y0098429D01*
X0031357Y0098471D01*
X0031355Y0098514D01*
X0033637Y0098025D02*
X0033637Y0099491D01*
X0034248Y0099491D01*
X0034248Y0099492D02*
X0034284Y0099490D01*
X0034320Y0099485D01*
X0034355Y0099476D01*
X0034388Y0099464D01*
X0034421Y0099449D01*
X0034452Y0099430D01*
X0034481Y0099409D01*
X0034508Y0099385D01*
X0034532Y0099358D01*
X0034553Y0099329D01*
X0034572Y0099298D01*
X0034587Y0099265D01*
X0034599Y0099232D01*
X0034608Y0099197D01*
X0034613Y0099161D01*
X0034615Y0099125D01*
X0034615Y0098025D01*
X0035998Y0098025D02*
X0036548Y0098025D01*
X0036548Y0099125D01*
X0036548Y0098880D02*
X0035998Y0098880D01*
X0036548Y0099125D02*
X0036546Y0099161D01*
X0036541Y0099197D01*
X0036532Y0099232D01*
X0036520Y0099265D01*
X0036505Y0099298D01*
X0036486Y0099329D01*
X0036465Y0099358D01*
X0036441Y0099385D01*
X0036414Y0099409D01*
X0036385Y0099430D01*
X0036354Y0099449D01*
X0036321Y0099464D01*
X0036288Y0099476D01*
X0036253Y0099485D01*
X0036217Y0099490D01*
X0036181Y0099492D01*
X0036181Y0099491D02*
X0035692Y0099491D01*
X0035998Y0098881D02*
X0035959Y0098879D01*
X0035919Y0098874D01*
X0035881Y0098865D01*
X0035843Y0098852D01*
X0035807Y0098836D01*
X0035773Y0098817D01*
X0035740Y0098795D01*
X0035710Y0098769D01*
X0035682Y0098741D01*
X0035656Y0098711D01*
X0035634Y0098678D01*
X0035615Y0098644D01*
X0035599Y0098608D01*
X0035586Y0098570D01*
X0035577Y0098532D01*
X0035572Y0098492D01*
X0035570Y0098453D01*
X0035572Y0098414D01*
X0035577Y0098374D01*
X0035586Y0098336D01*
X0035599Y0098298D01*
X0035615Y0098262D01*
X0035634Y0098228D01*
X0035656Y0098195D01*
X0035682Y0098165D01*
X0035710Y0098137D01*
X0035740Y0098111D01*
X0035773Y0098089D01*
X0035807Y0098070D01*
X0035843Y0098054D01*
X0035881Y0098041D01*
X0035919Y0098032D01*
X0035959Y0098027D01*
X0035998Y0098025D01*
X0037610Y0098025D02*
X0037610Y0099491D01*
X0038343Y0099491D01*
X0038343Y0099247D01*
X0039065Y0098391D02*
X0039065Y0100225D01*
X0040117Y0099491D02*
X0040606Y0098025D01*
X0040362Y0097291D02*
X0041095Y0099491D01*
X0039431Y0098024D02*
X0039395Y0098026D01*
X0039359Y0098031D01*
X0039324Y0098040D01*
X0039291Y0098052D01*
X0039258Y0098067D01*
X0039227Y0098086D01*
X0039198Y0098107D01*
X0039171Y0098131D01*
X0039147Y0098158D01*
X0039126Y0098187D01*
X0039107Y0098218D01*
X0039092Y0098251D01*
X0039080Y0098284D01*
X0039071Y0098319D01*
X0039066Y0098355D01*
X0039064Y0098391D01*
X0040117Y0097291D02*
X0040362Y0097291D01*
X0046292Y0043648D02*
X0046292Y0041448D01*
X0047208Y0040715D02*
X0047452Y0040715D01*
X0032624Y0163261D02*
X0032013Y0163261D01*
X0032624Y0163261D02*
X0032672Y0163263D01*
X0032720Y0163269D01*
X0032767Y0163278D01*
X0032813Y0163291D01*
X0032858Y0163308D01*
X0032901Y0163328D01*
X0032943Y0163351D01*
X0032983Y0163378D01*
X0033021Y0163407D01*
X0033056Y0163440D01*
X0033089Y0163475D01*
X0033118Y0163513D01*
X0033145Y0163553D01*
X0033168Y0163595D01*
X0033188Y0163638D01*
X0033205Y0163683D01*
X0033218Y0163729D01*
X0033227Y0163776D01*
X0033233Y0163824D01*
X0033235Y0163872D01*
X0033233Y0163920D01*
X0033227Y0163968D01*
X0033218Y0164015D01*
X0033205Y0164061D01*
X0033188Y0164106D01*
X0033168Y0164149D01*
X0033145Y0164191D01*
X0033118Y0164231D01*
X0033089Y0164269D01*
X0033056Y0164304D01*
X0033021Y0164337D01*
X0032983Y0164366D01*
X0032943Y0164393D01*
X0032901Y0164416D01*
X0032858Y0164436D01*
X0032813Y0164453D01*
X0032767Y0164466D01*
X0032720Y0164475D01*
X0032672Y0164481D01*
X0032624Y0164483D01*
X0032747Y0164483D02*
X0032258Y0164483D01*
X0032747Y0164483D02*
X0032790Y0164485D01*
X0032832Y0164490D01*
X0032874Y0164500D01*
X0032914Y0164512D01*
X0032954Y0164529D01*
X0032992Y0164549D01*
X0033027Y0164571D01*
X0033061Y0164597D01*
X0033093Y0164626D01*
X0033122Y0164658D01*
X0033148Y0164692D01*
X0033170Y0164728D01*
X0033190Y0164765D01*
X0033207Y0164805D01*
X0033219Y0164845D01*
X0033229Y0164887D01*
X0033234Y0164929D01*
X0033236Y0164972D01*
X0033234Y0165015D01*
X0033229Y0165057D01*
X0033219Y0165099D01*
X0033207Y0165139D01*
X0033190Y0165179D01*
X0033170Y0165217D01*
X0033148Y0165252D01*
X0033122Y0165286D01*
X0033093Y0165318D01*
X0033061Y0165347D01*
X0033027Y0165373D01*
X0032992Y0165395D01*
X0032954Y0165415D01*
X0032914Y0165432D01*
X0032874Y0165444D01*
X0032832Y0165454D01*
X0032790Y0165459D01*
X0032747Y0165461D01*
X0032013Y0165461D01*
X0031012Y0165461D02*
X0031012Y0163750D01*
X0031013Y0163750D02*
X0031011Y0163707D01*
X0031006Y0163665D01*
X0030996Y0163623D01*
X0030984Y0163583D01*
X0030967Y0163543D01*
X0030947Y0163506D01*
X0030925Y0163470D01*
X0030899Y0163436D01*
X0030870Y0163404D01*
X0030838Y0163375D01*
X0030804Y0163349D01*
X0030769Y0163327D01*
X0030731Y0163307D01*
X0030691Y0163290D01*
X0030651Y0163278D01*
X0030609Y0163268D01*
X0030567Y0163263D01*
X0030524Y0163261D01*
X0030279Y0163261D01*
D12*
X0081843Y0167590D02*
X0081843Y0007590D01*
X0091843Y0007590D01*
X0091843Y0157590D01*
X0081843Y0157590D01*
X0081843Y0167590D02*
X0091843Y0167590D01*
X0091843Y0157590D01*
X0101237Y0157578D02*
X0111237Y0157578D01*
X0111237Y0007578D01*
X0101237Y0007578D01*
X0101237Y0167578D01*
X0111237Y0167578D01*
X0111237Y0157578D01*
D13*
X0064903Y0085224D02*
X0064903Y0057665D01*
X0060966Y0053728D01*
X0064903Y0053728D01*
X0064903Y0057665D01*
X0060966Y0053728D02*
X0041281Y0053728D01*
X0041281Y0085224D01*
X0064903Y0085224D01*
X0065547Y0040046D02*
X0041925Y0040046D01*
X0041925Y0008549D01*
X0061610Y0008549D01*
X0065547Y0012486D01*
X0065547Y0008549D01*
X0061610Y0008549D01*
X0065547Y0012486D02*
X0065547Y0040046D01*
D14*
X0028790Y0039902D02*
X0026290Y0037402D01*
X0011290Y0037402D01*
X0008790Y0039902D01*
X0008790Y0044902D01*
X0011290Y0047402D01*
X0026290Y0047402D01*
X0028790Y0044902D01*
X0028790Y0039902D01*
X0026290Y0037402D02*
X0028790Y0034902D01*
X0028790Y0029902D01*
X0026290Y0027402D01*
X0011290Y0027402D01*
X0008790Y0029902D01*
X0008790Y0034902D01*
X0011290Y0037402D01*
X0011290Y0027402D02*
X0008790Y0024902D01*
X0008790Y0019902D01*
X0011290Y0017402D01*
X0026290Y0017402D01*
X0028790Y0014902D01*
X0028790Y0009902D01*
X0026290Y0007402D01*
X0011290Y0007402D01*
X0008790Y0009902D01*
X0008790Y0014902D01*
X0011290Y0017402D01*
X0026290Y0017402D02*
X0028790Y0019902D01*
X0028790Y0024902D01*
X0026290Y0027402D01*
X0026290Y0047402D02*
X0028790Y0049902D01*
X0028790Y0054902D01*
X0026290Y0057402D01*
X0011290Y0057402D01*
X0008790Y0059902D01*
X0008790Y0064902D01*
X0011290Y0067402D01*
X0026290Y0067402D01*
X0028790Y0064902D01*
X0028790Y0059902D01*
X0026290Y0057402D01*
X0026290Y0067402D02*
X0028790Y0069902D01*
X0028790Y0074902D01*
X0026290Y0077402D01*
X0011290Y0077402D01*
X0008790Y0079902D01*
X0008790Y0084902D01*
X0011290Y0087402D01*
X0026290Y0087402D01*
X0028790Y0084902D01*
X0028790Y0079902D01*
X0026290Y0077402D01*
X0026290Y0087402D02*
X0028790Y0089902D01*
X0028790Y0094902D01*
X0026290Y0097402D01*
X0011290Y0097402D01*
X0008790Y0099902D01*
X0008790Y0104902D01*
X0011290Y0107402D01*
X0026290Y0107402D01*
X0028790Y0104902D01*
X0028790Y0099902D01*
X0026290Y0097402D01*
X0026290Y0107402D02*
X0028790Y0109902D01*
X0028790Y0114902D01*
X0026290Y0117402D01*
X0011290Y0117402D01*
X0008790Y0114902D01*
X0008790Y0109902D01*
X0011290Y0107402D01*
X0011290Y0097402D02*
X0008790Y0094902D01*
X0008790Y0089902D01*
X0011290Y0087402D01*
X0011290Y0077402D02*
X0008790Y0074902D01*
X0008790Y0069902D01*
X0011290Y0067402D01*
X0011290Y0057402D02*
X0008790Y0054902D01*
X0008790Y0049902D01*
X0011290Y0047402D01*
X0011290Y0117402D02*
X0008790Y0119902D01*
X0008790Y0124902D01*
X0011290Y0127402D01*
X0026290Y0127402D01*
X0028790Y0124902D01*
X0028790Y0119902D01*
X0026290Y0117402D01*
X0026290Y0127402D02*
X0028790Y0129902D01*
X0028790Y0134902D01*
X0026290Y0137402D01*
X0011290Y0137402D01*
X0008790Y0134902D01*
X0008790Y0129902D01*
X0011290Y0127402D01*
X0011290Y0137402D02*
X0008790Y0139902D01*
X0008790Y0144902D01*
X0011290Y0147402D01*
X0026290Y0147402D01*
X0028790Y0144902D01*
X0028790Y0139902D01*
X0026290Y0137402D01*
X0026290Y0147402D02*
X0028790Y0149902D01*
X0028790Y0154902D01*
X0026290Y0157402D01*
X0011290Y0157402D01*
X0008790Y0154902D01*
X0008790Y0149902D01*
X0011290Y0147402D01*
X0011290Y0157402D02*
X0008790Y0159902D01*
X0008790Y0164902D01*
X0011290Y0167402D01*
X0026290Y0167402D01*
X0028790Y0164902D01*
X0028790Y0159902D01*
X0026290Y0157402D01*
D15*
X0040121Y0152213D02*
X0040121Y0109213D01*
X0040123Y0109153D01*
X0040128Y0109092D01*
X0040137Y0109033D01*
X0040150Y0108974D01*
X0040166Y0108915D01*
X0040186Y0108858D01*
X0040209Y0108803D01*
X0040236Y0108748D01*
X0040265Y0108696D01*
X0040298Y0108645D01*
X0040334Y0108596D01*
X0040372Y0108550D01*
X0040414Y0108506D01*
X0040458Y0108464D01*
X0040504Y0108426D01*
X0040553Y0108390D01*
X0040604Y0108357D01*
X0040656Y0108328D01*
X0040711Y0108301D01*
X0040766Y0108278D01*
X0040823Y0108258D01*
X0040882Y0108242D01*
X0040941Y0108229D01*
X0041000Y0108220D01*
X0041061Y0108215D01*
X0041121Y0108213D01*
X0044727Y0108213D01*
X0054514Y0108213D02*
X0058121Y0108213D01*
X0058181Y0108215D01*
X0058242Y0108220D01*
X0058301Y0108229D01*
X0058360Y0108242D01*
X0058419Y0108258D01*
X0058476Y0108278D01*
X0058531Y0108301D01*
X0058586Y0108328D01*
X0058638Y0108357D01*
X0058689Y0108390D01*
X0058738Y0108426D01*
X0058784Y0108464D01*
X0058828Y0108506D01*
X0058870Y0108550D01*
X0058908Y0108596D01*
X0058944Y0108645D01*
X0058977Y0108696D01*
X0059006Y0108748D01*
X0059033Y0108803D01*
X0059056Y0108858D01*
X0059076Y0108915D01*
X0059092Y0108974D01*
X0059105Y0109033D01*
X0059114Y0109092D01*
X0059119Y0109153D01*
X0059121Y0109213D01*
X0059121Y0152213D01*
X0059119Y0152273D01*
X0059114Y0152334D01*
X0059105Y0152393D01*
X0059092Y0152452D01*
X0059076Y0152511D01*
X0059056Y0152568D01*
X0059033Y0152623D01*
X0059006Y0152678D01*
X0058977Y0152730D01*
X0058944Y0152781D01*
X0058908Y0152830D01*
X0058870Y0152876D01*
X0058828Y0152920D01*
X0058784Y0152962D01*
X0058738Y0153000D01*
X0058689Y0153036D01*
X0058638Y0153069D01*
X0058586Y0153098D01*
X0058531Y0153125D01*
X0058476Y0153148D01*
X0058419Y0153168D01*
X0058360Y0153184D01*
X0058301Y0153197D01*
X0058242Y0153206D01*
X0058181Y0153211D01*
X0058121Y0153213D01*
X0054514Y0153213D01*
X0044727Y0153213D02*
X0041121Y0153213D01*
X0041061Y0153211D01*
X0041000Y0153206D01*
X0040941Y0153197D01*
X0040882Y0153184D01*
X0040823Y0153168D01*
X0040766Y0153148D01*
X0040711Y0153125D01*
X0040656Y0153098D01*
X0040604Y0153069D01*
X0040553Y0153036D01*
X0040504Y0153000D01*
X0040458Y0152962D01*
X0040414Y0152920D01*
X0040372Y0152876D01*
X0040334Y0152830D01*
X0040298Y0152781D01*
X0040265Y0152730D01*
X0040236Y0152678D01*
X0040209Y0152623D01*
X0040186Y0152568D01*
X0040166Y0152511D01*
X0040150Y0152452D01*
X0040137Y0152393D01*
X0040128Y0152334D01*
X0040123Y0152273D01*
X0040121Y0152213D01*
X0049621Y0135963D02*
X0049621Y0133213D01*
X0052121Y0133213D01*
X0052121Y0131713D02*
X0047121Y0131713D01*
X0047121Y0129713D01*
X0052121Y0129713D01*
X0052121Y0131713D01*
X0049621Y0133213D02*
X0047121Y0133213D01*
X0047121Y0128213D02*
X0049621Y0128213D01*
X0049621Y0125463D01*
X0049621Y0128213D02*
X0052121Y0128213D01*
D16*
X0035669Y0022032D02*
X0035369Y0022032D01*
X0035016Y0022032D02*
X0034816Y0022032D01*
X0034790Y0022030D01*
X0034764Y0022025D01*
X0034739Y0022017D01*
X0034716Y0022005D01*
X0034694Y0021991D01*
X0034675Y0021973D01*
X0034657Y0021954D01*
X0034643Y0021932D01*
X0034631Y0021909D01*
X0034623Y0021884D01*
X0034618Y0021858D01*
X0034616Y0021832D01*
X0034616Y0021332D01*
X0034618Y0021306D01*
X0034623Y0021280D01*
X0034631Y0021255D01*
X0034643Y0021232D01*
X0034657Y0021210D01*
X0034675Y0021191D01*
X0034694Y0021173D01*
X0034716Y0021159D01*
X0034739Y0021147D01*
X0034764Y0021139D01*
X0034790Y0021134D01*
X0034816Y0021132D01*
X0035016Y0021132D01*
X0035369Y0021132D02*
X0035619Y0021132D01*
X0035649Y0021134D01*
X0035679Y0021139D01*
X0035708Y0021148D01*
X0035735Y0021161D01*
X0035761Y0021176D01*
X0035785Y0021195D01*
X0035806Y0021216D01*
X0035825Y0021240D01*
X0035840Y0021266D01*
X0035853Y0021293D01*
X0035862Y0021322D01*
X0035867Y0021352D01*
X0035869Y0021382D01*
X0035867Y0021412D01*
X0035862Y0021442D01*
X0035853Y0021471D01*
X0035840Y0021498D01*
X0035825Y0021524D01*
X0035806Y0021548D01*
X0035785Y0021569D01*
X0035761Y0021588D01*
X0035735Y0021603D01*
X0035708Y0021616D01*
X0035679Y0021625D01*
X0035649Y0021630D01*
X0035619Y0021632D01*
X0035669Y0021632D02*
X0035469Y0021632D01*
X0035669Y0021632D02*
X0035696Y0021634D01*
X0035723Y0021639D01*
X0035749Y0021649D01*
X0035773Y0021661D01*
X0035795Y0021677D01*
X0035815Y0021695D01*
X0035832Y0021717D01*
X0035847Y0021740D01*
X0035857Y0021765D01*
X0035865Y0021791D01*
X0035869Y0021818D01*
X0035869Y0021846D01*
X0035865Y0021873D01*
X0035857Y0021899D01*
X0035847Y0021924D01*
X0035832Y0021947D01*
X0035815Y0021969D01*
X0035795Y0021987D01*
X0035773Y0022003D01*
X0035749Y0022015D01*
X0035723Y0022025D01*
X0035696Y0022030D01*
X0035669Y0022032D01*
X0035393Y0010085D02*
X0034893Y0010085D01*
X0034893Y0009685D01*
X0035193Y0009685D01*
X0035219Y0009683D01*
X0035245Y0009678D01*
X0035270Y0009670D01*
X0035293Y0009658D01*
X0035315Y0009644D01*
X0035334Y0009626D01*
X0035352Y0009607D01*
X0035366Y0009585D01*
X0035378Y0009562D01*
X0035386Y0009537D01*
X0035391Y0009511D01*
X0035393Y0009485D01*
X0035393Y0009385D01*
X0035391Y0009359D01*
X0035386Y0009333D01*
X0035378Y0009308D01*
X0035366Y0009285D01*
X0035352Y0009263D01*
X0035334Y0009244D01*
X0035315Y0009226D01*
X0035293Y0009212D01*
X0035270Y0009200D01*
X0035245Y0009192D01*
X0035219Y0009187D01*
X0035193Y0009185D01*
X0034893Y0009185D01*
X0034540Y0009185D02*
X0034340Y0009185D01*
X0034314Y0009187D01*
X0034288Y0009192D01*
X0034263Y0009200D01*
X0034240Y0009212D01*
X0034218Y0009226D01*
X0034199Y0009244D01*
X0034181Y0009263D01*
X0034167Y0009285D01*
X0034155Y0009308D01*
X0034147Y0009333D01*
X0034142Y0009359D01*
X0034140Y0009385D01*
X0034140Y0009885D01*
X0034142Y0009911D01*
X0034147Y0009937D01*
X0034155Y0009962D01*
X0034167Y0009985D01*
X0034181Y0010007D01*
X0034199Y0010026D01*
X0034218Y0010044D01*
X0034240Y0010058D01*
X0034263Y0010070D01*
X0034288Y0010078D01*
X0034314Y0010083D01*
X0034340Y0010085D01*
X0034540Y0010085D01*
M02*
