G75*
%MOIN*%
%OFA0B0*%
%FSLAX25Y25*%
%IPPOS*%
%LPD*%
%AMOC8*
5,1,8,0,0,1.08239X$1,22.5*
%
%ADD10R,0.06800X0.06800*%
%ADD11OC8,0.06800*%
%ADD12R,0.04737X0.05131*%
%ADD13R,0.05131X0.04737*%
%ADD14C,0.02375*%
%ADD15R,0.03556X0.04343*%
%ADD16C,0.03600*%
%ADD17C,0.03778*%
D10*
X0086843Y0162590D03*
X0106237Y0162578D03*
D11*
X0013790Y0012402D03*
X0013790Y0022402D03*
X0013790Y0032402D03*
X0013790Y0042402D03*
X0013790Y0052402D03*
X0013790Y0062402D03*
X0013790Y0072402D03*
X0013790Y0082402D03*
X0013790Y0092402D03*
X0013790Y0102402D03*
X0013790Y0112402D03*
X0013790Y0122402D03*
X0013790Y0132402D03*
X0013790Y0142402D03*
X0013790Y0152402D03*
X0013790Y0162402D03*
X0023790Y0162402D03*
X0023790Y0152402D03*
X0023790Y0142402D03*
X0023790Y0132402D03*
X0023790Y0122402D03*
X0023790Y0112402D03*
X0023790Y0102402D03*
X0023790Y0092402D03*
X0023790Y0082402D03*
X0023790Y0072402D03*
X0023790Y0062402D03*
X0023790Y0052402D03*
X0023790Y0042402D03*
X0023790Y0032402D03*
X0023790Y0022402D03*
X0023790Y0012402D03*
X0086843Y0012590D03*
X0086843Y0022590D03*
X0086843Y0032590D03*
X0086843Y0042590D03*
X0086843Y0052590D03*
X0086843Y0062590D03*
X0086843Y0072590D03*
X0086843Y0082590D03*
X0086843Y0092590D03*
X0086843Y0102590D03*
X0086843Y0112590D03*
X0086843Y0122590D03*
X0086843Y0132590D03*
X0086843Y0142590D03*
X0086843Y0152590D03*
X0106237Y0152578D03*
X0106237Y0142578D03*
X0106237Y0132578D03*
X0106237Y0122578D03*
X0106237Y0112578D03*
X0106237Y0102578D03*
X0106237Y0092578D03*
X0106237Y0082578D03*
X0106237Y0072578D03*
X0106237Y0062578D03*
X0106237Y0052578D03*
X0106237Y0042578D03*
X0106237Y0032578D03*
X0106237Y0022578D03*
X0106237Y0012578D03*
D12*
X0069680Y0104936D03*
X0069680Y0111629D03*
X0069700Y0143703D03*
X0069700Y0150395D03*
D13*
X0069666Y0138001D03*
X0069666Y0131308D03*
X0069893Y0124675D03*
X0069893Y0117982D03*
X0074123Y0054110D03*
X0074123Y0047417D03*
X0074363Y0039156D03*
X0074363Y0032463D03*
D14*
X0061610Y0032172D03*
X0061610Y0028235D03*
X0061610Y0024298D03*
X0061610Y0020361D03*
X0057673Y0020361D03*
X0057673Y0016423D03*
X0053736Y0016423D03*
X0053736Y0020361D03*
X0053736Y0024298D03*
X0053736Y0028235D03*
X0053736Y0032172D03*
X0049799Y0032172D03*
X0049799Y0028235D03*
X0049799Y0024298D03*
X0045862Y0024298D03*
X0045862Y0028235D03*
X0045862Y0032172D03*
X0045862Y0020361D03*
X0045862Y0016423D03*
X0049799Y0016423D03*
X0049799Y0020361D03*
X0057673Y0024298D03*
X0057673Y0028235D03*
X0057673Y0032172D03*
X0057029Y0061602D03*
X0053092Y0061602D03*
X0053092Y0065539D03*
X0053092Y0069476D03*
X0053092Y0073413D03*
X0057029Y0073413D03*
X0057029Y0069476D03*
X0057029Y0065539D03*
X0060966Y0065539D03*
X0060966Y0069476D03*
X0060966Y0073413D03*
X0060966Y0077350D03*
X0057029Y0077350D03*
X0053092Y0077350D03*
X0049155Y0077350D03*
X0049155Y0073413D03*
X0049155Y0069476D03*
X0049155Y0065539D03*
X0049155Y0061602D03*
X0045218Y0061602D03*
X0045218Y0065539D03*
X0045218Y0069476D03*
X0045218Y0073413D03*
X0045218Y0077350D03*
D15*
X0037670Y0018011D03*
X0037946Y0012729D03*
X0032828Y0012729D03*
X0032552Y0018011D03*
D16*
X0039748Y0024801D03*
X0043961Y0034409D03*
X0045497Y0037874D03*
X0050903Y0041245D03*
X0054099Y0035295D03*
X0063541Y0044461D03*
X0067743Y0043575D03*
X0067926Y0055130D03*
X0067512Y0058879D03*
X0070255Y0062824D03*
X0067501Y0065155D03*
X0067190Y0068661D03*
X0067038Y0072885D03*
X0071061Y0080203D03*
X0074484Y0071814D03*
X0077094Y0058929D03*
X0059020Y0082539D03*
X0054985Y0075354D03*
X0051048Y0071417D03*
X0054985Y0063543D03*
X0047111Y0063543D03*
X0046195Y0058221D03*
X0046611Y0051613D03*
X0038308Y0056781D03*
X0038960Y0066381D03*
X0038960Y0070220D03*
X0034475Y0067741D03*
X0034271Y0074334D03*
X0031363Y0079291D03*
X0034169Y0081374D03*
X0049178Y0082047D03*
X0059020Y0091889D03*
X0066402Y0101338D03*
X0066402Y0154094D03*
X0034414Y0037263D03*
X0055575Y0014133D03*
X0059512Y0014133D03*
X0063059Y0014920D03*
X0067411Y0028448D03*
D17*
X0068913Y0024737D03*
X0074082Y0020140D03*
X0068628Y0013229D03*
X0044515Y0011933D03*
X0032443Y0023118D03*
X0032255Y0027342D03*
X0032038Y0060240D03*
X0031185Y0071376D03*
X0036637Y0085786D03*
M02*
