G75*
%MOIN*%
%OFA0B0*%
%FSLAX25Y25*%
%IPPOS*%
%LPD*%
%AMOC8*
5,1,8,0,0,1.08239X$1,22.5*
%
%ADD10C,0.00000*%
%ADD11C,0.00100*%
D10*
X0001000Y0001000D02*
X0001250Y0170197D01*
X0119479Y0170171D01*
X0119545Y0001010D01*
X0001000Y0001000D01*
D11*
X0037328Y0052474D02*
X0037348Y0052518D01*
X0037364Y0052563D01*
X0037378Y0052609D01*
X0037389Y0052656D01*
X0037397Y0052703D01*
X0037401Y0052751D01*
X0037403Y0052799D01*
X0036903Y0052799D02*
X0036905Y0052751D01*
X0036909Y0052703D01*
X0036917Y0052656D01*
X0036928Y0052609D01*
X0036942Y0052563D01*
X0036958Y0052518D01*
X0036978Y0052474D01*
X0036988Y0052451D01*
X0037001Y0052429D01*
X0037017Y0052409D01*
X0037035Y0052391D01*
X0037056Y0052376D01*
X0037079Y0052365D01*
X0037103Y0052356D01*
X0037128Y0052351D01*
X0037153Y0052349D01*
X0037178Y0052351D01*
X0037203Y0052356D01*
X0037227Y0052365D01*
X0037250Y0052376D01*
X0037271Y0052391D01*
X0037289Y0052409D01*
X0037305Y0052429D01*
X0037318Y0052451D01*
X0037328Y0052474D01*
X0037353Y0052549D02*
X0036953Y0053049D01*
X0036978Y0053124D02*
X0036988Y0053147D01*
X0037001Y0053169D01*
X0037017Y0053189D01*
X0037035Y0053207D01*
X0037056Y0053222D01*
X0037079Y0053233D01*
X0037103Y0053242D01*
X0037128Y0053247D01*
X0037153Y0053249D01*
X0037178Y0053247D01*
X0037203Y0053242D01*
X0037227Y0053233D01*
X0037250Y0053222D01*
X0037271Y0053207D01*
X0037289Y0053189D01*
X0037305Y0053169D01*
X0037318Y0053147D01*
X0037328Y0053124D01*
X0036978Y0053124D02*
X0036958Y0053080D01*
X0036942Y0053035D01*
X0036928Y0052989D01*
X0036917Y0052942D01*
X0036909Y0052895D01*
X0036905Y0052847D01*
X0036903Y0052799D01*
X0037403Y0052799D02*
X0037401Y0052847D01*
X0037397Y0052895D01*
X0037389Y0052942D01*
X0037378Y0052989D01*
X0037364Y0053035D01*
X0037348Y0053080D01*
X0037328Y0053124D01*
X0038053Y0053249D02*
X0038053Y0052349D01*
X0038303Y0052349D02*
X0037803Y0052349D01*
X0038656Y0052349D02*
X0038856Y0052349D01*
X0038882Y0052351D01*
X0038908Y0052356D01*
X0038933Y0052364D01*
X0038956Y0052376D01*
X0038978Y0052390D01*
X0038997Y0052408D01*
X0039015Y0052427D01*
X0039029Y0052449D01*
X0039041Y0052472D01*
X0039049Y0052497D01*
X0039054Y0052523D01*
X0039056Y0052549D01*
X0039056Y0053049D01*
X0039054Y0053075D01*
X0039049Y0053101D01*
X0039041Y0053126D01*
X0039029Y0053149D01*
X0039015Y0053171D01*
X0038997Y0053190D01*
X0038978Y0053208D01*
X0038956Y0053222D01*
X0038933Y0053234D01*
X0038908Y0053242D01*
X0038882Y0053247D01*
X0038856Y0053249D01*
X0038656Y0053249D01*
X0038303Y0053049D02*
X0038053Y0053249D01*
X0038064Y0047836D02*
X0038314Y0046936D01*
X0038917Y0046936D02*
X0039117Y0046936D01*
X0039143Y0046938D01*
X0039169Y0046943D01*
X0039194Y0046951D01*
X0039217Y0046963D01*
X0039239Y0046977D01*
X0039258Y0046995D01*
X0039276Y0047014D01*
X0039290Y0047036D01*
X0039302Y0047059D01*
X0039310Y0047084D01*
X0039315Y0047110D01*
X0039317Y0047136D01*
X0039317Y0047636D01*
X0039315Y0047662D01*
X0039310Y0047688D01*
X0039302Y0047713D01*
X0039290Y0047736D01*
X0039276Y0047758D01*
X0039258Y0047777D01*
X0039239Y0047795D01*
X0039217Y0047809D01*
X0039194Y0047821D01*
X0039169Y0047829D01*
X0039143Y0047834D01*
X0039117Y0047836D01*
X0038917Y0047836D01*
X0038564Y0047836D02*
X0038064Y0047836D01*
X0038564Y0047836D02*
X0038564Y0047736D01*
X0043114Y0061639D02*
X0043947Y0061639D01*
X0043982Y0061641D01*
X0044016Y0061646D01*
X0044050Y0061655D01*
X0044082Y0061668D01*
X0044113Y0061684D01*
X0044143Y0061703D01*
X0044170Y0061725D01*
X0044194Y0061749D01*
X0044216Y0061776D01*
X0044235Y0061805D01*
X0044251Y0061837D01*
X0044264Y0061869D01*
X0044273Y0061903D01*
X0044278Y0061937D01*
X0044280Y0061972D01*
X0044281Y0061972D02*
X0044281Y0062306D01*
X0043947Y0062843D02*
X0044281Y0063260D01*
X0042781Y0063260D01*
X0042781Y0063676D02*
X0042781Y0062843D01*
X0042781Y0062306D02*
X0042781Y0061972D01*
X0042783Y0061937D01*
X0042788Y0061903D01*
X0042797Y0061869D01*
X0042810Y0061837D01*
X0042826Y0061806D01*
X0042845Y0061776D01*
X0042867Y0061749D01*
X0042891Y0061725D01*
X0042918Y0061703D01*
X0042948Y0061684D01*
X0042979Y0061668D01*
X0043011Y0061655D01*
X0043045Y0061646D01*
X0043079Y0061641D01*
X0043114Y0061639D01*
X0042781Y0064283D02*
X0042781Y0065116D01*
X0042781Y0064700D02*
X0044281Y0064700D01*
X0043947Y0064283D01*
X0059857Y0074510D02*
X0060690Y0074510D01*
X0059982Y0075343D01*
X0060232Y0076010D02*
X0060272Y0076008D01*
X0060312Y0076003D01*
X0060352Y0075995D01*
X0060391Y0075983D01*
X0060428Y0075968D01*
X0060464Y0075950D01*
X0060499Y0075929D01*
X0060532Y0075906D01*
X0060562Y0075879D01*
X0060590Y0075850D01*
X0060616Y0075819D01*
X0060639Y0075786D01*
X0060659Y0075751D01*
X0060677Y0075714D01*
X0060691Y0075676D01*
X0059981Y0075343D02*
X0059956Y0075369D01*
X0059933Y0075398D01*
X0059913Y0075428D01*
X0059896Y0075460D01*
X0059882Y0075493D01*
X0059871Y0075528D01*
X0059863Y0075563D01*
X0059858Y0075599D01*
X0059856Y0075635D01*
X0059857Y0075635D02*
X0059859Y0075672D01*
X0059864Y0075708D01*
X0059873Y0075744D01*
X0059886Y0075779D01*
X0059901Y0075812D01*
X0059920Y0075843D01*
X0059942Y0075873D01*
X0059967Y0075900D01*
X0059994Y0075925D01*
X0060024Y0075947D01*
X0060055Y0075966D01*
X0060088Y0075981D01*
X0060123Y0075994D01*
X0060159Y0076003D01*
X0060195Y0076008D01*
X0060232Y0076010D01*
X0061297Y0074510D02*
X0062130Y0074510D01*
X0061713Y0074510D02*
X0061713Y0076010D01*
X0062130Y0075677D01*
X0062667Y0076010D02*
X0063000Y0076010D01*
X0063035Y0076008D01*
X0063069Y0076003D01*
X0063103Y0075994D01*
X0063135Y0075981D01*
X0063167Y0075965D01*
X0063196Y0075946D01*
X0063223Y0075924D01*
X0063247Y0075900D01*
X0063269Y0075873D01*
X0063288Y0075843D01*
X0063304Y0075812D01*
X0063317Y0075780D01*
X0063326Y0075746D01*
X0063331Y0075712D01*
X0063333Y0075677D01*
X0063334Y0075677D02*
X0063334Y0074843D01*
X0063333Y0074843D02*
X0063331Y0074808D01*
X0063326Y0074774D01*
X0063317Y0074740D01*
X0063304Y0074708D01*
X0063288Y0074677D01*
X0063269Y0074647D01*
X0063247Y0074620D01*
X0063223Y0074596D01*
X0063196Y0074574D01*
X0063167Y0074555D01*
X0063135Y0074539D01*
X0063103Y0074526D01*
X0063069Y0074517D01*
X0063035Y0074512D01*
X0063000Y0074510D01*
X0062667Y0074510D01*
X0070688Y0087064D02*
X0071188Y0087064D01*
X0070688Y0087064D02*
X0070653Y0087066D01*
X0070619Y0087071D01*
X0070585Y0087080D01*
X0070553Y0087093D01*
X0070522Y0087109D01*
X0070492Y0087128D01*
X0070465Y0087150D01*
X0070441Y0087174D01*
X0070419Y0087201D01*
X0070400Y0087231D01*
X0070384Y0087262D01*
X0070371Y0087294D01*
X0070362Y0087328D01*
X0070357Y0087362D01*
X0070355Y0087397D01*
X0070355Y0087564D01*
X0070357Y0087599D01*
X0070362Y0087633D01*
X0070371Y0087667D01*
X0070384Y0087699D01*
X0070400Y0087731D01*
X0070419Y0087760D01*
X0070441Y0087787D01*
X0070465Y0087811D01*
X0070492Y0087833D01*
X0070522Y0087852D01*
X0070553Y0087868D01*
X0070585Y0087881D01*
X0070619Y0087890D01*
X0070653Y0087895D01*
X0070688Y0087897D01*
X0071188Y0087897D01*
X0071188Y0088564D01*
X0070355Y0088564D01*
X0072211Y0088564D02*
X0072211Y0087064D01*
X0071795Y0087064D02*
X0072628Y0087064D01*
X0073165Y0087064D02*
X0073498Y0087064D01*
X0073533Y0087066D01*
X0073567Y0087071D01*
X0073601Y0087080D01*
X0073633Y0087093D01*
X0073665Y0087109D01*
X0073694Y0087128D01*
X0073721Y0087150D01*
X0073745Y0087174D01*
X0073767Y0087201D01*
X0073786Y0087231D01*
X0073802Y0087262D01*
X0073815Y0087294D01*
X0073824Y0087328D01*
X0073829Y0087362D01*
X0073831Y0087397D01*
X0073832Y0087397D02*
X0073832Y0088230D01*
X0073831Y0088230D02*
X0073829Y0088265D01*
X0073824Y0088299D01*
X0073815Y0088333D01*
X0073802Y0088365D01*
X0073786Y0088396D01*
X0073767Y0088426D01*
X0073745Y0088453D01*
X0073721Y0088477D01*
X0073694Y0088499D01*
X0073665Y0088518D01*
X0073633Y0088534D01*
X0073601Y0088547D01*
X0073567Y0088556D01*
X0073533Y0088561D01*
X0073498Y0088563D01*
X0073498Y0088564D02*
X0073165Y0088564D01*
X0072628Y0088230D02*
X0072211Y0088564D01*
X0038349Y0092738D02*
X0038349Y0093571D01*
X0038348Y0093571D02*
X0038346Y0093606D01*
X0038341Y0093640D01*
X0038332Y0093674D01*
X0038319Y0093706D01*
X0038303Y0093737D01*
X0038284Y0093767D01*
X0038262Y0093794D01*
X0038238Y0093818D01*
X0038211Y0093840D01*
X0038182Y0093859D01*
X0038150Y0093875D01*
X0038118Y0093888D01*
X0038084Y0093897D01*
X0038050Y0093902D01*
X0038015Y0093904D01*
X0038015Y0093905D02*
X0037682Y0093905D01*
X0037145Y0093571D02*
X0036728Y0093905D01*
X0036728Y0092405D01*
X0036312Y0092405D02*
X0037145Y0092405D01*
X0037682Y0092405D02*
X0038015Y0092405D01*
X0038050Y0092407D01*
X0038084Y0092412D01*
X0038118Y0092421D01*
X0038150Y0092434D01*
X0038182Y0092450D01*
X0038211Y0092469D01*
X0038238Y0092491D01*
X0038262Y0092515D01*
X0038284Y0092542D01*
X0038303Y0092572D01*
X0038319Y0092603D01*
X0038332Y0092635D01*
X0038341Y0092669D01*
X0038346Y0092703D01*
X0038348Y0092738D01*
X0035705Y0092821D02*
X0035705Y0093238D01*
X0035205Y0093238D01*
X0035705Y0093238D02*
X0035703Y0093288D01*
X0035698Y0093337D01*
X0035688Y0093386D01*
X0035675Y0093435D01*
X0035659Y0093482D01*
X0035639Y0093527D01*
X0035616Y0093572D01*
X0035589Y0093614D01*
X0035559Y0093654D01*
X0035527Y0093692D01*
X0035492Y0093727D01*
X0035454Y0093759D01*
X0035414Y0093789D01*
X0035372Y0093816D01*
X0035327Y0093839D01*
X0035282Y0093859D01*
X0035235Y0093875D01*
X0035186Y0093888D01*
X0035137Y0093898D01*
X0035088Y0093903D01*
X0035038Y0093905D01*
X0034872Y0092905D02*
X0034872Y0092821D01*
X0034872Y0092905D02*
X0034874Y0092940D01*
X0034879Y0092974D01*
X0034888Y0093008D01*
X0034901Y0093040D01*
X0034917Y0093072D01*
X0034936Y0093101D01*
X0034958Y0093128D01*
X0034982Y0093152D01*
X0035009Y0093174D01*
X0035039Y0093193D01*
X0035070Y0093209D01*
X0035102Y0093222D01*
X0035136Y0093231D01*
X0035170Y0093236D01*
X0035205Y0093238D01*
X0034871Y0092821D02*
X0034873Y0092781D01*
X0034879Y0092742D01*
X0034888Y0092704D01*
X0034901Y0092666D01*
X0034917Y0092630D01*
X0034937Y0092596D01*
X0034960Y0092563D01*
X0034986Y0092533D01*
X0035015Y0092506D01*
X0035046Y0092481D01*
X0035080Y0092460D01*
X0035115Y0092442D01*
X0035152Y0092427D01*
X0035190Y0092416D01*
X0035229Y0092408D01*
X0035268Y0092404D01*
X0035308Y0092404D01*
X0035347Y0092408D01*
X0035386Y0092416D01*
X0035424Y0092427D01*
X0035461Y0092442D01*
X0035497Y0092460D01*
X0035530Y0092481D01*
X0035561Y0092506D01*
X0035590Y0092533D01*
X0035616Y0092563D01*
X0035639Y0092596D01*
X0035659Y0092630D01*
X0035675Y0092666D01*
X0035688Y0092704D01*
X0035697Y0092742D01*
X0035703Y0092781D01*
X0035705Y0092821D01*
X0064327Y0034045D02*
X0064577Y0034045D01*
X0064327Y0034045D02*
X0064327Y0033745D01*
X0064327Y0034045D02*
X0064288Y0034043D01*
X0064249Y0034037D01*
X0064211Y0034028D01*
X0064174Y0034015D01*
X0064138Y0033998D01*
X0064105Y0033978D01*
X0064073Y0033954D01*
X0064044Y0033928D01*
X0064018Y0033899D01*
X0063994Y0033867D01*
X0063974Y0033834D01*
X0063957Y0033798D01*
X0063944Y0033761D01*
X0063935Y0033723D01*
X0063929Y0033684D01*
X0063927Y0033645D01*
X0063927Y0033192D02*
X0063927Y0032992D01*
X0063929Y0032966D01*
X0063934Y0032940D01*
X0063942Y0032915D01*
X0063954Y0032892D01*
X0063968Y0032870D01*
X0063986Y0032851D01*
X0064005Y0032833D01*
X0064027Y0032819D01*
X0064050Y0032807D01*
X0064075Y0032799D01*
X0064101Y0032794D01*
X0064127Y0032792D01*
X0064627Y0032792D01*
X0064653Y0032794D01*
X0064679Y0032799D01*
X0064704Y0032807D01*
X0064727Y0032819D01*
X0064749Y0032833D01*
X0064768Y0032851D01*
X0064786Y0032870D01*
X0064800Y0032892D01*
X0064812Y0032915D01*
X0064820Y0032940D01*
X0064825Y0032966D01*
X0064827Y0032992D01*
X0064827Y0033192D01*
X0064577Y0033545D02*
X0064527Y0033545D01*
X0064501Y0033547D01*
X0064475Y0033552D01*
X0064450Y0033560D01*
X0064427Y0033572D01*
X0064405Y0033586D01*
X0064386Y0033604D01*
X0064368Y0033623D01*
X0064354Y0033645D01*
X0064342Y0033668D01*
X0064334Y0033693D01*
X0064329Y0033719D01*
X0064327Y0033745D01*
X0064577Y0033545D02*
X0064607Y0033547D01*
X0064637Y0033552D01*
X0064666Y0033561D01*
X0064693Y0033574D01*
X0064719Y0033589D01*
X0064743Y0033608D01*
X0064764Y0033629D01*
X0064783Y0033653D01*
X0064798Y0033679D01*
X0064811Y0033706D01*
X0064820Y0033735D01*
X0064825Y0033765D01*
X0064827Y0033795D01*
X0064825Y0033825D01*
X0064820Y0033855D01*
X0064811Y0033884D01*
X0064798Y0033911D01*
X0064783Y0033937D01*
X0064764Y0033961D01*
X0064743Y0033982D01*
X0064719Y0034001D01*
X0064693Y0034016D01*
X0064666Y0034029D01*
X0064637Y0034038D01*
X0064607Y0034043D01*
X0064577Y0034045D01*
X0058563Y0025534D02*
X0058536Y0025532D01*
X0058509Y0025527D01*
X0058483Y0025517D01*
X0058459Y0025505D01*
X0058437Y0025489D01*
X0058417Y0025471D01*
X0058400Y0025449D01*
X0058385Y0025426D01*
X0058375Y0025401D01*
X0058367Y0025375D01*
X0058363Y0025348D01*
X0058363Y0025320D01*
X0058367Y0025293D01*
X0058375Y0025267D01*
X0058385Y0025242D01*
X0058400Y0025219D01*
X0058417Y0025197D01*
X0058437Y0025179D01*
X0058459Y0025163D01*
X0058483Y0025151D01*
X0058509Y0025141D01*
X0058536Y0025136D01*
X0058563Y0025134D01*
X0058590Y0025136D01*
X0058617Y0025141D01*
X0058643Y0025151D01*
X0058667Y0025163D01*
X0058689Y0025179D01*
X0058709Y0025197D01*
X0058726Y0025219D01*
X0058741Y0025242D01*
X0058751Y0025267D01*
X0058759Y0025293D01*
X0058763Y0025320D01*
X0058763Y0025348D01*
X0058759Y0025375D01*
X0058751Y0025401D01*
X0058741Y0025426D01*
X0058726Y0025449D01*
X0058709Y0025471D01*
X0058689Y0025489D01*
X0058667Y0025505D01*
X0058643Y0025517D01*
X0058617Y0025527D01*
X0058590Y0025532D01*
X0058563Y0025534D01*
X0058113Y0025584D02*
X0058083Y0025582D01*
X0058053Y0025577D01*
X0058024Y0025568D01*
X0057997Y0025555D01*
X0057971Y0025540D01*
X0057947Y0025521D01*
X0057926Y0025500D01*
X0057907Y0025476D01*
X0057892Y0025450D01*
X0057879Y0025423D01*
X0057870Y0025394D01*
X0057865Y0025364D01*
X0057863Y0025334D01*
X0057865Y0025304D01*
X0057870Y0025274D01*
X0057879Y0025245D01*
X0057892Y0025218D01*
X0057907Y0025192D01*
X0057926Y0025168D01*
X0057947Y0025147D01*
X0057971Y0025128D01*
X0057997Y0025113D01*
X0058024Y0025100D01*
X0058053Y0025091D01*
X0058083Y0025086D01*
X0058113Y0025084D01*
X0058143Y0025086D01*
X0058173Y0025091D01*
X0058202Y0025100D01*
X0058229Y0025113D01*
X0058255Y0025128D01*
X0058279Y0025147D01*
X0058300Y0025168D01*
X0058319Y0025192D01*
X0058334Y0025218D01*
X0058347Y0025245D01*
X0058356Y0025274D01*
X0058361Y0025304D01*
X0058363Y0025334D01*
X0058361Y0025364D01*
X0058356Y0025394D01*
X0058347Y0025423D01*
X0058334Y0025450D01*
X0058319Y0025476D01*
X0058300Y0025500D01*
X0058279Y0025521D01*
X0058255Y0025540D01*
X0058229Y0025555D01*
X0058202Y0025568D01*
X0058173Y0025577D01*
X0058143Y0025582D01*
X0058113Y0025584D01*
X0057863Y0024731D02*
X0057863Y0024531D01*
X0057865Y0024505D01*
X0057870Y0024479D01*
X0057878Y0024454D01*
X0057890Y0024431D01*
X0057904Y0024409D01*
X0057922Y0024390D01*
X0057941Y0024372D01*
X0057963Y0024358D01*
X0057986Y0024346D01*
X0058011Y0024338D01*
X0058037Y0024333D01*
X0058063Y0024331D01*
X0058563Y0024331D01*
X0058589Y0024333D01*
X0058615Y0024338D01*
X0058640Y0024346D01*
X0058663Y0024358D01*
X0058685Y0024372D01*
X0058704Y0024390D01*
X0058722Y0024409D01*
X0058736Y0024431D01*
X0058748Y0024454D01*
X0058756Y0024479D01*
X0058761Y0024505D01*
X0058763Y0024531D01*
X0058763Y0024731D01*
X0076464Y0011103D02*
X0076664Y0010403D01*
X0076164Y0010403D01*
X0076314Y0010603D02*
X0076314Y0010203D01*
X0077017Y0010203D02*
X0077217Y0010203D01*
X0077243Y0010205D01*
X0077269Y0010210D01*
X0077294Y0010218D01*
X0077317Y0010230D01*
X0077339Y0010244D01*
X0077358Y0010262D01*
X0077376Y0010281D01*
X0077390Y0010303D01*
X0077402Y0010326D01*
X0077410Y0010351D01*
X0077415Y0010377D01*
X0077417Y0010403D01*
X0077417Y0010903D01*
X0077415Y0010929D01*
X0077410Y0010955D01*
X0077402Y0010980D01*
X0077390Y0011003D01*
X0077376Y0011025D01*
X0077358Y0011044D01*
X0077339Y0011062D01*
X0077317Y0011076D01*
X0077294Y0011088D01*
X0077269Y0011096D01*
X0077243Y0011101D01*
X0077217Y0011103D01*
X0077017Y0011103D01*
X0080816Y0015056D02*
X0080816Y0015256D01*
X0080816Y0015056D02*
X0080818Y0015030D01*
X0080823Y0015004D01*
X0080831Y0014979D01*
X0080843Y0014956D01*
X0080857Y0014934D01*
X0080875Y0014915D01*
X0080894Y0014897D01*
X0080916Y0014883D01*
X0080939Y0014871D01*
X0080964Y0014863D01*
X0080990Y0014858D01*
X0081016Y0014856D01*
X0081516Y0014856D01*
X0081542Y0014858D01*
X0081568Y0014863D01*
X0081593Y0014871D01*
X0081616Y0014883D01*
X0081638Y0014897D01*
X0081657Y0014915D01*
X0081675Y0014934D01*
X0081689Y0014956D01*
X0081701Y0014979D01*
X0081709Y0015004D01*
X0081714Y0015030D01*
X0081716Y0015056D01*
X0081716Y0015256D01*
X0081316Y0015609D02*
X0081066Y0015609D01*
X0081036Y0015611D01*
X0081006Y0015616D01*
X0080977Y0015625D01*
X0080950Y0015638D01*
X0080924Y0015653D01*
X0080900Y0015672D01*
X0080879Y0015693D01*
X0080860Y0015717D01*
X0080845Y0015743D01*
X0080832Y0015770D01*
X0080823Y0015799D01*
X0080818Y0015829D01*
X0080816Y0015859D01*
X0080818Y0015889D01*
X0080823Y0015919D01*
X0080832Y0015948D01*
X0080845Y0015975D01*
X0080860Y0016001D01*
X0080879Y0016025D01*
X0080900Y0016046D01*
X0080924Y0016065D01*
X0080950Y0016080D01*
X0080977Y0016093D01*
X0081006Y0016102D01*
X0081036Y0016107D01*
X0081066Y0016109D01*
X0081116Y0016109D01*
X0081142Y0016107D01*
X0081168Y0016102D01*
X0081193Y0016094D01*
X0081216Y0016082D01*
X0081238Y0016068D01*
X0081257Y0016050D01*
X0081275Y0016031D01*
X0081289Y0016009D01*
X0081301Y0015986D01*
X0081309Y0015961D01*
X0081314Y0015935D01*
X0081316Y0015909D01*
X0081316Y0015609D01*
X0081355Y0015611D01*
X0081394Y0015617D01*
X0081432Y0015626D01*
X0081469Y0015639D01*
X0081505Y0015656D01*
X0081538Y0015676D01*
X0081570Y0015700D01*
X0081599Y0015726D01*
X0081625Y0015755D01*
X0081649Y0015787D01*
X0081669Y0015820D01*
X0081686Y0015856D01*
X0081699Y0015893D01*
X0081708Y0015931D01*
X0081714Y0015970D01*
X0081716Y0016009D01*
M02*
