G75*
%MOIN*%
%OFA0B0*%
%FSLAX25Y25*%
%IPPOS*%
%LPD*%
%AMOC8*
5,1,8,0,0,1.08239X$1,22.5*
%
%ADD10C,0.06000*%
%ADD11C,0.05346*%
%ADD12C,0.02800*%
%ADD13C,0.02978*%
%ADD14C,0.00500*%
%ADD15C,0.00600*%
D10*
X0013790Y0012402D03*
X0013790Y0022402D03*
X0013790Y0032402D03*
X0013790Y0042402D03*
X0013790Y0052402D03*
X0013790Y0062402D03*
X0013790Y0072402D03*
X0013790Y0082402D03*
X0013790Y0092402D03*
X0013790Y0102402D03*
X0013790Y0112402D03*
X0013790Y0122402D03*
X0013790Y0132402D03*
X0013790Y0142402D03*
X0013790Y0152402D03*
X0013790Y0162402D03*
X0023790Y0162402D03*
X0023790Y0152402D03*
X0023790Y0142402D03*
X0023790Y0132402D03*
X0023790Y0122402D03*
X0023790Y0112402D03*
X0023790Y0102402D03*
X0023790Y0092402D03*
X0023790Y0082402D03*
X0023790Y0072402D03*
X0023790Y0062402D03*
X0023790Y0052402D03*
X0023790Y0042402D03*
X0023790Y0032402D03*
X0023790Y0022402D03*
X0023790Y0012402D03*
X0086843Y0012590D03*
X0086843Y0022590D03*
X0086843Y0032590D03*
X0086843Y0042590D03*
X0086843Y0052590D03*
X0086843Y0062590D03*
X0086843Y0072590D03*
X0086843Y0082590D03*
X0086843Y0092590D03*
X0086843Y0102590D03*
X0086843Y0112590D03*
X0086843Y0122590D03*
X0086843Y0132590D03*
X0086843Y0142590D03*
X0086843Y0152590D03*
X0086843Y0162590D03*
X0106237Y0162578D03*
X0106237Y0152578D03*
X0106237Y0142578D03*
X0106237Y0132578D03*
X0106237Y0122578D03*
X0106237Y0112578D03*
X0106237Y0102578D03*
X0106237Y0092578D03*
X0106237Y0082578D03*
X0106237Y0072578D03*
X0106237Y0062578D03*
X0106237Y0052578D03*
X0106237Y0042578D03*
X0106237Y0032578D03*
X0106237Y0022578D03*
X0106237Y0012578D03*
D11*
X0049625Y0121291D03*
X0049535Y0140265D03*
D12*
X0066402Y0154094D03*
X0066402Y0101338D03*
X0059020Y0091889D03*
X0059020Y0082539D03*
X0054985Y0075354D03*
X0051048Y0071417D03*
X0054985Y0063543D03*
X0047111Y0063543D03*
X0046195Y0058221D03*
X0046611Y0051613D03*
X0050903Y0041245D03*
X0054099Y0035295D03*
X0045497Y0037874D03*
X0043961Y0034409D03*
X0039748Y0024801D03*
X0034414Y0037263D03*
X0038308Y0056781D03*
X0038960Y0066381D03*
X0038960Y0070220D03*
X0034475Y0067741D03*
X0034271Y0074334D03*
X0031363Y0079291D03*
X0034169Y0081374D03*
X0049178Y0082047D03*
X0067038Y0072885D03*
X0067190Y0068661D03*
X0067501Y0065155D03*
X0070255Y0062824D03*
X0067512Y0058879D03*
X0067926Y0055130D03*
X0077094Y0058929D03*
X0074484Y0071814D03*
X0071061Y0080203D03*
X0063541Y0044461D03*
X0067743Y0043575D03*
X0067411Y0028448D03*
X0063059Y0014920D03*
X0059512Y0014133D03*
X0055575Y0014133D03*
D13*
X0044515Y0011933D03*
X0032443Y0023118D03*
X0032255Y0027342D03*
X0032038Y0060240D03*
X0031185Y0071376D03*
X0036637Y0085786D03*
X0068913Y0024737D03*
X0074082Y0020140D03*
X0068628Y0013229D03*
D14*
X0067411Y0028448D02*
X0070339Y0028504D01*
X0070339Y0028897D01*
X0058134Y0041102D01*
X0050903Y0041245D01*
X0051048Y0041391D01*
X0051048Y0071417D01*
X0036678Y0085786D01*
X0036637Y0085786D01*
X0051048Y0071417D02*
X0051048Y0067480D01*
X0051048Y0071417D02*
X0054985Y0075354D01*
X0050903Y0041245D02*
X0045684Y0041102D01*
X0043347Y0038765D01*
X0043347Y0038434D01*
X0032255Y0027342D01*
X0070339Y0028897D02*
X0086481Y0012756D01*
X0086843Y0012590D01*
X0086875Y0012756D01*
X0106166Y0012756D01*
X0106237Y0012578D01*
D15*
X0005306Y0005300D02*
X0005544Y0165896D01*
X0012291Y0165894D01*
X0011638Y0165624D01*
X0010569Y0164555D01*
X0009990Y0163158D01*
X0009990Y0161646D01*
X0010569Y0160250D01*
X0011638Y0159181D01*
X0013034Y0158602D01*
X0014546Y0158602D01*
X0015943Y0159181D01*
X0017012Y0160250D01*
X0017590Y0161646D01*
X0017590Y0163158D01*
X0017012Y0164555D01*
X0015943Y0165624D01*
X0015291Y0165894D01*
X0022286Y0165892D01*
X0021638Y0165624D01*
X0020569Y0164555D01*
X0019990Y0163158D01*
X0019990Y0161646D01*
X0020569Y0160250D01*
X0021638Y0159181D01*
X0023034Y0158602D01*
X0024546Y0158602D01*
X0025943Y0159181D01*
X0027012Y0160250D01*
X0027590Y0161646D01*
X0027590Y0163158D01*
X0027012Y0164555D01*
X0025943Y0165624D01*
X0025296Y0165892D01*
X0084852Y0165878D01*
X0084690Y0165812D01*
X0083621Y0164743D01*
X0083043Y0163346D01*
X0083043Y0161834D01*
X0083621Y0160438D01*
X0084690Y0159369D01*
X0086087Y0158790D01*
X0087599Y0158790D01*
X0088995Y0159369D01*
X0090064Y0160438D01*
X0090643Y0161834D01*
X0090643Y0163346D01*
X0090064Y0164743D01*
X0088995Y0165812D01*
X0088836Y0165878D01*
X0104264Y0165874D01*
X0104085Y0165800D01*
X0103016Y0164731D01*
X0102437Y0163334D01*
X0102437Y0161822D01*
X0103016Y0160426D01*
X0104085Y0159357D01*
X0105481Y0158778D01*
X0106993Y0158778D01*
X0108390Y0159357D01*
X0109459Y0160426D01*
X0110037Y0161822D01*
X0110037Y0163334D01*
X0109459Y0164731D01*
X0108390Y0165800D01*
X0108212Y0165873D01*
X0115181Y0165872D01*
X0115243Y0005309D01*
X0005306Y0005300D01*
X0005307Y0005528D02*
X0115243Y0005528D01*
X0115243Y0006126D02*
X0005308Y0006126D01*
X0005308Y0006725D02*
X0115243Y0006725D01*
X0115242Y0007323D02*
X0005309Y0007323D01*
X0005310Y0007922D02*
X0115242Y0007922D01*
X0115242Y0008520D02*
X0107663Y0008520D01*
X0107888Y0008593D02*
X0108491Y0008901D01*
X0109038Y0009298D01*
X0109517Y0009777D01*
X0109915Y0010325D01*
X0110222Y0010928D01*
X0110431Y0011571D01*
X0110537Y0012240D01*
X0110537Y0012278D01*
X0106537Y0012278D01*
X0106537Y0008278D01*
X0106576Y0008278D01*
X0107244Y0008384D01*
X0107888Y0008593D01*
X0108791Y0009119D02*
X0115242Y0009119D01*
X0115241Y0009717D02*
X0109457Y0009717D01*
X0109908Y0010316D02*
X0115241Y0010316D01*
X0115241Y0010914D02*
X0110215Y0010914D01*
X0110412Y0011513D02*
X0115241Y0011513D01*
X0115241Y0012111D02*
X0110517Y0012111D01*
X0110537Y0012878D02*
X0110537Y0012917D01*
X0110431Y0013585D01*
X0110222Y0014229D01*
X0109915Y0014832D01*
X0109517Y0015380D01*
X0109038Y0015858D01*
X0108491Y0016256D01*
X0107888Y0016563D01*
X0107244Y0016772D01*
X0106576Y0016878D01*
X0106537Y0016878D01*
X0106537Y0012878D01*
X0110537Y0012878D01*
X0110475Y0013308D02*
X0115240Y0013308D01*
X0115240Y0012710D02*
X0106537Y0012710D01*
X0106537Y0012878D02*
X0106537Y0012278D01*
X0105937Y0012278D01*
X0105937Y0008278D01*
X0105899Y0008278D01*
X0105230Y0008384D01*
X0104586Y0008593D01*
X0103983Y0008901D01*
X0103436Y0009298D01*
X0102957Y0009777D01*
X0102559Y0010325D01*
X0102252Y0010928D01*
X0102043Y0011571D01*
X0101937Y0012240D01*
X0101937Y0012278D01*
X0105937Y0012278D01*
X0105937Y0012878D01*
X0101937Y0012878D01*
X0101937Y0012917D01*
X0102043Y0013585D01*
X0102252Y0014229D01*
X0102559Y0014832D01*
X0102957Y0015380D01*
X0103436Y0015858D01*
X0103983Y0016256D01*
X0104586Y0016563D01*
X0105230Y0016772D01*
X0105899Y0016878D01*
X0105937Y0016878D01*
X0105937Y0012878D01*
X0106537Y0012878D01*
X0106537Y0013308D02*
X0105937Y0013308D01*
X0105937Y0012710D02*
X0087143Y0012710D01*
X0087143Y0012890D02*
X0091143Y0012890D01*
X0091143Y0012928D01*
X0091037Y0013597D01*
X0090828Y0014241D01*
X0090521Y0014844D01*
X0090123Y0015391D01*
X0089644Y0015870D01*
X0089097Y0016268D01*
X0088494Y0016575D01*
X0087850Y0016784D01*
X0087181Y0016890D01*
X0087143Y0016890D01*
X0087143Y0012890D01*
X0087143Y0012290D01*
X0087143Y0008290D01*
X0087181Y0008290D01*
X0087850Y0008396D01*
X0088494Y0008605D01*
X0089097Y0008912D01*
X0089644Y0009310D01*
X0090123Y0009789D01*
X0090521Y0010336D01*
X0090828Y0010939D01*
X0091037Y0011583D01*
X0091143Y0012252D01*
X0091143Y0012290D01*
X0087143Y0012290D01*
X0086543Y0012290D01*
X0086543Y0008290D01*
X0086505Y0008290D01*
X0085836Y0008396D01*
X0085192Y0008605D01*
X0084589Y0008912D01*
X0084042Y0009310D01*
X0083563Y0009789D01*
X0083165Y0010336D01*
X0082858Y0010939D01*
X0082649Y0011583D01*
X0082543Y0012252D01*
X0082543Y0012290D01*
X0086543Y0012290D01*
X0086543Y0012890D01*
X0082543Y0012890D01*
X0082543Y0012928D01*
X0082649Y0013597D01*
X0082858Y0014241D01*
X0083165Y0014844D01*
X0083563Y0015391D01*
X0084042Y0015870D01*
X0084589Y0016268D01*
X0085192Y0016575D01*
X0085836Y0016784D01*
X0086505Y0016890D01*
X0086543Y0016890D01*
X0086543Y0012890D01*
X0087143Y0012890D01*
X0087143Y0013308D02*
X0086543Y0013308D01*
X0086543Y0012710D02*
X0070917Y0012710D01*
X0070917Y0012281D02*
X0069576Y0010940D01*
X0067680Y0010940D01*
X0066339Y0012281D01*
X0066339Y0014177D01*
X0067680Y0015518D01*
X0069576Y0015518D01*
X0070917Y0014177D01*
X0070917Y0012281D01*
X0070748Y0012111D02*
X0082565Y0012111D01*
X0082672Y0011513D02*
X0070149Y0011513D01*
X0070917Y0013308D02*
X0082603Y0013308D01*
X0082750Y0013907D02*
X0070917Y0013907D01*
X0070589Y0014505D02*
X0082993Y0014505D01*
X0083354Y0015104D02*
X0069990Y0015104D01*
X0072888Y0018097D02*
X0005325Y0018097D01*
X0005326Y0018695D02*
X0012811Y0018695D01*
X0013034Y0018602D02*
X0014546Y0018602D01*
X0015943Y0019181D01*
X0017012Y0020250D01*
X0017590Y0021646D01*
X0017590Y0023158D01*
X0017012Y0024555D01*
X0015943Y0025624D01*
X0014546Y0026202D01*
X0013034Y0026202D01*
X0011638Y0025624D01*
X0010569Y0024555D01*
X0009990Y0023158D01*
X0009990Y0021646D01*
X0010569Y0020250D01*
X0011638Y0019181D01*
X0013034Y0018602D01*
X0011525Y0019294D02*
X0005327Y0019294D01*
X0005328Y0019892D02*
X0010927Y0019892D01*
X0010469Y0020491D02*
X0005329Y0020491D01*
X0005330Y0021089D02*
X0010221Y0021089D01*
X0009990Y0021688D02*
X0005331Y0021688D01*
X0005331Y0022286D02*
X0009990Y0022286D01*
X0009990Y0022885D02*
X0005332Y0022885D01*
X0005333Y0023483D02*
X0010125Y0023483D01*
X0010373Y0024082D02*
X0005334Y0024082D01*
X0005335Y0024680D02*
X0010694Y0024680D01*
X0011293Y0025279D02*
X0005336Y0025279D01*
X0005337Y0025877D02*
X0012249Y0025877D01*
X0013034Y0028602D02*
X0014546Y0028602D01*
X0015943Y0029181D01*
X0017012Y0030250D01*
X0017590Y0031646D01*
X0017590Y0033158D01*
X0017012Y0034555D01*
X0015943Y0035624D01*
X0014546Y0036202D01*
X0013034Y0036202D01*
X0011638Y0035624D01*
X0010569Y0034555D01*
X0009990Y0033158D01*
X0009990Y0031646D01*
X0010569Y0030250D01*
X0011638Y0029181D01*
X0013034Y0028602D01*
X0012389Y0028870D02*
X0005341Y0028870D01*
X0005342Y0029468D02*
X0011350Y0029468D01*
X0010752Y0030067D02*
X0005343Y0030067D01*
X0005344Y0030665D02*
X0010397Y0030665D01*
X0010149Y0031264D02*
X0005345Y0031264D01*
X0005346Y0031862D02*
X0009990Y0031862D01*
X0009990Y0032461D02*
X0005346Y0032461D01*
X0005347Y0033059D02*
X0009990Y0033059D01*
X0010197Y0033658D02*
X0005348Y0033658D01*
X0005349Y0034256D02*
X0010445Y0034256D01*
X0010869Y0034855D02*
X0005350Y0034855D01*
X0005351Y0035453D02*
X0011467Y0035453D01*
X0012671Y0036052D02*
X0005352Y0036052D01*
X0005353Y0036650D02*
X0032214Y0036650D01*
X0032214Y0036352D02*
X0033503Y0035063D01*
X0035325Y0035063D01*
X0036614Y0036352D01*
X0036614Y0038175D01*
X0035325Y0039463D01*
X0033503Y0039463D01*
X0032214Y0038175D01*
X0032214Y0036352D01*
X0032514Y0036052D02*
X0024909Y0036052D01*
X0024546Y0036202D02*
X0023034Y0036202D01*
X0021638Y0035624D01*
X0020569Y0034555D01*
X0019990Y0033158D01*
X0019990Y0031646D01*
X0020569Y0030250D01*
X0021638Y0029181D01*
X0023034Y0028602D01*
X0024546Y0028602D01*
X0025943Y0029181D01*
X0027012Y0030250D01*
X0027590Y0031646D01*
X0027590Y0033158D01*
X0027012Y0034555D01*
X0025943Y0035624D01*
X0024546Y0036202D01*
X0026113Y0035453D02*
X0033113Y0035453D01*
X0032214Y0037249D02*
X0005354Y0037249D01*
X0005354Y0037847D02*
X0032214Y0037847D01*
X0032485Y0038446D02*
X0005355Y0038446D01*
X0005356Y0039044D02*
X0011967Y0039044D01*
X0011638Y0039181D02*
X0013034Y0038602D01*
X0014546Y0038602D01*
X0015943Y0039181D01*
X0017012Y0040250D01*
X0017590Y0041646D01*
X0017590Y0043158D01*
X0017012Y0044555D01*
X0015943Y0045624D01*
X0014546Y0046202D01*
X0013034Y0046202D01*
X0011638Y0045624D01*
X0010569Y0044555D01*
X0009990Y0043158D01*
X0009990Y0041646D01*
X0010569Y0040250D01*
X0011638Y0039181D01*
X0011176Y0039643D02*
X0005357Y0039643D01*
X0005358Y0040241D02*
X0010577Y0040241D01*
X0010324Y0040840D02*
X0005359Y0040840D01*
X0005360Y0041438D02*
X0010076Y0041438D01*
X0009990Y0042037D02*
X0005361Y0042037D01*
X0005361Y0042635D02*
X0009990Y0042635D01*
X0010022Y0043234D02*
X0005362Y0043234D01*
X0005363Y0043832D02*
X0010270Y0043832D01*
X0010517Y0044431D02*
X0005364Y0044431D01*
X0005365Y0045030D02*
X0011043Y0045030D01*
X0011648Y0045628D02*
X0005366Y0045628D01*
X0005367Y0046227D02*
X0062195Y0046227D01*
X0062629Y0046661D02*
X0061341Y0045372D01*
X0061341Y0043549D01*
X0062629Y0042261D01*
X0064452Y0042261D01*
X0065543Y0043351D01*
X0065543Y0042663D01*
X0066831Y0041375D01*
X0068654Y0041375D01*
X0069943Y0042663D01*
X0069943Y0044486D01*
X0068654Y0045775D01*
X0066831Y0045775D01*
X0065741Y0044684D01*
X0065741Y0045372D01*
X0064452Y0046661D01*
X0062629Y0046661D01*
X0061597Y0045628D02*
X0025933Y0045628D01*
X0025943Y0045624D02*
X0024546Y0046202D01*
X0023034Y0046202D01*
X0021638Y0045624D01*
X0020569Y0044555D01*
X0019990Y0043158D01*
X0019990Y0041646D01*
X0020569Y0040250D01*
X0021638Y0039181D01*
X0023034Y0038602D01*
X0024546Y0038602D01*
X0025943Y0039181D01*
X0027012Y0040250D01*
X0027590Y0041646D01*
X0027590Y0043158D01*
X0027012Y0044555D01*
X0025943Y0045624D01*
X0026537Y0045030D02*
X0061341Y0045030D01*
X0061341Y0044431D02*
X0027063Y0044431D01*
X0027311Y0043832D02*
X0061341Y0043832D01*
X0061656Y0043234D02*
X0027559Y0043234D01*
X0027590Y0042635D02*
X0062255Y0042635D01*
X0064827Y0042635D02*
X0065571Y0042635D01*
X0065543Y0043234D02*
X0065425Y0043234D01*
X0066169Y0042037D02*
X0027590Y0042037D01*
X0027504Y0041438D02*
X0066768Y0041438D01*
X0068718Y0041438D02*
X0083207Y0041438D01*
X0083043Y0041834D02*
X0083043Y0043346D01*
X0083621Y0044743D01*
X0084690Y0045812D01*
X0086087Y0046390D01*
X0087599Y0046390D01*
X0088995Y0045812D01*
X0090064Y0044743D01*
X0090643Y0043346D01*
X0090643Y0041834D01*
X0090064Y0040438D01*
X0088995Y0039369D01*
X0087599Y0038790D01*
X0086087Y0038790D01*
X0084690Y0039369D01*
X0083621Y0040438D01*
X0083043Y0041834D01*
X0083043Y0042037D02*
X0069316Y0042037D01*
X0069915Y0042635D02*
X0083043Y0042635D01*
X0083043Y0043234D02*
X0069943Y0043234D01*
X0069943Y0043832D02*
X0083245Y0043832D01*
X0083492Y0044431D02*
X0069943Y0044431D01*
X0069399Y0045030D02*
X0083908Y0045030D01*
X0084507Y0045628D02*
X0068801Y0045628D01*
X0066685Y0045628D02*
X0065485Y0045628D01*
X0065741Y0045030D02*
X0066086Y0045030D01*
X0064886Y0046227D02*
X0085692Y0046227D01*
X0087994Y0046227D02*
X0105115Y0046227D01*
X0105481Y0046378D02*
X0104085Y0045800D01*
X0103016Y0044731D01*
X0102437Y0043334D01*
X0102437Y0041822D01*
X0103016Y0040426D01*
X0104085Y0039357D01*
X0105481Y0038778D01*
X0106993Y0038778D01*
X0108390Y0039357D01*
X0109459Y0040426D01*
X0110037Y0041822D01*
X0110037Y0043334D01*
X0109459Y0044731D01*
X0108390Y0045800D01*
X0106993Y0046378D01*
X0105481Y0046378D01*
X0103913Y0045628D02*
X0089179Y0045628D01*
X0089778Y0045030D02*
X0103314Y0045030D01*
X0102891Y0044431D02*
X0090194Y0044431D01*
X0090441Y0043832D02*
X0102644Y0043832D01*
X0102437Y0043234D02*
X0090643Y0043234D01*
X0090643Y0042635D02*
X0102437Y0042635D01*
X0102437Y0042037D02*
X0090643Y0042037D01*
X0090479Y0041438D02*
X0102596Y0041438D01*
X0102844Y0040840D02*
X0090231Y0040840D01*
X0089868Y0040241D02*
X0103200Y0040241D01*
X0103798Y0039643D02*
X0089270Y0039643D01*
X0088213Y0039044D02*
X0104839Y0039044D01*
X0105481Y0036378D02*
X0104085Y0035800D01*
X0103016Y0034731D01*
X0102437Y0033334D01*
X0102437Y0031822D01*
X0103016Y0030426D01*
X0104085Y0029357D01*
X0105481Y0028778D01*
X0106993Y0028778D01*
X0108390Y0029357D01*
X0109459Y0030426D01*
X0110037Y0031822D01*
X0110037Y0033334D01*
X0109459Y0034731D01*
X0108390Y0035800D01*
X0106993Y0036378D01*
X0105481Y0036378D01*
X0104693Y0036052D02*
X0088415Y0036052D01*
X0088995Y0035812D02*
X0087599Y0036390D01*
X0086087Y0036390D01*
X0084690Y0035812D01*
X0083621Y0034743D01*
X0083043Y0033346D01*
X0083043Y0031834D01*
X0083621Y0030438D01*
X0084690Y0029369D01*
X0086087Y0028790D01*
X0087599Y0028790D01*
X0088995Y0029369D01*
X0090064Y0030438D01*
X0090643Y0031834D01*
X0090643Y0033346D01*
X0090064Y0034743D01*
X0088995Y0035812D01*
X0089354Y0035453D02*
X0103738Y0035453D01*
X0103140Y0034855D02*
X0089952Y0034855D01*
X0090266Y0034256D02*
X0102819Y0034256D01*
X0102571Y0033658D02*
X0090514Y0033658D01*
X0090643Y0033059D02*
X0102437Y0033059D01*
X0102437Y0032461D02*
X0090643Y0032461D01*
X0090643Y0031862D02*
X0102437Y0031862D01*
X0102669Y0031264D02*
X0090407Y0031264D01*
X0090159Y0030665D02*
X0102916Y0030665D01*
X0103375Y0030067D02*
X0089694Y0030067D01*
X0089095Y0029468D02*
X0103973Y0029468D01*
X0105261Y0028870D02*
X0087791Y0028870D01*
X0085895Y0028870D02*
X0025192Y0028870D01*
X0026230Y0029468D02*
X0084591Y0029468D01*
X0083992Y0030067D02*
X0026829Y0030067D01*
X0027184Y0030665D02*
X0083527Y0030665D01*
X0083279Y0031264D02*
X0027432Y0031264D01*
X0027590Y0031862D02*
X0083043Y0031862D01*
X0083043Y0032461D02*
X0045124Y0032461D01*
X0044872Y0032209D02*
X0046161Y0033498D01*
X0046161Y0035320D01*
X0045807Y0035674D01*
X0046408Y0035674D01*
X0047697Y0036963D01*
X0047697Y0038786D01*
X0046408Y0040074D01*
X0044586Y0040074D01*
X0043297Y0038786D01*
X0043297Y0036963D01*
X0043651Y0036609D01*
X0043050Y0036609D01*
X0041761Y0035320D01*
X0041761Y0033498D01*
X0043050Y0032209D01*
X0044872Y0032209D01*
X0045723Y0033059D02*
X0083043Y0033059D01*
X0083172Y0033658D02*
X0055573Y0033658D01*
X0055010Y0033095D02*
X0056299Y0034384D01*
X0056299Y0036206D01*
X0055010Y0037495D01*
X0053188Y0037495D01*
X0051899Y0036206D01*
X0051899Y0034384D01*
X0053188Y0033095D01*
X0055010Y0033095D01*
X0056172Y0034256D02*
X0083420Y0034256D01*
X0083734Y0034855D02*
X0056299Y0034855D01*
X0056299Y0035453D02*
X0084332Y0035453D01*
X0085271Y0036052D02*
X0056299Y0036052D01*
X0055855Y0036650D02*
X0115231Y0036650D01*
X0115231Y0036052D02*
X0107781Y0036052D01*
X0108736Y0035453D02*
X0115231Y0035453D01*
X0115232Y0034855D02*
X0109335Y0034855D01*
X0109655Y0034256D02*
X0115232Y0034256D01*
X0115232Y0033658D02*
X0109903Y0033658D01*
X0110037Y0033059D02*
X0115232Y0033059D01*
X0115233Y0032461D02*
X0110037Y0032461D01*
X0110037Y0031862D02*
X0115233Y0031862D01*
X0115233Y0031264D02*
X0109806Y0031264D01*
X0109558Y0030665D02*
X0115233Y0030665D01*
X0115234Y0030067D02*
X0109100Y0030067D01*
X0108501Y0029468D02*
X0115234Y0029468D01*
X0115234Y0028870D02*
X0107214Y0028870D01*
X0106993Y0026378D02*
X0105481Y0026378D01*
X0104085Y0025800D01*
X0103016Y0024731D01*
X0102437Y0023334D01*
X0102437Y0021822D01*
X0103016Y0020426D01*
X0104085Y0019357D01*
X0105481Y0018778D01*
X0106993Y0018778D01*
X0108390Y0019357D01*
X0109459Y0020426D01*
X0110037Y0021822D01*
X0110037Y0023334D01*
X0109459Y0024731D01*
X0108390Y0025800D01*
X0106993Y0026378D01*
X0108203Y0025877D02*
X0115235Y0025877D01*
X0115235Y0025279D02*
X0108911Y0025279D01*
X0109480Y0024680D02*
X0115236Y0024680D01*
X0115236Y0024082D02*
X0109728Y0024082D01*
X0109975Y0023483D02*
X0115236Y0023483D01*
X0115236Y0022885D02*
X0110037Y0022885D01*
X0110037Y0022286D02*
X0115237Y0022286D01*
X0115237Y0021688D02*
X0109981Y0021688D01*
X0109733Y0021089D02*
X0115237Y0021089D01*
X0115237Y0020491D02*
X0109485Y0020491D01*
X0108925Y0019892D02*
X0115237Y0019892D01*
X0115238Y0019294D02*
X0108237Y0019294D01*
X0108403Y0016301D02*
X0115239Y0016301D01*
X0115239Y0016899D02*
X0064191Y0016899D01*
X0063970Y0017120D02*
X0062148Y0017120D01*
X0060893Y0015864D01*
X0060424Y0016333D01*
X0058601Y0016333D01*
X0057544Y0015276D01*
X0056487Y0016333D01*
X0054664Y0016333D01*
X0053375Y0015045D01*
X0053375Y0013222D01*
X0054664Y0011933D01*
X0056487Y0011933D01*
X0057544Y0012991D01*
X0058601Y0011933D01*
X0060424Y0011933D01*
X0061679Y0013189D01*
X0062148Y0012720D01*
X0063970Y0012720D01*
X0065259Y0014008D01*
X0065259Y0015831D01*
X0063970Y0017120D01*
X0064789Y0016301D02*
X0084654Y0016301D01*
X0083874Y0015702D02*
X0065259Y0015702D01*
X0065259Y0015104D02*
X0067266Y0015104D01*
X0066668Y0014505D02*
X0065259Y0014505D01*
X0065158Y0013907D02*
X0066339Y0013907D01*
X0066339Y0013308D02*
X0064559Y0013308D01*
X0066339Y0012710D02*
X0061200Y0012710D01*
X0060602Y0012111D02*
X0066509Y0012111D01*
X0067107Y0011513D02*
X0046804Y0011513D01*
X0046804Y0010985D02*
X0045463Y0009644D01*
X0043567Y0009644D01*
X0042226Y0010985D01*
X0042226Y0012881D01*
X0043567Y0014222D01*
X0045463Y0014222D01*
X0046804Y0012881D01*
X0046804Y0010985D01*
X0046733Y0010914D02*
X0082871Y0010914D01*
X0083180Y0010316D02*
X0046135Y0010316D01*
X0045536Y0009717D02*
X0083635Y0009717D01*
X0084305Y0009119D02*
X0025793Y0009119D01*
X0025943Y0009181D02*
X0027012Y0010250D01*
X0027590Y0011646D01*
X0027590Y0013158D01*
X0027012Y0014555D01*
X0025943Y0015624D01*
X0024546Y0016202D01*
X0023034Y0016202D01*
X0021638Y0015624D01*
X0020569Y0014555D01*
X0019990Y0013158D01*
X0019990Y0011646D01*
X0020569Y0010250D01*
X0021638Y0009181D01*
X0023034Y0008602D01*
X0024546Y0008602D01*
X0025943Y0009181D01*
X0026479Y0009717D02*
X0043493Y0009717D01*
X0042895Y0010316D02*
X0027039Y0010316D01*
X0027287Y0010914D02*
X0042296Y0010914D01*
X0042226Y0011513D02*
X0027535Y0011513D01*
X0027590Y0012111D02*
X0042226Y0012111D01*
X0042226Y0012710D02*
X0027590Y0012710D01*
X0027528Y0013308D02*
X0042653Y0013308D01*
X0043252Y0013907D02*
X0027280Y0013907D01*
X0027032Y0014505D02*
X0053375Y0014505D01*
X0053375Y0013907D02*
X0045778Y0013907D01*
X0046376Y0013308D02*
X0053375Y0013308D01*
X0053888Y0012710D02*
X0046804Y0012710D01*
X0046804Y0012111D02*
X0054486Y0012111D01*
X0053435Y0015104D02*
X0026463Y0015104D01*
X0025753Y0015702D02*
X0054033Y0015702D01*
X0054632Y0016301D02*
X0005323Y0016301D01*
X0005323Y0016899D02*
X0061928Y0016899D01*
X0061329Y0016301D02*
X0060456Y0016301D01*
X0058569Y0016301D02*
X0056519Y0016301D01*
X0057118Y0015702D02*
X0057970Y0015702D01*
X0057825Y0012710D02*
X0057263Y0012710D01*
X0056665Y0012111D02*
X0058423Y0012111D01*
X0067965Y0022448D02*
X0066624Y0023789D01*
X0066624Y0025685D01*
X0067965Y0027026D01*
X0069861Y0027026D01*
X0071202Y0025685D01*
X0071202Y0023789D01*
X0069861Y0022448D01*
X0067965Y0022448D01*
X0067528Y0022885D02*
X0040943Y0022885D01*
X0040659Y0022601D02*
X0041948Y0023889D01*
X0041948Y0025712D01*
X0040659Y0027001D01*
X0038836Y0027001D01*
X0037548Y0025712D01*
X0037548Y0023889D01*
X0038836Y0022601D01*
X0040659Y0022601D01*
X0041541Y0023483D02*
X0066929Y0023483D01*
X0066624Y0024082D02*
X0041948Y0024082D01*
X0041948Y0024680D02*
X0066624Y0024680D01*
X0066624Y0025279D02*
X0041948Y0025279D01*
X0041783Y0025877D02*
X0066816Y0025877D01*
X0067415Y0026476D02*
X0041184Y0026476D01*
X0038311Y0026476D02*
X0005338Y0026476D01*
X0005338Y0027074D02*
X0115235Y0027074D01*
X0115235Y0026476D02*
X0070411Y0026476D01*
X0071009Y0025877D02*
X0084849Y0025877D01*
X0084690Y0025812D02*
X0083621Y0024743D01*
X0083043Y0023346D01*
X0083043Y0021834D01*
X0083621Y0020438D01*
X0084690Y0019369D01*
X0086087Y0018790D01*
X0087599Y0018790D01*
X0088995Y0019369D01*
X0090064Y0020438D01*
X0090643Y0021834D01*
X0090643Y0023346D01*
X0090064Y0024743D01*
X0088995Y0025812D01*
X0087599Y0026390D01*
X0086087Y0026390D01*
X0084690Y0025812D01*
X0084158Y0025279D02*
X0071202Y0025279D01*
X0071202Y0024680D02*
X0083596Y0024680D01*
X0083348Y0024082D02*
X0071202Y0024082D01*
X0070896Y0023483D02*
X0083100Y0023483D01*
X0083043Y0022885D02*
X0070298Y0022885D01*
X0071794Y0021089D02*
X0033651Y0021089D01*
X0033391Y0020829D02*
X0034732Y0022169D01*
X0034732Y0024066D01*
X0033391Y0025407D01*
X0031495Y0025407D01*
X0030154Y0024066D01*
X0030154Y0022169D01*
X0031495Y0020829D01*
X0033391Y0020829D01*
X0034250Y0021688D02*
X0072393Y0021688D01*
X0072991Y0022286D02*
X0034732Y0022286D01*
X0034732Y0022885D02*
X0038553Y0022885D01*
X0037954Y0023483D02*
X0034732Y0023483D01*
X0034716Y0024082D02*
X0037548Y0024082D01*
X0037548Y0024680D02*
X0034117Y0024680D01*
X0033519Y0025279D02*
X0037548Y0025279D01*
X0037713Y0025877D02*
X0025331Y0025877D01*
X0025943Y0025624D02*
X0024546Y0026202D01*
X0023034Y0026202D01*
X0021638Y0025624D01*
X0020569Y0024555D01*
X0019990Y0023158D01*
X0019990Y0021646D01*
X0020569Y0020250D01*
X0021638Y0019181D01*
X0023034Y0018602D01*
X0024546Y0018602D01*
X0025943Y0019181D01*
X0027012Y0020250D01*
X0027590Y0021646D01*
X0027590Y0023158D01*
X0027012Y0024555D01*
X0025943Y0025624D01*
X0026288Y0025279D02*
X0031367Y0025279D01*
X0030768Y0024680D02*
X0026886Y0024680D01*
X0027208Y0024082D02*
X0030170Y0024082D01*
X0030154Y0023483D02*
X0027456Y0023483D01*
X0027590Y0022885D02*
X0030154Y0022885D01*
X0030154Y0022286D02*
X0027590Y0022286D01*
X0027590Y0021688D02*
X0030636Y0021688D01*
X0031234Y0021089D02*
X0027359Y0021089D01*
X0027111Y0020491D02*
X0071793Y0020491D01*
X0071793Y0021088D02*
X0071793Y0019192D01*
X0073134Y0017851D01*
X0075030Y0017851D01*
X0076371Y0019192D01*
X0076371Y0021088D01*
X0075030Y0022429D01*
X0073134Y0022429D01*
X0071793Y0021088D01*
X0071793Y0019892D02*
X0026654Y0019892D01*
X0026055Y0019294D02*
X0071793Y0019294D01*
X0072290Y0018695D02*
X0024770Y0018695D01*
X0022811Y0018695D02*
X0014770Y0018695D01*
X0016055Y0019294D02*
X0021525Y0019294D01*
X0020927Y0019892D02*
X0016654Y0019892D01*
X0017111Y0020491D02*
X0020469Y0020491D01*
X0020221Y0021089D02*
X0017359Y0021089D01*
X0017590Y0021688D02*
X0019990Y0021688D01*
X0019990Y0022286D02*
X0017590Y0022286D01*
X0017590Y0022885D02*
X0019990Y0022885D01*
X0020125Y0023483D02*
X0017456Y0023483D01*
X0017208Y0024082D02*
X0020373Y0024082D01*
X0020694Y0024680D02*
X0016886Y0024680D01*
X0016288Y0025279D02*
X0021293Y0025279D01*
X0022249Y0025877D02*
X0015331Y0025877D01*
X0015192Y0028870D02*
X0022389Y0028870D01*
X0021350Y0029468D02*
X0016230Y0029468D01*
X0016829Y0030067D02*
X0020752Y0030067D01*
X0020397Y0030665D02*
X0017184Y0030665D01*
X0017432Y0031264D02*
X0020149Y0031264D01*
X0019990Y0031862D02*
X0017590Y0031862D01*
X0017590Y0032461D02*
X0019990Y0032461D01*
X0019990Y0033059D02*
X0017590Y0033059D01*
X0017383Y0033658D02*
X0020197Y0033658D01*
X0020445Y0034256D02*
X0017135Y0034256D01*
X0016712Y0034855D02*
X0020869Y0034855D01*
X0021467Y0035453D02*
X0016113Y0035453D01*
X0014909Y0036052D02*
X0022671Y0036052D01*
X0021967Y0039044D02*
X0015613Y0039044D01*
X0016405Y0039643D02*
X0021176Y0039643D01*
X0020577Y0040241D02*
X0017003Y0040241D01*
X0017256Y0040840D02*
X0020324Y0040840D01*
X0020076Y0041438D02*
X0017504Y0041438D01*
X0017590Y0042037D02*
X0019990Y0042037D01*
X0019990Y0042635D02*
X0017590Y0042635D01*
X0017559Y0043234D02*
X0020022Y0043234D01*
X0020270Y0043832D02*
X0017311Y0043832D01*
X0017063Y0044431D02*
X0020517Y0044431D01*
X0021043Y0045030D02*
X0016537Y0045030D01*
X0015933Y0045628D02*
X0021648Y0045628D01*
X0022990Y0048621D02*
X0014590Y0048621D01*
X0014546Y0048602D02*
X0015943Y0049181D01*
X0017012Y0050250D01*
X0017590Y0051646D01*
X0017590Y0053158D01*
X0017012Y0054555D01*
X0015943Y0055624D01*
X0014546Y0056202D01*
X0013034Y0056202D01*
X0011638Y0055624D01*
X0010569Y0054555D01*
X0009990Y0053158D01*
X0009990Y0051646D01*
X0010569Y0050250D01*
X0011638Y0049181D01*
X0013034Y0048602D01*
X0014546Y0048602D01*
X0015981Y0049219D02*
X0021599Y0049219D01*
X0021638Y0049181D02*
X0023034Y0048602D01*
X0024546Y0048602D01*
X0025943Y0049181D01*
X0027012Y0050250D01*
X0027590Y0051646D01*
X0027590Y0053158D01*
X0027012Y0054555D01*
X0025943Y0055624D01*
X0024546Y0056202D01*
X0023034Y0056202D01*
X0021638Y0055624D01*
X0020569Y0054555D01*
X0019990Y0053158D01*
X0019990Y0051646D01*
X0020569Y0050250D01*
X0021638Y0049181D01*
X0021001Y0049818D02*
X0016580Y0049818D01*
X0017081Y0050416D02*
X0020500Y0050416D01*
X0020252Y0051015D02*
X0017329Y0051015D01*
X0017576Y0051613D02*
X0020004Y0051613D01*
X0019990Y0052212D02*
X0017590Y0052212D01*
X0017590Y0052810D02*
X0019990Y0052810D01*
X0020094Y0053409D02*
X0017486Y0053409D01*
X0017239Y0054007D02*
X0020342Y0054007D01*
X0020620Y0054606D02*
X0016961Y0054606D01*
X0016362Y0055204D02*
X0021218Y0055204D01*
X0022070Y0055803D02*
X0015511Y0055803D01*
X0014546Y0058602D02*
X0013034Y0058602D01*
X0011638Y0059181D01*
X0010569Y0060250D01*
X0009990Y0061646D01*
X0009990Y0063158D01*
X0010569Y0064555D01*
X0011638Y0065624D01*
X0013034Y0066202D01*
X0014546Y0066202D01*
X0015943Y0065624D01*
X0017012Y0064555D01*
X0017590Y0063158D01*
X0017590Y0061646D01*
X0017012Y0060250D01*
X0015943Y0059181D01*
X0014546Y0058602D01*
X0015012Y0058795D02*
X0022569Y0058795D01*
X0023034Y0058602D02*
X0021638Y0059181D01*
X0020569Y0060250D01*
X0019990Y0061646D01*
X0019990Y0063158D01*
X0020569Y0064555D01*
X0021638Y0065624D01*
X0023034Y0066202D01*
X0024546Y0066202D01*
X0025943Y0065624D01*
X0027012Y0064555D01*
X0027590Y0063158D01*
X0027590Y0061646D01*
X0027012Y0060250D01*
X0025943Y0059181D01*
X0024546Y0058602D01*
X0023034Y0058602D01*
X0025012Y0058795D02*
X0030245Y0058795D01*
X0029749Y0059291D02*
X0029749Y0061188D01*
X0031090Y0062529D01*
X0032986Y0062529D01*
X0034327Y0061188D01*
X0034327Y0059291D01*
X0032986Y0057951D01*
X0031090Y0057951D01*
X0029749Y0059291D01*
X0029749Y0059394D02*
X0026156Y0059394D01*
X0026754Y0059992D02*
X0029749Y0059992D01*
X0029749Y0060591D02*
X0027153Y0060591D01*
X0027401Y0061189D02*
X0029751Y0061189D01*
X0030349Y0061788D02*
X0027590Y0061788D01*
X0027590Y0062386D02*
X0030948Y0062386D01*
X0033128Y0062386D02*
X0045156Y0062386D01*
X0044911Y0062632D02*
X0046200Y0061343D01*
X0048022Y0061343D01*
X0049311Y0062632D01*
X0049311Y0064454D01*
X0048022Y0065743D01*
X0046200Y0065743D01*
X0044911Y0064454D01*
X0044911Y0062632D01*
X0044911Y0062985D02*
X0027590Y0062985D01*
X0027414Y0063583D02*
X0044911Y0063583D01*
X0044911Y0064182D02*
X0039871Y0064182D01*
X0039871Y0064181D02*
X0041160Y0065470D01*
X0041160Y0067293D01*
X0040152Y0068301D01*
X0041160Y0069308D01*
X0041160Y0071131D01*
X0039871Y0072420D01*
X0038048Y0072420D01*
X0036760Y0071131D01*
X0036760Y0069308D01*
X0037768Y0068301D01*
X0036760Y0067293D01*
X0036760Y0065470D01*
X0038048Y0064181D01*
X0039871Y0064181D01*
X0040470Y0064780D02*
X0045237Y0064780D01*
X0045836Y0065379D02*
X0041068Y0065379D01*
X0041160Y0065977D02*
X0065301Y0065977D01*
X0065301Y0066067D02*
X0065301Y0064244D01*
X0066589Y0062955D01*
X0068055Y0062955D01*
X0068055Y0061913D01*
X0069344Y0060624D01*
X0071166Y0060624D01*
X0072455Y0061913D01*
X0072455Y0063736D01*
X0071166Y0065024D01*
X0069701Y0065024D01*
X0069701Y0066067D01*
X0068704Y0067064D01*
X0069390Y0067750D01*
X0069390Y0069572D01*
X0068113Y0070849D01*
X0069238Y0071974D01*
X0069238Y0073796D01*
X0067949Y0075085D01*
X0066127Y0075085D01*
X0064838Y0073796D01*
X0064838Y0071974D01*
X0066114Y0070697D01*
X0064990Y0069572D01*
X0064990Y0067750D01*
X0065987Y0066753D01*
X0065301Y0066067D01*
X0065301Y0065379D02*
X0056260Y0065379D01*
X0055896Y0065743D02*
X0054074Y0065743D01*
X0052785Y0064454D01*
X0052785Y0062632D01*
X0054074Y0061343D01*
X0055896Y0061343D01*
X0057185Y0062632D01*
X0057185Y0064454D01*
X0055896Y0065743D01*
X0056859Y0064780D02*
X0065301Y0064780D01*
X0065363Y0064182D02*
X0057185Y0064182D01*
X0057185Y0063583D02*
X0065962Y0063583D01*
X0066560Y0062985D02*
X0057185Y0062985D01*
X0056940Y0062386D02*
X0068055Y0062386D01*
X0068180Y0061788D02*
X0056341Y0061788D01*
X0053629Y0061788D02*
X0048467Y0061788D01*
X0049065Y0062386D02*
X0053030Y0062386D01*
X0052785Y0062985D02*
X0049311Y0062985D01*
X0049311Y0063583D02*
X0052785Y0063583D01*
X0052785Y0064182D02*
X0049311Y0064182D01*
X0048985Y0064780D02*
X0053111Y0064780D01*
X0053710Y0065379D02*
X0048386Y0065379D01*
X0045755Y0061788D02*
X0033727Y0061788D01*
X0034325Y0061189D02*
X0068779Y0061189D01*
X0068423Y0061079D02*
X0069712Y0059790D01*
X0069712Y0057967D01*
X0068956Y0057211D01*
X0070126Y0056041D01*
X0070126Y0054219D01*
X0068837Y0052930D01*
X0067015Y0052930D01*
X0065726Y0054219D01*
X0065726Y0056041D01*
X0066482Y0056797D01*
X0065312Y0057967D01*
X0065312Y0059790D01*
X0066601Y0061079D01*
X0068423Y0061079D01*
X0068911Y0060591D02*
X0075644Y0060591D01*
X0076183Y0061129D02*
X0074894Y0059840D01*
X0074894Y0058018D01*
X0076183Y0056729D01*
X0078005Y0056729D01*
X0079294Y0058018D01*
X0079294Y0059840D01*
X0078005Y0061129D01*
X0076183Y0061129D01*
X0075046Y0059992D02*
X0069510Y0059992D01*
X0069712Y0059394D02*
X0074894Y0059394D01*
X0074894Y0058795D02*
X0069712Y0058795D01*
X0069712Y0058197D02*
X0074894Y0058197D01*
X0075313Y0057598D02*
X0069343Y0057598D01*
X0069167Y0057000D02*
X0075912Y0057000D01*
X0078276Y0057000D02*
X0115223Y0057000D01*
X0115223Y0057598D02*
X0078874Y0057598D01*
X0079294Y0058197D02*
X0115223Y0058197D01*
X0115222Y0058795D02*
X0107034Y0058795D01*
X0106993Y0058778D02*
X0108390Y0059357D01*
X0109459Y0060426D01*
X0110037Y0061822D01*
X0110037Y0063334D01*
X0109459Y0064731D01*
X0108390Y0065800D01*
X0106993Y0066378D01*
X0105481Y0066378D01*
X0104085Y0065800D01*
X0103016Y0064731D01*
X0102437Y0063334D01*
X0102437Y0061822D01*
X0103016Y0060426D01*
X0104085Y0059357D01*
X0105481Y0058778D01*
X0106993Y0058778D01*
X0105440Y0058795D02*
X0087611Y0058795D01*
X0087599Y0058790D02*
X0088995Y0059369D01*
X0090064Y0060438D01*
X0090643Y0061834D01*
X0090643Y0063346D01*
X0090064Y0064743D01*
X0088995Y0065812D01*
X0087599Y0066390D01*
X0086087Y0066390D01*
X0084690Y0065812D01*
X0083621Y0064743D01*
X0083043Y0063346D01*
X0083043Y0061834D01*
X0083621Y0060438D01*
X0084690Y0059369D01*
X0086087Y0058790D01*
X0087599Y0058790D01*
X0086075Y0058795D02*
X0079294Y0058795D01*
X0079294Y0059394D02*
X0084665Y0059394D01*
X0084067Y0059992D02*
X0079142Y0059992D01*
X0078543Y0060591D02*
X0083558Y0060591D01*
X0083310Y0061189D02*
X0071731Y0061189D01*
X0072330Y0061788D02*
X0083062Y0061788D01*
X0083043Y0062386D02*
X0072455Y0062386D01*
X0072455Y0062985D02*
X0083043Y0062985D01*
X0083141Y0063583D02*
X0072455Y0063583D01*
X0072009Y0064182D02*
X0083389Y0064182D01*
X0083659Y0064780D02*
X0071410Y0064780D01*
X0069701Y0065379D02*
X0084258Y0065379D01*
X0085091Y0065977D02*
X0069701Y0065977D01*
X0069192Y0066576D02*
X0115219Y0066576D01*
X0115219Y0067174D02*
X0068814Y0067174D01*
X0069390Y0067773D02*
X0115219Y0067773D01*
X0115219Y0068371D02*
X0069390Y0068371D01*
X0069390Y0068970D02*
X0085653Y0068970D01*
X0086087Y0068790D02*
X0087599Y0068790D01*
X0088995Y0069369D01*
X0090064Y0070438D01*
X0090643Y0071834D01*
X0090643Y0073346D01*
X0090064Y0074743D01*
X0088995Y0075812D01*
X0087599Y0076390D01*
X0086087Y0076390D01*
X0084690Y0075812D01*
X0083621Y0074743D01*
X0083043Y0073346D01*
X0083043Y0071834D01*
X0083621Y0070438D01*
X0084690Y0069369D01*
X0086087Y0068790D01*
X0084491Y0069568D02*
X0069390Y0069568D01*
X0068795Y0070167D02*
X0073019Y0070167D01*
X0073572Y0069614D02*
X0072284Y0070903D01*
X0072284Y0072725D01*
X0073572Y0074014D01*
X0075395Y0074014D01*
X0076684Y0072725D01*
X0076684Y0070903D01*
X0075395Y0069614D01*
X0073572Y0069614D01*
X0072421Y0070766D02*
X0068196Y0070766D01*
X0068628Y0071364D02*
X0072284Y0071364D01*
X0072284Y0071963D02*
X0069227Y0071963D01*
X0069238Y0072561D02*
X0072284Y0072561D01*
X0072718Y0073160D02*
X0069238Y0073160D01*
X0069238Y0073758D02*
X0073316Y0073758D01*
X0075651Y0073758D02*
X0083214Y0073758D01*
X0083043Y0073160D02*
X0076249Y0073160D01*
X0076684Y0072561D02*
X0083043Y0072561D01*
X0083043Y0071963D02*
X0076684Y0071963D01*
X0076684Y0071364D02*
X0083238Y0071364D01*
X0083486Y0070766D02*
X0076546Y0070766D01*
X0075948Y0070167D02*
X0083892Y0070167D01*
X0083462Y0074357D02*
X0068678Y0074357D01*
X0068079Y0074955D02*
X0083834Y0074955D01*
X0084432Y0075554D02*
X0036163Y0075554D01*
X0036471Y0075246D02*
X0035182Y0076534D01*
X0033360Y0076534D01*
X0032071Y0075246D01*
X0032071Y0073665D01*
X0030237Y0073665D01*
X0028896Y0072324D01*
X0028896Y0070428D01*
X0030237Y0069087D01*
X0032133Y0069087D01*
X0033474Y0070428D01*
X0033474Y0072134D01*
X0035182Y0072134D01*
X0036471Y0073423D01*
X0036471Y0075246D01*
X0036471Y0074955D02*
X0065997Y0074955D01*
X0065398Y0074357D02*
X0036471Y0074357D01*
X0036471Y0073758D02*
X0064838Y0073758D01*
X0064838Y0073160D02*
X0036207Y0073160D01*
X0035609Y0072561D02*
X0064838Y0072561D01*
X0064849Y0071963D02*
X0040328Y0071963D01*
X0040927Y0071364D02*
X0065448Y0071364D01*
X0066046Y0070766D02*
X0041160Y0070766D01*
X0041160Y0070167D02*
X0065584Y0070167D01*
X0064990Y0069568D02*
X0041160Y0069568D01*
X0040821Y0068970D02*
X0064990Y0068970D01*
X0064990Y0068371D02*
X0040223Y0068371D01*
X0040679Y0067773D02*
X0064990Y0067773D01*
X0065565Y0067174D02*
X0041160Y0067174D01*
X0041160Y0066576D02*
X0065810Y0066576D01*
X0066113Y0060591D02*
X0034327Y0060591D01*
X0034327Y0059992D02*
X0044855Y0059992D01*
X0045283Y0060421D02*
X0043995Y0059132D01*
X0043995Y0057310D01*
X0045283Y0056021D01*
X0047106Y0056021D01*
X0048395Y0057310D01*
X0048395Y0059132D01*
X0047106Y0060421D01*
X0045283Y0060421D01*
X0044256Y0059394D02*
X0034327Y0059394D01*
X0033831Y0058795D02*
X0037211Y0058795D01*
X0037396Y0058981D02*
X0036108Y0057692D01*
X0036108Y0055870D01*
X0037396Y0054581D01*
X0039219Y0054581D01*
X0040508Y0055870D01*
X0040508Y0057692D01*
X0039219Y0058981D01*
X0037396Y0058981D01*
X0036612Y0058197D02*
X0033232Y0058197D01*
X0030844Y0058197D02*
X0005384Y0058197D01*
X0005385Y0058795D02*
X0012569Y0058795D01*
X0011425Y0059394D02*
X0005386Y0059394D01*
X0005387Y0059992D02*
X0010826Y0059992D01*
X0010428Y0060591D02*
X0005388Y0060591D01*
X0005389Y0061189D02*
X0010180Y0061189D01*
X0009990Y0061788D02*
X0005390Y0061788D01*
X0005391Y0062386D02*
X0009990Y0062386D01*
X0009990Y0062985D02*
X0005392Y0062985D01*
X0005392Y0063583D02*
X0010166Y0063583D01*
X0010414Y0064182D02*
X0005393Y0064182D01*
X0005394Y0064780D02*
X0010794Y0064780D01*
X0011393Y0065379D02*
X0005395Y0065379D01*
X0005396Y0065977D02*
X0012491Y0065977D01*
X0015089Y0065977D02*
X0022491Y0065977D01*
X0021393Y0065379D02*
X0016188Y0065379D01*
X0016786Y0064780D02*
X0020794Y0064780D01*
X0020414Y0064182D02*
X0017166Y0064182D01*
X0017414Y0063583D02*
X0020166Y0063583D01*
X0019990Y0062985D02*
X0017590Y0062985D01*
X0017590Y0062386D02*
X0019990Y0062386D01*
X0019990Y0061788D02*
X0017590Y0061788D01*
X0017401Y0061189D02*
X0020180Y0061189D01*
X0020428Y0060591D02*
X0017153Y0060591D01*
X0016754Y0059992D02*
X0020826Y0059992D01*
X0021425Y0059394D02*
X0016156Y0059394D01*
X0012070Y0055803D02*
X0005381Y0055803D01*
X0005382Y0056401D02*
X0036108Y0056401D01*
X0036108Y0057000D02*
X0005383Y0057000D01*
X0005384Y0057598D02*
X0036108Y0057598D01*
X0036174Y0055803D02*
X0025511Y0055803D01*
X0026362Y0055204D02*
X0036773Y0055204D01*
X0037371Y0054606D02*
X0026961Y0054606D01*
X0027239Y0054007D02*
X0065938Y0054007D01*
X0065726Y0054606D02*
X0039244Y0054606D01*
X0039842Y0055204D02*
X0065726Y0055204D01*
X0065726Y0055803D02*
X0040441Y0055803D01*
X0040508Y0056401D02*
X0044903Y0056401D01*
X0044305Y0057000D02*
X0040508Y0057000D01*
X0040508Y0057598D02*
X0043995Y0057598D01*
X0043995Y0058197D02*
X0040003Y0058197D01*
X0039404Y0058795D02*
X0043995Y0058795D01*
X0047535Y0059992D02*
X0065514Y0059992D01*
X0065312Y0059394D02*
X0048133Y0059394D01*
X0048395Y0058795D02*
X0065312Y0058795D01*
X0065312Y0058197D02*
X0048395Y0058197D01*
X0048395Y0057598D02*
X0065681Y0057598D01*
X0066280Y0057000D02*
X0048085Y0057000D01*
X0047486Y0056401D02*
X0066086Y0056401D01*
X0066536Y0053409D02*
X0047926Y0053409D01*
X0047522Y0053813D02*
X0045699Y0053813D01*
X0044411Y0052524D01*
X0044411Y0050701D01*
X0045699Y0049413D01*
X0047522Y0049413D01*
X0048810Y0050701D01*
X0048810Y0052524D01*
X0047522Y0053813D01*
X0048524Y0052810D02*
X0083043Y0052810D01*
X0083043Y0053346D02*
X0083043Y0051834D01*
X0083621Y0050438D01*
X0084690Y0049369D01*
X0086087Y0048790D01*
X0087599Y0048790D01*
X0088995Y0049369D01*
X0090064Y0050438D01*
X0090643Y0051834D01*
X0090643Y0053346D01*
X0090064Y0054743D01*
X0088995Y0055812D01*
X0087599Y0056390D01*
X0086087Y0056390D01*
X0084690Y0055812D01*
X0083621Y0054743D01*
X0083043Y0053346D01*
X0083069Y0053409D02*
X0069316Y0053409D01*
X0069914Y0054007D02*
X0083317Y0054007D01*
X0083565Y0054606D02*
X0070126Y0054606D01*
X0070126Y0055204D02*
X0084083Y0055204D01*
X0084682Y0055803D02*
X0070126Y0055803D01*
X0069766Y0056401D02*
X0115223Y0056401D01*
X0115224Y0055803D02*
X0108383Y0055803D01*
X0108390Y0055800D02*
X0106993Y0056378D01*
X0105481Y0056378D01*
X0104085Y0055800D01*
X0103016Y0054731D01*
X0102437Y0053334D01*
X0102437Y0051822D01*
X0103016Y0050426D01*
X0104085Y0049357D01*
X0105481Y0048778D01*
X0106993Y0048778D01*
X0108390Y0049357D01*
X0109459Y0050426D01*
X0110037Y0051822D01*
X0110037Y0053334D01*
X0109459Y0054731D01*
X0108390Y0055800D01*
X0108985Y0055204D02*
X0115224Y0055204D01*
X0115224Y0054606D02*
X0109510Y0054606D01*
X0109758Y0054007D02*
X0115224Y0054007D01*
X0115225Y0053409D02*
X0110006Y0053409D01*
X0110037Y0052810D02*
X0115225Y0052810D01*
X0115225Y0052212D02*
X0110037Y0052212D01*
X0109950Y0051613D02*
X0115225Y0051613D01*
X0115225Y0051015D02*
X0109702Y0051015D01*
X0109449Y0050416D02*
X0115226Y0050416D01*
X0115226Y0049818D02*
X0108850Y0049818D01*
X0108057Y0049219D02*
X0115226Y0049219D01*
X0115226Y0048621D02*
X0024590Y0048621D01*
X0025981Y0049219D02*
X0085051Y0049219D01*
X0084241Y0049818D02*
X0047927Y0049818D01*
X0048525Y0050416D02*
X0083643Y0050416D01*
X0083382Y0051015D02*
X0048810Y0051015D01*
X0048810Y0051613D02*
X0083135Y0051613D01*
X0083043Y0052212D02*
X0048810Y0052212D01*
X0045295Y0053409D02*
X0027486Y0053409D01*
X0027590Y0052810D02*
X0044697Y0052810D01*
X0044411Y0052212D02*
X0027590Y0052212D01*
X0027576Y0051613D02*
X0044411Y0051613D01*
X0044411Y0051015D02*
X0027329Y0051015D01*
X0027081Y0050416D02*
X0044696Y0050416D01*
X0045294Y0049818D02*
X0026580Y0049818D01*
X0027256Y0040840D02*
X0083455Y0040840D01*
X0083818Y0040241D02*
X0027003Y0040241D01*
X0026405Y0039643D02*
X0044154Y0039643D01*
X0043556Y0039044D02*
X0035744Y0039044D01*
X0036343Y0038446D02*
X0043297Y0038446D01*
X0043297Y0037847D02*
X0036614Y0037847D01*
X0036614Y0037249D02*
X0043297Y0037249D01*
X0043610Y0036650D02*
X0036614Y0036650D01*
X0036314Y0036052D02*
X0042493Y0036052D01*
X0041894Y0035453D02*
X0035715Y0035453D01*
X0033084Y0039044D02*
X0025613Y0039044D01*
X0026712Y0034855D02*
X0041761Y0034855D01*
X0041761Y0034256D02*
X0027135Y0034256D01*
X0027383Y0033658D02*
X0041761Y0033658D01*
X0042200Y0033059D02*
X0027590Y0033059D01*
X0027590Y0032461D02*
X0042798Y0032461D01*
X0046161Y0033658D02*
X0052625Y0033658D01*
X0052026Y0034256D02*
X0046161Y0034256D01*
X0046161Y0034855D02*
X0051899Y0034855D01*
X0051899Y0035453D02*
X0046028Y0035453D01*
X0046786Y0036052D02*
X0051899Y0036052D01*
X0052343Y0036650D02*
X0047384Y0036650D01*
X0047697Y0037249D02*
X0052942Y0037249D01*
X0055256Y0037249D02*
X0115231Y0037249D01*
X0115231Y0037847D02*
X0047697Y0037847D01*
X0047697Y0038446D02*
X0115230Y0038446D01*
X0115230Y0039044D02*
X0107635Y0039044D01*
X0108676Y0039643D02*
X0115230Y0039643D01*
X0115230Y0040241D02*
X0109274Y0040241D01*
X0109630Y0040840D02*
X0115229Y0040840D01*
X0115229Y0041438D02*
X0109878Y0041438D01*
X0110037Y0042037D02*
X0115229Y0042037D01*
X0115229Y0042635D02*
X0110037Y0042635D01*
X0110037Y0043234D02*
X0115228Y0043234D01*
X0115228Y0043832D02*
X0109831Y0043832D01*
X0109583Y0044431D02*
X0115228Y0044431D01*
X0115228Y0045030D02*
X0109160Y0045030D01*
X0108561Y0045628D02*
X0115228Y0045628D01*
X0115227Y0046227D02*
X0107359Y0046227D01*
X0104417Y0049219D02*
X0088635Y0049219D01*
X0089444Y0049818D02*
X0103624Y0049818D01*
X0103025Y0050416D02*
X0090043Y0050416D01*
X0090303Y0051015D02*
X0102772Y0051015D01*
X0102524Y0051613D02*
X0090551Y0051613D01*
X0090643Y0052212D02*
X0102437Y0052212D01*
X0102437Y0052810D02*
X0090643Y0052810D01*
X0090617Y0053409D02*
X0102468Y0053409D01*
X0102716Y0054007D02*
X0090369Y0054007D01*
X0090121Y0054606D02*
X0102964Y0054606D01*
X0103489Y0055204D02*
X0089603Y0055204D01*
X0089004Y0055803D02*
X0104092Y0055803D01*
X0104048Y0059394D02*
X0089021Y0059394D01*
X0089619Y0059992D02*
X0103449Y0059992D01*
X0102947Y0060591D02*
X0090128Y0060591D01*
X0090376Y0061189D02*
X0102699Y0061189D01*
X0102451Y0061788D02*
X0090624Y0061788D01*
X0090643Y0062386D02*
X0102437Y0062386D01*
X0102437Y0062985D02*
X0090643Y0062985D01*
X0090545Y0063583D02*
X0102540Y0063583D01*
X0102788Y0064182D02*
X0090297Y0064182D01*
X0090027Y0064780D02*
X0103065Y0064780D01*
X0103664Y0065379D02*
X0089428Y0065379D01*
X0088595Y0065977D02*
X0104513Y0065977D01*
X0105481Y0068778D02*
X0104085Y0069357D01*
X0103016Y0070426D01*
X0102437Y0071822D01*
X0102437Y0073334D01*
X0103016Y0074731D01*
X0104085Y0075800D01*
X0105481Y0076378D01*
X0106993Y0076378D01*
X0108390Y0075800D01*
X0109459Y0074731D01*
X0110037Y0073334D01*
X0110037Y0071822D01*
X0109459Y0070426D01*
X0108390Y0069357D01*
X0106993Y0068778D01*
X0105481Y0068778D01*
X0105019Y0068970D02*
X0088033Y0068970D01*
X0089195Y0069568D02*
X0103873Y0069568D01*
X0103274Y0070167D02*
X0089794Y0070167D01*
X0090200Y0070766D02*
X0102875Y0070766D01*
X0102627Y0071364D02*
X0090448Y0071364D01*
X0090643Y0071963D02*
X0102437Y0071963D01*
X0102437Y0072561D02*
X0090643Y0072561D01*
X0090643Y0073160D02*
X0102437Y0073160D01*
X0102613Y0073758D02*
X0090472Y0073758D01*
X0090224Y0074357D02*
X0102861Y0074357D01*
X0103240Y0074955D02*
X0089852Y0074955D01*
X0089253Y0075554D02*
X0103838Y0075554D01*
X0104935Y0076152D02*
X0088173Y0076152D01*
X0087599Y0078790D02*
X0086087Y0078790D01*
X0084690Y0079369D01*
X0083621Y0080438D01*
X0083043Y0081834D01*
X0083043Y0083346D01*
X0083621Y0084743D01*
X0084690Y0085812D01*
X0086087Y0086390D01*
X0087599Y0086390D01*
X0088995Y0085812D01*
X0090064Y0084743D01*
X0090643Y0083346D01*
X0090643Y0081834D01*
X0090064Y0080438D01*
X0088995Y0079369D01*
X0087599Y0078790D01*
X0088455Y0079145D02*
X0104597Y0079145D01*
X0104085Y0079357D02*
X0105481Y0078778D01*
X0106993Y0078778D01*
X0108390Y0079357D01*
X0109459Y0080426D01*
X0110037Y0081822D01*
X0110037Y0083334D01*
X0109459Y0084731D01*
X0108390Y0085800D01*
X0106993Y0086378D01*
X0105481Y0086378D01*
X0104085Y0085800D01*
X0103016Y0084731D01*
X0102437Y0083334D01*
X0102437Y0081822D01*
X0103016Y0080426D01*
X0104085Y0079357D01*
X0103698Y0079743D02*
X0089370Y0079743D01*
X0089969Y0080342D02*
X0103100Y0080342D01*
X0102803Y0080940D02*
X0090273Y0080940D01*
X0090521Y0081539D02*
X0102555Y0081539D01*
X0102437Y0082137D02*
X0090643Y0082137D01*
X0090643Y0082736D02*
X0102437Y0082736D01*
X0102437Y0083334D02*
X0090643Y0083334D01*
X0090400Y0083933D02*
X0102685Y0083933D01*
X0102933Y0084531D02*
X0090152Y0084531D01*
X0089677Y0085130D02*
X0103415Y0085130D01*
X0104013Y0085728D02*
X0089079Y0085728D01*
X0087752Y0086327D02*
X0105357Y0086327D01*
X0107117Y0086327D02*
X0115212Y0086327D01*
X0115212Y0086925D02*
X0005427Y0086925D01*
X0005426Y0086327D02*
X0085934Y0086327D01*
X0084607Y0085728D02*
X0025691Y0085728D01*
X0025943Y0085624D02*
X0024546Y0086202D01*
X0023034Y0086202D01*
X0021638Y0085624D01*
X0020569Y0084555D01*
X0019990Y0083158D01*
X0019990Y0081646D01*
X0020569Y0080250D01*
X0021638Y0079181D01*
X0023034Y0078602D01*
X0024546Y0078602D01*
X0025943Y0079181D01*
X0027012Y0080250D01*
X0027590Y0081646D01*
X0027590Y0083158D01*
X0027012Y0084555D01*
X0025943Y0085624D01*
X0026437Y0085130D02*
X0084009Y0085130D01*
X0083534Y0084531D02*
X0060139Y0084531D01*
X0059932Y0084739D02*
X0058109Y0084739D01*
X0056820Y0083450D01*
X0056820Y0081628D01*
X0058109Y0080339D01*
X0059932Y0080339D01*
X0061220Y0081628D01*
X0061220Y0083450D01*
X0059932Y0084739D01*
X0060738Y0083933D02*
X0083286Y0083933D01*
X0083043Y0083334D02*
X0061220Y0083334D01*
X0061220Y0082736D02*
X0083043Y0082736D01*
X0083043Y0082137D02*
X0072239Y0082137D01*
X0071972Y0082403D02*
X0070150Y0082403D01*
X0068861Y0081115D01*
X0068861Y0079292D01*
X0070150Y0078003D01*
X0071972Y0078003D01*
X0073261Y0079292D01*
X0073261Y0081115D01*
X0071972Y0082403D01*
X0072837Y0081539D02*
X0083165Y0081539D01*
X0083413Y0080940D02*
X0073261Y0080940D01*
X0073261Y0080342D02*
X0083717Y0080342D01*
X0084316Y0079743D02*
X0073261Y0079743D01*
X0073114Y0079145D02*
X0085231Y0079145D01*
X0085513Y0076152D02*
X0035564Y0076152D01*
X0032977Y0076152D02*
X0024667Y0076152D01*
X0024546Y0076202D02*
X0023034Y0076202D01*
X0021638Y0075624D01*
X0020569Y0074555D01*
X0019990Y0073158D01*
X0019990Y0071646D01*
X0020569Y0070250D01*
X0021638Y0069181D01*
X0023034Y0068602D01*
X0024546Y0068602D01*
X0025943Y0069181D01*
X0027012Y0070250D01*
X0027590Y0071646D01*
X0027590Y0073158D01*
X0027012Y0074555D01*
X0025943Y0075624D01*
X0024546Y0076202D01*
X0026013Y0075554D02*
X0032379Y0075554D01*
X0032071Y0074955D02*
X0026612Y0074955D01*
X0027094Y0074357D02*
X0032071Y0074357D01*
X0032071Y0073758D02*
X0027342Y0073758D01*
X0027590Y0073160D02*
X0029732Y0073160D01*
X0029133Y0072561D02*
X0027590Y0072561D01*
X0027590Y0071963D02*
X0028896Y0071963D01*
X0028896Y0071364D02*
X0027473Y0071364D01*
X0027225Y0070766D02*
X0028896Y0070766D01*
X0029157Y0070167D02*
X0026929Y0070167D01*
X0026330Y0069568D02*
X0029756Y0069568D01*
X0032275Y0068653D02*
X0032275Y0066830D01*
X0033564Y0065541D01*
X0035386Y0065541D01*
X0036675Y0066830D01*
X0036675Y0068653D01*
X0035386Y0069941D01*
X0033564Y0069941D01*
X0032275Y0068653D01*
X0032275Y0068371D02*
X0005400Y0068371D01*
X0005399Y0067773D02*
X0032275Y0067773D01*
X0032275Y0067174D02*
X0005398Y0067174D01*
X0005397Y0066576D02*
X0032529Y0066576D01*
X0033128Y0065977D02*
X0025089Y0065977D01*
X0026188Y0065379D02*
X0036851Y0065379D01*
X0036760Y0065977D02*
X0035822Y0065977D01*
X0036421Y0066576D02*
X0036760Y0066576D01*
X0036760Y0067174D02*
X0036675Y0067174D01*
X0036675Y0067773D02*
X0037240Y0067773D01*
X0037697Y0068371D02*
X0036675Y0068371D01*
X0036358Y0068970D02*
X0037098Y0068970D01*
X0036760Y0069568D02*
X0035759Y0069568D01*
X0036760Y0070167D02*
X0033213Y0070167D01*
X0033191Y0069568D02*
X0032615Y0069568D01*
X0032592Y0068970D02*
X0025434Y0068970D01*
X0022147Y0068970D02*
X0015434Y0068970D01*
X0015943Y0069181D02*
X0014546Y0068602D01*
X0013034Y0068602D01*
X0011638Y0069181D01*
X0010569Y0070250D01*
X0009990Y0071646D01*
X0009990Y0073158D01*
X0010569Y0074555D01*
X0011638Y0075624D01*
X0013034Y0076202D01*
X0014546Y0076202D01*
X0015943Y0075624D01*
X0017012Y0074555D01*
X0017590Y0073158D01*
X0017590Y0071646D01*
X0017012Y0070250D01*
X0015943Y0069181D01*
X0016330Y0069568D02*
X0021250Y0069568D01*
X0020652Y0070167D02*
X0016929Y0070167D01*
X0017225Y0070766D02*
X0020355Y0070766D01*
X0020107Y0071364D02*
X0017473Y0071364D01*
X0017590Y0071963D02*
X0019990Y0071963D01*
X0019990Y0072561D02*
X0017590Y0072561D01*
X0017590Y0073160D02*
X0019991Y0073160D01*
X0020239Y0073758D02*
X0017342Y0073758D01*
X0017094Y0074357D02*
X0020487Y0074357D01*
X0020969Y0074955D02*
X0016612Y0074955D01*
X0016013Y0075554D02*
X0021567Y0075554D01*
X0022913Y0076152D02*
X0014667Y0076152D01*
X0014546Y0078602D02*
X0015943Y0079181D01*
X0017012Y0080250D01*
X0017590Y0081646D01*
X0017590Y0083158D01*
X0017012Y0084555D01*
X0015943Y0085624D01*
X0014546Y0086202D01*
X0013034Y0086202D01*
X0011638Y0085624D01*
X0010569Y0084555D01*
X0009990Y0083158D01*
X0009990Y0081646D01*
X0010569Y0080250D01*
X0011638Y0079181D01*
X0013034Y0078602D01*
X0014546Y0078602D01*
X0015855Y0079145D02*
X0021725Y0079145D01*
X0021075Y0079743D02*
X0016505Y0079743D01*
X0017050Y0080342D02*
X0020531Y0080342D01*
X0020283Y0080940D02*
X0017298Y0080940D01*
X0017546Y0081539D02*
X0020035Y0081539D01*
X0019990Y0082137D02*
X0017590Y0082137D01*
X0017590Y0082736D02*
X0019990Y0082736D01*
X0020063Y0083334D02*
X0017517Y0083334D01*
X0017269Y0083933D02*
X0020311Y0083933D01*
X0020559Y0084531D02*
X0017021Y0084531D01*
X0016437Y0085130D02*
X0021144Y0085130D01*
X0021890Y0085728D02*
X0015691Y0085728D01*
X0014546Y0088602D02*
X0015943Y0089181D01*
X0017012Y0090250D01*
X0017590Y0091646D01*
X0017590Y0093158D01*
X0017012Y0094555D01*
X0015943Y0095624D01*
X0014546Y0096202D01*
X0013034Y0096202D01*
X0011638Y0095624D01*
X0010569Y0094555D01*
X0009990Y0093158D01*
X0009990Y0091646D01*
X0010569Y0090250D01*
X0011638Y0089181D01*
X0013034Y0088602D01*
X0014546Y0088602D01*
X0014832Y0088721D02*
X0022748Y0088721D01*
X0023034Y0088602D02*
X0021638Y0089181D01*
X0020569Y0090250D01*
X0019990Y0091646D01*
X0019990Y0093158D01*
X0020569Y0094555D01*
X0021638Y0095624D01*
X0023034Y0096202D01*
X0024546Y0096202D01*
X0025943Y0095624D01*
X0027012Y0094555D01*
X0027590Y0093158D01*
X0027590Y0091646D01*
X0027012Y0090250D01*
X0025943Y0089181D01*
X0024546Y0088602D01*
X0023034Y0088602D01*
X0024832Y0088721D02*
X0115211Y0088721D01*
X0115211Y0089319D02*
X0108299Y0089319D01*
X0108390Y0089357D02*
X0109459Y0090426D01*
X0110037Y0091822D01*
X0110037Y0093334D01*
X0109459Y0094731D01*
X0108390Y0095800D01*
X0106993Y0096378D01*
X0105481Y0096378D01*
X0104085Y0095800D01*
X0103016Y0094731D01*
X0102437Y0093334D01*
X0102437Y0091822D01*
X0103016Y0090426D01*
X0104085Y0089357D01*
X0105481Y0088778D01*
X0106993Y0088778D01*
X0108390Y0089357D01*
X0108951Y0089918D02*
X0115210Y0089918D01*
X0115210Y0090516D02*
X0109496Y0090516D01*
X0109744Y0091115D02*
X0115210Y0091115D01*
X0115210Y0091713D02*
X0109992Y0091713D01*
X0110037Y0092312D02*
X0115209Y0092312D01*
X0115209Y0092910D02*
X0110037Y0092910D01*
X0109965Y0093509D02*
X0115209Y0093509D01*
X0115209Y0094107D02*
X0109717Y0094107D01*
X0109469Y0094706D02*
X0115209Y0094706D01*
X0115208Y0095304D02*
X0108885Y0095304D01*
X0108141Y0095903D02*
X0115208Y0095903D01*
X0115208Y0096501D02*
X0005441Y0096501D01*
X0005440Y0095903D02*
X0012312Y0095903D01*
X0011318Y0095304D02*
X0005439Y0095304D01*
X0005438Y0094706D02*
X0010720Y0094706D01*
X0010383Y0094107D02*
X0005438Y0094107D01*
X0005437Y0093509D02*
X0010136Y0093509D01*
X0009990Y0092910D02*
X0005436Y0092910D01*
X0005435Y0092312D02*
X0009990Y0092312D01*
X0009990Y0091713D02*
X0005434Y0091713D01*
X0005433Y0091115D02*
X0010210Y0091115D01*
X0010458Y0090516D02*
X0005432Y0090516D01*
X0005431Y0089918D02*
X0010901Y0089918D01*
X0011499Y0089319D02*
X0005430Y0089319D01*
X0005430Y0088721D02*
X0012748Y0088721D01*
X0011890Y0085728D02*
X0005425Y0085728D01*
X0005424Y0085130D02*
X0011144Y0085130D01*
X0010559Y0084531D02*
X0005423Y0084531D01*
X0005423Y0083933D02*
X0010311Y0083933D01*
X0010063Y0083334D02*
X0005422Y0083334D01*
X0005421Y0082736D02*
X0009990Y0082736D01*
X0009990Y0082137D02*
X0005420Y0082137D01*
X0005419Y0081539D02*
X0010035Y0081539D01*
X0010283Y0080940D02*
X0005418Y0080940D01*
X0005417Y0080342D02*
X0010531Y0080342D01*
X0011075Y0079743D02*
X0005416Y0079743D01*
X0005415Y0079145D02*
X0011725Y0079145D01*
X0012913Y0076152D02*
X0005411Y0076152D01*
X0005410Y0075554D02*
X0011567Y0075554D01*
X0010969Y0074955D02*
X0005409Y0074955D01*
X0005408Y0074357D02*
X0010487Y0074357D01*
X0010239Y0073758D02*
X0005407Y0073758D01*
X0005407Y0073160D02*
X0009991Y0073160D01*
X0009990Y0072561D02*
X0005406Y0072561D01*
X0005405Y0071963D02*
X0009990Y0071963D01*
X0010107Y0071364D02*
X0005404Y0071364D01*
X0005403Y0070766D02*
X0010355Y0070766D01*
X0010652Y0070167D02*
X0005402Y0070167D01*
X0005401Y0069568D02*
X0011250Y0069568D01*
X0012147Y0068970D02*
X0005400Y0068970D01*
X0005412Y0076751D02*
X0115216Y0076751D01*
X0115215Y0077349D02*
X0032532Y0077349D01*
X0032274Y0077091D02*
X0033563Y0078380D01*
X0033563Y0079174D01*
X0035080Y0079174D01*
X0036369Y0080463D01*
X0036369Y0082286D01*
X0035080Y0083574D01*
X0033257Y0083574D01*
X0031969Y0082286D01*
X0031969Y0081491D01*
X0030451Y0081491D01*
X0029163Y0080202D01*
X0029163Y0078380D01*
X0030451Y0077091D01*
X0032274Y0077091D01*
X0033131Y0077948D02*
X0115215Y0077948D01*
X0115215Y0078546D02*
X0072515Y0078546D01*
X0069607Y0078546D02*
X0033563Y0078546D01*
X0033563Y0079145D02*
X0069009Y0079145D01*
X0068861Y0079743D02*
X0035649Y0079743D01*
X0036247Y0080342D02*
X0047772Y0080342D01*
X0048266Y0079847D02*
X0046978Y0081136D01*
X0046978Y0082958D01*
X0048266Y0084247D01*
X0050089Y0084247D01*
X0051378Y0082958D01*
X0051378Y0081136D01*
X0050089Y0079847D01*
X0048266Y0079847D01*
X0047173Y0080940D02*
X0036369Y0080940D01*
X0036369Y0081539D02*
X0046978Y0081539D01*
X0046978Y0082137D02*
X0036369Y0082137D01*
X0035919Y0082736D02*
X0046978Y0082736D01*
X0047354Y0083334D02*
X0035320Y0083334D01*
X0033017Y0083334D02*
X0027517Y0083334D01*
X0027590Y0082736D02*
X0032419Y0082736D01*
X0031969Y0082137D02*
X0027590Y0082137D01*
X0027546Y0081539D02*
X0031969Y0081539D01*
X0029901Y0080940D02*
X0027298Y0080940D01*
X0027050Y0080342D02*
X0029302Y0080342D01*
X0029163Y0079743D02*
X0026505Y0079743D01*
X0025855Y0079145D02*
X0029163Y0079145D01*
X0029163Y0078546D02*
X0005415Y0078546D01*
X0005414Y0077948D02*
X0029595Y0077948D01*
X0030193Y0077349D02*
X0005413Y0077349D01*
X0005428Y0087524D02*
X0115211Y0087524D01*
X0115211Y0088122D02*
X0005429Y0088122D01*
X0005442Y0097100D02*
X0115208Y0097100D01*
X0115207Y0097699D02*
X0005443Y0097699D01*
X0005444Y0098297D02*
X0115207Y0098297D01*
X0115207Y0098896D02*
X0107276Y0098896D01*
X0106993Y0098778D02*
X0108390Y0099357D01*
X0109459Y0100426D01*
X0110037Y0101822D01*
X0110037Y0103334D01*
X0109459Y0104731D01*
X0108390Y0105800D01*
X0106993Y0106378D01*
X0105481Y0106378D01*
X0104085Y0105800D01*
X0103016Y0104731D01*
X0102437Y0103334D01*
X0102437Y0101822D01*
X0103016Y0100426D01*
X0104085Y0099357D01*
X0105481Y0098778D01*
X0106993Y0098778D01*
X0105198Y0098896D02*
X0087853Y0098896D01*
X0087599Y0098790D02*
X0088995Y0099369D01*
X0090064Y0100438D01*
X0090643Y0101834D01*
X0090643Y0103346D01*
X0090064Y0104743D01*
X0088995Y0105812D01*
X0087599Y0106390D01*
X0086087Y0106390D01*
X0084690Y0105812D01*
X0083621Y0104743D01*
X0083043Y0103346D01*
X0083043Y0101834D01*
X0083621Y0100438D01*
X0084690Y0099369D01*
X0086087Y0098790D01*
X0087599Y0098790D01*
X0089121Y0099494D02*
X0103947Y0099494D01*
X0103349Y0100093D02*
X0089719Y0100093D01*
X0090169Y0100691D02*
X0102906Y0100691D01*
X0102658Y0101290D02*
X0090417Y0101290D01*
X0090643Y0101888D02*
X0102437Y0101888D01*
X0102437Y0102487D02*
X0090643Y0102487D01*
X0090643Y0103085D02*
X0102437Y0103085D01*
X0102582Y0103684D02*
X0090503Y0103684D01*
X0090255Y0104282D02*
X0102830Y0104282D01*
X0103165Y0104881D02*
X0089926Y0104881D01*
X0089328Y0105479D02*
X0103764Y0105479D01*
X0104755Y0106078D02*
X0088353Y0106078D01*
X0087599Y0108790D02*
X0086087Y0108790D01*
X0084690Y0109369D01*
X0083621Y0110438D01*
X0083043Y0111834D01*
X0083043Y0113346D01*
X0083621Y0114743D01*
X0084690Y0115812D01*
X0086087Y0116390D01*
X0087599Y0116390D01*
X0088995Y0115812D01*
X0090064Y0114743D01*
X0090643Y0113346D01*
X0090643Y0111834D01*
X0090064Y0110438D01*
X0088995Y0109369D01*
X0087599Y0108790D01*
X0088275Y0109070D02*
X0104776Y0109070D01*
X0104085Y0109357D02*
X0105481Y0108778D01*
X0106993Y0108778D01*
X0108390Y0109357D01*
X0109459Y0110426D01*
X0110037Y0111822D01*
X0110037Y0113334D01*
X0109459Y0114731D01*
X0108390Y0115800D01*
X0106993Y0116378D01*
X0105481Y0116378D01*
X0104085Y0115800D01*
X0103016Y0114731D01*
X0102437Y0113334D01*
X0102437Y0111822D01*
X0103016Y0110426D01*
X0104085Y0109357D01*
X0103773Y0109669D02*
X0089296Y0109669D01*
X0089894Y0110267D02*
X0103174Y0110267D01*
X0102833Y0110866D02*
X0090242Y0110866D01*
X0090490Y0111464D02*
X0102585Y0111464D01*
X0102437Y0112063D02*
X0090643Y0112063D01*
X0090643Y0112661D02*
X0102437Y0112661D01*
X0102437Y0113260D02*
X0090643Y0113260D01*
X0090431Y0113858D02*
X0102654Y0113858D01*
X0102902Y0114457D02*
X0090183Y0114457D01*
X0089752Y0115055D02*
X0103340Y0115055D01*
X0103939Y0115654D02*
X0089153Y0115654D01*
X0087931Y0116252D02*
X0105177Y0116252D01*
X0107297Y0116252D02*
X0115200Y0116252D01*
X0115200Y0115654D02*
X0108536Y0115654D01*
X0109134Y0115055D02*
X0115201Y0115055D01*
X0115201Y0114457D02*
X0109572Y0114457D01*
X0109820Y0113858D02*
X0115201Y0113858D01*
X0115201Y0113260D02*
X0110037Y0113260D01*
X0110037Y0112661D02*
X0115202Y0112661D01*
X0115202Y0112063D02*
X0110037Y0112063D01*
X0109889Y0111464D02*
X0115202Y0111464D01*
X0115202Y0110866D02*
X0109641Y0110866D01*
X0109300Y0110267D02*
X0115203Y0110267D01*
X0115203Y0109669D02*
X0108702Y0109669D01*
X0107698Y0109070D02*
X0115203Y0109070D01*
X0115203Y0108472D02*
X0005459Y0108472D01*
X0005460Y0109070D02*
X0011905Y0109070D01*
X0011638Y0109181D02*
X0013034Y0108602D01*
X0014546Y0108602D01*
X0015943Y0109181D01*
X0017012Y0110250D01*
X0017590Y0111646D01*
X0017590Y0113158D01*
X0017012Y0114555D01*
X0015943Y0115624D01*
X0014546Y0116202D01*
X0013034Y0116202D01*
X0011638Y0115624D01*
X0010569Y0114555D01*
X0009990Y0113158D01*
X0009990Y0111646D01*
X0010569Y0110250D01*
X0011638Y0109181D01*
X0011150Y0109669D02*
X0005461Y0109669D01*
X0005461Y0110267D02*
X0010562Y0110267D01*
X0010314Y0110866D02*
X0005462Y0110866D01*
X0005463Y0111464D02*
X0010066Y0111464D01*
X0009990Y0112063D02*
X0005464Y0112063D01*
X0005465Y0112661D02*
X0009990Y0112661D01*
X0010032Y0113260D02*
X0005466Y0113260D01*
X0005467Y0113858D02*
X0010280Y0113858D01*
X0010528Y0114457D02*
X0005468Y0114457D01*
X0005468Y0115055D02*
X0011069Y0115055D01*
X0011710Y0115654D02*
X0005469Y0115654D01*
X0005470Y0116252D02*
X0085755Y0116252D01*
X0084533Y0115654D02*
X0025870Y0115654D01*
X0025943Y0115624D02*
X0024546Y0116202D01*
X0023034Y0116202D01*
X0021638Y0115624D01*
X0020569Y0114555D01*
X0019990Y0113158D01*
X0019990Y0111646D01*
X0020569Y0110250D01*
X0021638Y0109181D01*
X0023034Y0108602D01*
X0024546Y0108602D01*
X0025943Y0109181D01*
X0027012Y0110250D01*
X0027590Y0111646D01*
X0027590Y0113158D01*
X0027012Y0114555D01*
X0025943Y0115624D01*
X0026511Y0115055D02*
X0083934Y0115055D01*
X0083503Y0114457D02*
X0027052Y0114457D01*
X0027300Y0113858D02*
X0083255Y0113858D01*
X0083043Y0113260D02*
X0027548Y0113260D01*
X0027590Y0112661D02*
X0083043Y0112661D01*
X0083043Y0112063D02*
X0027590Y0112063D01*
X0027515Y0111464D02*
X0083196Y0111464D01*
X0083444Y0110866D02*
X0027267Y0110866D01*
X0027019Y0110267D02*
X0083792Y0110267D01*
X0084390Y0109669D02*
X0026431Y0109669D01*
X0025676Y0109070D02*
X0085411Y0109070D01*
X0085333Y0106078D02*
X0024847Y0106078D01*
X0024546Y0106202D02*
X0023034Y0106202D01*
X0021638Y0105624D01*
X0020569Y0104555D01*
X0019990Y0103158D01*
X0019990Y0101646D01*
X0020569Y0100250D01*
X0021638Y0099181D01*
X0023034Y0098602D01*
X0024546Y0098602D01*
X0025943Y0099181D01*
X0027012Y0100250D01*
X0027590Y0101646D01*
X0027590Y0103158D01*
X0027012Y0104555D01*
X0025943Y0105624D01*
X0024546Y0106202D01*
X0026087Y0105479D02*
X0084358Y0105479D01*
X0083760Y0104881D02*
X0026686Y0104881D01*
X0027125Y0104282D02*
X0083431Y0104282D01*
X0083183Y0103684D02*
X0027373Y0103684D01*
X0027590Y0103085D02*
X0065038Y0103085D01*
X0065491Y0103538D02*
X0064202Y0102249D01*
X0064202Y0100427D01*
X0065491Y0099138D01*
X0067313Y0099138D01*
X0068602Y0100427D01*
X0068602Y0102249D01*
X0067313Y0103538D01*
X0065491Y0103538D01*
X0064439Y0102487D02*
X0027590Y0102487D01*
X0027590Y0101888D02*
X0064202Y0101888D01*
X0064202Y0101290D02*
X0027442Y0101290D01*
X0027194Y0100691D02*
X0064202Y0100691D01*
X0064536Y0100093D02*
X0026854Y0100093D01*
X0026256Y0099494D02*
X0065135Y0099494D01*
X0067669Y0099494D02*
X0084565Y0099494D01*
X0083966Y0100093D02*
X0068268Y0100093D01*
X0068602Y0100691D02*
X0083516Y0100691D01*
X0083269Y0101290D02*
X0068602Y0101290D01*
X0068602Y0101888D02*
X0083043Y0101888D01*
X0083043Y0102487D02*
X0068365Y0102487D01*
X0067766Y0103085D02*
X0083043Y0103085D01*
X0085832Y0098896D02*
X0025254Y0098896D01*
X0025269Y0095903D02*
X0084911Y0095903D01*
X0084690Y0095812D02*
X0083621Y0094743D01*
X0083043Y0093346D01*
X0083043Y0091834D01*
X0083621Y0090438D01*
X0084690Y0089369D01*
X0086087Y0088790D01*
X0087599Y0088790D01*
X0088995Y0089369D01*
X0090064Y0090438D01*
X0090643Y0091834D01*
X0090643Y0093346D01*
X0090064Y0094743D01*
X0088995Y0095812D01*
X0087599Y0096390D01*
X0086087Y0096390D01*
X0084690Y0095812D01*
X0084183Y0095304D02*
X0026262Y0095304D01*
X0026861Y0094706D02*
X0083606Y0094706D01*
X0083358Y0094107D02*
X0027197Y0094107D01*
X0027445Y0093509D02*
X0057529Y0093509D01*
X0058109Y0094089D02*
X0056820Y0092801D01*
X0056820Y0090978D01*
X0058109Y0089689D01*
X0059932Y0089689D01*
X0061220Y0090978D01*
X0061220Y0092801D01*
X0059932Y0094089D01*
X0058109Y0094089D01*
X0056930Y0092910D02*
X0027590Y0092910D01*
X0027590Y0092312D02*
X0056820Y0092312D01*
X0056820Y0091713D02*
X0027590Y0091713D01*
X0027370Y0091115D02*
X0056820Y0091115D01*
X0057282Y0090516D02*
X0027122Y0090516D01*
X0026680Y0089918D02*
X0057880Y0089918D01*
X0060160Y0089918D02*
X0084141Y0089918D01*
X0083589Y0090516D02*
X0060759Y0090516D01*
X0061220Y0091115D02*
X0083341Y0091115D01*
X0083093Y0091713D02*
X0061220Y0091713D01*
X0061220Y0092312D02*
X0083043Y0092312D01*
X0083043Y0092910D02*
X0061110Y0092910D01*
X0060512Y0093509D02*
X0083110Y0093509D01*
X0084809Y0089319D02*
X0026081Y0089319D01*
X0027021Y0084531D02*
X0057901Y0084531D01*
X0057303Y0083933D02*
X0050403Y0083933D01*
X0051002Y0083334D02*
X0056820Y0083334D01*
X0056820Y0082736D02*
X0051378Y0082736D01*
X0051378Y0082137D02*
X0056820Y0082137D01*
X0056909Y0081539D02*
X0051378Y0081539D01*
X0051182Y0080940D02*
X0057508Y0080940D01*
X0058106Y0080342D02*
X0050584Y0080342D01*
X0047952Y0083933D02*
X0027269Y0083933D01*
X0021499Y0089319D02*
X0016081Y0089319D01*
X0016680Y0089918D02*
X0020901Y0089918D01*
X0020458Y0090516D02*
X0017122Y0090516D01*
X0017370Y0091115D02*
X0020210Y0091115D01*
X0019990Y0091713D02*
X0017590Y0091713D01*
X0017590Y0092312D02*
X0019990Y0092312D01*
X0019990Y0092910D02*
X0017590Y0092910D01*
X0017445Y0093509D02*
X0020136Y0093509D01*
X0020383Y0094107D02*
X0017197Y0094107D01*
X0016861Y0094706D02*
X0020720Y0094706D01*
X0021318Y0095304D02*
X0016262Y0095304D01*
X0015269Y0095903D02*
X0022312Y0095903D01*
X0022327Y0098896D02*
X0015254Y0098896D01*
X0015943Y0099181D02*
X0014546Y0098602D01*
X0013034Y0098602D01*
X0011638Y0099181D01*
X0010569Y0100250D01*
X0009990Y0101646D01*
X0009990Y0103158D01*
X0010569Y0104555D01*
X0011638Y0105624D01*
X0013034Y0106202D01*
X0014546Y0106202D01*
X0015943Y0105624D01*
X0017012Y0104555D01*
X0017590Y0103158D01*
X0017590Y0101646D01*
X0017012Y0100250D01*
X0015943Y0099181D01*
X0016256Y0099494D02*
X0021325Y0099494D01*
X0020726Y0100093D02*
X0016854Y0100093D01*
X0017194Y0100691D02*
X0020386Y0100691D01*
X0020138Y0101290D02*
X0017442Y0101290D01*
X0017590Y0101888D02*
X0019990Y0101888D01*
X0019990Y0102487D02*
X0017590Y0102487D01*
X0017590Y0103085D02*
X0019990Y0103085D01*
X0020208Y0103684D02*
X0017373Y0103684D01*
X0017125Y0104282D02*
X0020456Y0104282D01*
X0020895Y0104881D02*
X0016686Y0104881D01*
X0016087Y0105479D02*
X0021493Y0105479D01*
X0022733Y0106078D02*
X0014847Y0106078D01*
X0012733Y0106078D02*
X0005455Y0106078D01*
X0005456Y0106676D02*
X0115204Y0106676D01*
X0115204Y0106078D02*
X0107719Y0106078D01*
X0108710Y0105479D02*
X0115204Y0105479D01*
X0115205Y0104881D02*
X0109309Y0104881D01*
X0109644Y0104282D02*
X0115205Y0104282D01*
X0115205Y0103684D02*
X0109892Y0103684D01*
X0110037Y0103085D02*
X0115205Y0103085D01*
X0115206Y0102487D02*
X0110037Y0102487D01*
X0110037Y0101888D02*
X0115206Y0101888D01*
X0115206Y0101290D02*
X0109816Y0101290D01*
X0109568Y0100691D02*
X0115206Y0100691D01*
X0115206Y0100093D02*
X0109125Y0100093D01*
X0108527Y0099494D02*
X0115207Y0099494D01*
X0115204Y0107275D02*
X0005457Y0107275D01*
X0005458Y0107873D02*
X0115203Y0107873D01*
X0115200Y0116851D02*
X0005471Y0116851D01*
X0005472Y0117449D02*
X0115200Y0117449D01*
X0115200Y0118048D02*
X0050872Y0118048D01*
X0050316Y0117817D02*
X0051593Y0118346D01*
X0052570Y0119323D01*
X0053098Y0120600D01*
X0053098Y0121982D01*
X0052570Y0123258D01*
X0051593Y0124235D01*
X0050316Y0124764D01*
X0048934Y0124764D01*
X0047658Y0124235D01*
X0046681Y0123258D01*
X0046152Y0121982D01*
X0046152Y0120600D01*
X0046681Y0119323D01*
X0047658Y0118346D01*
X0048934Y0117817D01*
X0050316Y0117817D01*
X0048378Y0118048D02*
X0005473Y0118048D01*
X0005474Y0118646D02*
X0012928Y0118646D01*
X0013034Y0118602D02*
X0014546Y0118602D01*
X0015943Y0119181D01*
X0017012Y0120250D01*
X0017590Y0121646D01*
X0017590Y0123158D01*
X0017012Y0124555D01*
X0015943Y0125624D01*
X0014546Y0126202D01*
X0013034Y0126202D01*
X0011638Y0125624D01*
X0010569Y0124555D01*
X0009990Y0123158D01*
X0009990Y0121646D01*
X0010569Y0120250D01*
X0011638Y0119181D01*
X0013034Y0118602D01*
X0011574Y0119245D02*
X0005475Y0119245D01*
X0005476Y0119843D02*
X0010975Y0119843D01*
X0010489Y0120442D02*
X0005476Y0120442D01*
X0005477Y0121040D02*
X0010241Y0121040D01*
X0009993Y0121639D02*
X0005478Y0121639D01*
X0005479Y0122237D02*
X0009990Y0122237D01*
X0009990Y0122836D02*
X0005480Y0122836D01*
X0005481Y0123434D02*
X0010105Y0123434D01*
X0010353Y0124033D02*
X0005482Y0124033D01*
X0005483Y0124632D02*
X0010645Y0124632D01*
X0011244Y0125230D02*
X0005484Y0125230D01*
X0005484Y0125829D02*
X0012132Y0125829D01*
X0013034Y0128602D02*
X0011638Y0129181D01*
X0010569Y0130250D01*
X0009990Y0131646D01*
X0009990Y0133158D01*
X0010569Y0134555D01*
X0011638Y0135624D01*
X0013034Y0136202D01*
X0014546Y0136202D01*
X0015943Y0135624D01*
X0017012Y0134555D01*
X0017590Y0133158D01*
X0017590Y0131646D01*
X0017012Y0130250D01*
X0015943Y0129181D01*
X0014546Y0128602D01*
X0013034Y0128602D01*
X0012506Y0128821D02*
X0005489Y0128821D01*
X0005488Y0128223D02*
X0115196Y0128223D01*
X0115195Y0128821D02*
X0107096Y0128821D01*
X0106993Y0128778D02*
X0108390Y0129357D01*
X0109459Y0130426D01*
X0110037Y0131822D01*
X0110037Y0133334D01*
X0109459Y0134731D01*
X0108390Y0135800D01*
X0106993Y0136378D01*
X0105481Y0136378D01*
X0104085Y0135800D01*
X0103016Y0134731D01*
X0102437Y0133334D01*
X0102437Y0131822D01*
X0103016Y0130426D01*
X0104085Y0129357D01*
X0105481Y0128778D01*
X0106993Y0128778D01*
X0108452Y0129420D02*
X0115195Y0129420D01*
X0115195Y0130018D02*
X0109051Y0130018D01*
X0109538Y0130617D02*
X0115195Y0130617D01*
X0115194Y0131215D02*
X0109786Y0131215D01*
X0110033Y0131814D02*
X0115194Y0131814D01*
X0115194Y0132412D02*
X0110037Y0132412D01*
X0110037Y0133011D02*
X0115194Y0133011D01*
X0115194Y0133609D02*
X0109923Y0133609D01*
X0109675Y0134208D02*
X0115193Y0134208D01*
X0115193Y0134806D02*
X0109383Y0134806D01*
X0108785Y0135405D02*
X0115193Y0135405D01*
X0115193Y0136003D02*
X0107898Y0136003D01*
X0106993Y0138778D02*
X0105481Y0138778D01*
X0104085Y0139357D01*
X0103016Y0140426D01*
X0102437Y0141822D01*
X0102437Y0143334D01*
X0103016Y0144731D01*
X0104085Y0145800D01*
X0105481Y0146378D01*
X0106993Y0146378D01*
X0108390Y0145800D01*
X0109459Y0144731D01*
X0110037Y0143334D01*
X0110037Y0141822D01*
X0109459Y0140426D01*
X0108390Y0139357D01*
X0106993Y0138778D01*
X0107518Y0138996D02*
X0115191Y0138996D01*
X0115191Y0139594D02*
X0108627Y0139594D01*
X0109226Y0140193D02*
X0115191Y0140193D01*
X0115191Y0140791D02*
X0109610Y0140791D01*
X0109858Y0141390D02*
X0115191Y0141390D01*
X0115190Y0141988D02*
X0110037Y0141988D01*
X0110037Y0142587D02*
X0115190Y0142587D01*
X0115190Y0143185D02*
X0110037Y0143185D01*
X0109851Y0143784D02*
X0115190Y0143784D01*
X0115189Y0144382D02*
X0109603Y0144382D01*
X0109209Y0144981D02*
X0115189Y0144981D01*
X0115189Y0145579D02*
X0108610Y0145579D01*
X0107477Y0146178D02*
X0115189Y0146178D01*
X0115188Y0146776D02*
X0005515Y0146776D01*
X0005514Y0146178D02*
X0012975Y0146178D01*
X0013034Y0146202D02*
X0011638Y0145624D01*
X0010569Y0144555D01*
X0009990Y0143158D01*
X0009990Y0141646D01*
X0010569Y0140250D01*
X0011638Y0139181D01*
X0013034Y0138602D01*
X0014546Y0138602D01*
X0015943Y0139181D01*
X0017012Y0140250D01*
X0017590Y0141646D01*
X0017590Y0143158D01*
X0017012Y0144555D01*
X0015943Y0145624D01*
X0014546Y0146202D01*
X0013034Y0146202D01*
X0011593Y0145579D02*
X0005514Y0145579D01*
X0005513Y0144981D02*
X0010995Y0144981D01*
X0010497Y0144382D02*
X0005512Y0144382D01*
X0005511Y0143784D02*
X0010249Y0143784D01*
X0010002Y0143185D02*
X0005510Y0143185D01*
X0005509Y0142587D02*
X0009990Y0142587D01*
X0009990Y0141988D02*
X0005508Y0141988D01*
X0005507Y0141390D02*
X0010097Y0141390D01*
X0010344Y0140791D02*
X0005507Y0140791D01*
X0005506Y0140193D02*
X0010626Y0140193D01*
X0011224Y0139594D02*
X0005505Y0139594D01*
X0005504Y0138996D02*
X0012085Y0138996D01*
X0012554Y0136003D02*
X0005499Y0136003D01*
X0005499Y0135405D02*
X0011419Y0135405D01*
X0010820Y0134806D02*
X0005498Y0134806D01*
X0005497Y0134208D02*
X0010425Y0134208D01*
X0010177Y0133609D02*
X0005496Y0133609D01*
X0005495Y0133011D02*
X0009990Y0133011D01*
X0009990Y0132412D02*
X0005494Y0132412D01*
X0005493Y0131814D02*
X0009990Y0131814D01*
X0010169Y0131215D02*
X0005492Y0131215D01*
X0005491Y0130617D02*
X0010417Y0130617D01*
X0010800Y0130018D02*
X0005491Y0130018D01*
X0005490Y0129420D02*
X0011399Y0129420D01*
X0015074Y0128821D02*
X0022506Y0128821D01*
X0023034Y0128602D02*
X0021638Y0129181D01*
X0020569Y0130250D01*
X0019990Y0131646D01*
X0019990Y0133158D01*
X0020569Y0134555D01*
X0021638Y0135624D01*
X0023034Y0136202D01*
X0024546Y0136202D01*
X0025943Y0135624D01*
X0027012Y0134555D01*
X0027590Y0133158D01*
X0027590Y0131646D01*
X0027012Y0130250D01*
X0025943Y0129181D01*
X0024546Y0128602D01*
X0023034Y0128602D01*
X0025074Y0128821D02*
X0086012Y0128821D01*
X0086087Y0128790D02*
X0087599Y0128790D01*
X0088995Y0129369D01*
X0090064Y0130438D01*
X0090643Y0131834D01*
X0090643Y0133346D01*
X0090064Y0134743D01*
X0088995Y0135812D01*
X0087599Y0136390D01*
X0086087Y0136390D01*
X0084690Y0135812D01*
X0083621Y0134743D01*
X0083043Y0133346D01*
X0083043Y0131834D01*
X0083621Y0130438D01*
X0084690Y0129369D01*
X0086087Y0128790D01*
X0084639Y0129420D02*
X0026182Y0129420D01*
X0026780Y0130018D02*
X0084041Y0130018D01*
X0083547Y0130617D02*
X0027164Y0130617D01*
X0027412Y0131215D02*
X0083299Y0131215D01*
X0083051Y0131814D02*
X0027590Y0131814D01*
X0027590Y0132412D02*
X0083043Y0132412D01*
X0083043Y0133011D02*
X0027590Y0133011D01*
X0027403Y0133609D02*
X0083152Y0133609D01*
X0083400Y0134208D02*
X0027156Y0134208D01*
X0026760Y0134806D02*
X0083685Y0134806D01*
X0084284Y0135405D02*
X0026162Y0135405D01*
X0025027Y0136003D02*
X0085153Y0136003D01*
X0086087Y0138790D02*
X0084690Y0139369D01*
X0083621Y0140438D01*
X0083043Y0141834D01*
X0083043Y0143346D01*
X0083621Y0144743D01*
X0084690Y0145812D01*
X0086087Y0146390D01*
X0087599Y0146390D01*
X0088995Y0145812D01*
X0090064Y0144743D01*
X0090643Y0143346D01*
X0090643Y0141834D01*
X0090064Y0140438D01*
X0088995Y0139369D01*
X0087599Y0138790D01*
X0086087Y0138790D01*
X0085590Y0138996D02*
X0052768Y0138996D01*
X0053008Y0139574D02*
X0052479Y0138298D01*
X0051502Y0137321D01*
X0050226Y0136792D01*
X0048844Y0136792D01*
X0047567Y0137321D01*
X0046590Y0138298D01*
X0046062Y0139574D01*
X0046062Y0140956D01*
X0046590Y0142233D01*
X0047567Y0143210D01*
X0048844Y0143739D01*
X0050226Y0143739D01*
X0051502Y0143210D01*
X0052479Y0142233D01*
X0053008Y0140956D01*
X0053008Y0139574D01*
X0053008Y0139594D02*
X0084465Y0139594D01*
X0083866Y0140193D02*
X0053008Y0140193D01*
X0053008Y0140791D02*
X0083475Y0140791D01*
X0083227Y0141390D02*
X0052828Y0141390D01*
X0052581Y0141988D02*
X0083043Y0141988D01*
X0083043Y0142587D02*
X0052125Y0142587D01*
X0051527Y0143185D02*
X0083043Y0143185D01*
X0083224Y0143784D02*
X0027331Y0143784D01*
X0027083Y0144382D02*
X0083472Y0144382D01*
X0083860Y0144981D02*
X0026586Y0144981D01*
X0027012Y0144555D02*
X0025943Y0145624D01*
X0024546Y0146202D01*
X0023034Y0146202D01*
X0021638Y0145624D01*
X0020569Y0144555D01*
X0019990Y0143158D01*
X0019990Y0141646D01*
X0020569Y0140250D01*
X0021638Y0139181D01*
X0023034Y0138602D01*
X0024546Y0138602D01*
X0025943Y0139181D01*
X0027012Y0140250D01*
X0027590Y0141646D01*
X0027590Y0143158D01*
X0027012Y0144555D01*
X0025987Y0145579D02*
X0084458Y0145579D01*
X0085575Y0146178D02*
X0024605Y0146178D01*
X0022975Y0146178D02*
X0014605Y0146178D01*
X0015987Y0145579D02*
X0021593Y0145579D01*
X0020995Y0144981D02*
X0016586Y0144981D01*
X0017083Y0144382D02*
X0020497Y0144382D01*
X0020249Y0143784D02*
X0017331Y0143784D01*
X0017579Y0143185D02*
X0020002Y0143185D01*
X0019990Y0142587D02*
X0017590Y0142587D01*
X0017590Y0141988D02*
X0019990Y0141988D01*
X0020097Y0141390D02*
X0017484Y0141390D01*
X0017236Y0140791D02*
X0020344Y0140791D01*
X0020626Y0140193D02*
X0016955Y0140193D01*
X0016356Y0139594D02*
X0021224Y0139594D01*
X0022085Y0138996D02*
X0015496Y0138996D01*
X0015027Y0136003D02*
X0022554Y0136003D01*
X0021419Y0135405D02*
X0016162Y0135405D01*
X0016760Y0134806D02*
X0020820Y0134806D01*
X0020425Y0134208D02*
X0017156Y0134208D01*
X0017403Y0133609D02*
X0020177Y0133609D01*
X0019990Y0133011D02*
X0017590Y0133011D01*
X0017590Y0132412D02*
X0019990Y0132412D01*
X0019990Y0131814D02*
X0017590Y0131814D01*
X0017412Y0131215D02*
X0020169Y0131215D01*
X0020417Y0130617D02*
X0017164Y0130617D01*
X0016780Y0130018D02*
X0020800Y0130018D01*
X0021399Y0129420D02*
X0016182Y0129420D01*
X0015449Y0125829D02*
X0022132Y0125829D01*
X0021638Y0125624D02*
X0020569Y0124555D01*
X0019990Y0123158D01*
X0019990Y0121646D01*
X0020569Y0120250D01*
X0021638Y0119181D01*
X0023034Y0118602D01*
X0024546Y0118602D01*
X0025943Y0119181D01*
X0027012Y0120250D01*
X0027590Y0121646D01*
X0027590Y0123158D01*
X0027012Y0124555D01*
X0025943Y0125624D01*
X0024546Y0126202D01*
X0023034Y0126202D01*
X0021638Y0125624D01*
X0021244Y0125230D02*
X0016337Y0125230D01*
X0016935Y0124632D02*
X0020645Y0124632D01*
X0020353Y0124033D02*
X0017228Y0124033D01*
X0017476Y0123434D02*
X0020105Y0123434D01*
X0019990Y0122836D02*
X0017590Y0122836D01*
X0017590Y0122237D02*
X0019990Y0122237D01*
X0019993Y0121639D02*
X0017587Y0121639D01*
X0017339Y0121040D02*
X0020241Y0121040D01*
X0020489Y0120442D02*
X0017091Y0120442D01*
X0016605Y0119843D02*
X0020975Y0119843D01*
X0021574Y0119245D02*
X0016007Y0119245D01*
X0014652Y0118646D02*
X0022928Y0118646D01*
X0024652Y0118646D02*
X0047358Y0118646D01*
X0046759Y0119245D02*
X0026007Y0119245D01*
X0026605Y0119843D02*
X0046465Y0119843D01*
X0046217Y0120442D02*
X0027091Y0120442D01*
X0027339Y0121040D02*
X0046152Y0121040D01*
X0046152Y0121639D02*
X0027587Y0121639D01*
X0027590Y0122237D02*
X0046258Y0122237D01*
X0046506Y0122836D02*
X0027590Y0122836D01*
X0027476Y0123434D02*
X0046857Y0123434D01*
X0047456Y0124033D02*
X0027228Y0124033D01*
X0026935Y0124632D02*
X0048615Y0124632D01*
X0050636Y0124632D02*
X0083575Y0124632D01*
X0083621Y0124743D02*
X0083043Y0123346D01*
X0083043Y0121834D01*
X0083621Y0120438D01*
X0084690Y0119369D01*
X0086087Y0118790D01*
X0087599Y0118790D01*
X0088995Y0119369D01*
X0090064Y0120438D01*
X0090643Y0121834D01*
X0090643Y0123346D01*
X0090064Y0124743D01*
X0088995Y0125812D01*
X0087599Y0126390D01*
X0086087Y0126390D01*
X0084690Y0125812D01*
X0083621Y0124743D01*
X0084109Y0125230D02*
X0026337Y0125230D01*
X0025449Y0125829D02*
X0084731Y0125829D01*
X0083328Y0124033D02*
X0051795Y0124033D01*
X0052393Y0123434D02*
X0083080Y0123434D01*
X0083043Y0122836D02*
X0052744Y0122836D01*
X0052992Y0122237D02*
X0083043Y0122237D01*
X0083124Y0121639D02*
X0053098Y0121639D01*
X0053098Y0121040D02*
X0083372Y0121040D01*
X0083620Y0120442D02*
X0053033Y0120442D01*
X0052785Y0119843D02*
X0084216Y0119843D01*
X0084989Y0119245D02*
X0052491Y0119245D01*
X0051893Y0118646D02*
X0115199Y0118646D01*
X0115199Y0119245D02*
X0108119Y0119245D01*
X0108390Y0119357D02*
X0109459Y0120426D01*
X0110037Y0121822D01*
X0110037Y0123334D01*
X0109459Y0124731D01*
X0108390Y0125800D01*
X0106993Y0126378D01*
X0105481Y0126378D01*
X0104085Y0125800D01*
X0103016Y0124731D01*
X0102437Y0123334D01*
X0102437Y0121822D01*
X0103016Y0120426D01*
X0104085Y0119357D01*
X0105481Y0118778D01*
X0106993Y0118778D01*
X0108390Y0119357D01*
X0108876Y0119843D02*
X0115199Y0119843D01*
X0115199Y0120442D02*
X0109465Y0120442D01*
X0109713Y0121040D02*
X0115198Y0121040D01*
X0115198Y0121639D02*
X0109961Y0121639D01*
X0110037Y0122237D02*
X0115198Y0122237D01*
X0115198Y0122836D02*
X0110037Y0122836D01*
X0109996Y0123434D02*
X0115197Y0123434D01*
X0115197Y0124033D02*
X0109748Y0124033D01*
X0109500Y0124632D02*
X0115197Y0124632D01*
X0115197Y0125230D02*
X0108959Y0125230D01*
X0108320Y0125829D02*
X0115197Y0125829D01*
X0115196Y0126427D02*
X0005485Y0126427D01*
X0005486Y0127026D02*
X0115196Y0127026D01*
X0115196Y0127624D02*
X0005487Y0127624D01*
X0005500Y0136602D02*
X0115192Y0136602D01*
X0115192Y0137200D02*
X0051211Y0137200D01*
X0051980Y0137799D02*
X0115192Y0137799D01*
X0115192Y0138397D02*
X0052520Y0138397D01*
X0047859Y0137200D02*
X0005501Y0137200D01*
X0005502Y0137799D02*
X0047089Y0137799D01*
X0046549Y0138397D02*
X0005503Y0138397D01*
X0005516Y0147375D02*
X0115188Y0147375D01*
X0115188Y0147973D02*
X0005517Y0147973D01*
X0005518Y0148572D02*
X0115188Y0148572D01*
X0115188Y0149170D02*
X0107940Y0149170D01*
X0108390Y0149357D02*
X0109459Y0150426D01*
X0110037Y0151822D01*
X0110037Y0153334D01*
X0109459Y0154731D01*
X0108390Y0155800D01*
X0106993Y0156378D01*
X0105481Y0156378D01*
X0104085Y0155800D01*
X0103016Y0154731D01*
X0102437Y0153334D01*
X0102437Y0151822D01*
X0103016Y0150426D01*
X0104085Y0149357D01*
X0105481Y0148778D01*
X0106993Y0148778D01*
X0108390Y0149357D01*
X0108802Y0149769D02*
X0115187Y0149769D01*
X0115187Y0150368D02*
X0109400Y0150368D01*
X0109682Y0150966D02*
X0115187Y0150966D01*
X0115187Y0151565D02*
X0109930Y0151565D01*
X0110037Y0152163D02*
X0115186Y0152163D01*
X0115186Y0152762D02*
X0110037Y0152762D01*
X0110026Y0153360D02*
X0115186Y0153360D01*
X0115186Y0153959D02*
X0109778Y0153959D01*
X0109531Y0154557D02*
X0115185Y0154557D01*
X0115185Y0155156D02*
X0109034Y0155156D01*
X0108435Y0155754D02*
X0115185Y0155754D01*
X0115185Y0156353D02*
X0107055Y0156353D01*
X0105419Y0156353D02*
X0087689Y0156353D01*
X0087599Y0156390D02*
X0086087Y0156390D01*
X0084690Y0155812D01*
X0083621Y0154743D01*
X0083043Y0153346D01*
X0083043Y0151834D01*
X0083621Y0150438D01*
X0084690Y0149369D01*
X0086087Y0148790D01*
X0087599Y0148790D01*
X0088995Y0149369D01*
X0090064Y0150438D01*
X0090643Y0151834D01*
X0090643Y0153346D01*
X0090064Y0154743D01*
X0088995Y0155812D01*
X0087599Y0156390D01*
X0089053Y0155754D02*
X0104039Y0155754D01*
X0103440Y0155156D02*
X0089651Y0155156D01*
X0090141Y0154557D02*
X0102944Y0154557D01*
X0102696Y0153959D02*
X0090389Y0153959D01*
X0090637Y0153360D02*
X0102448Y0153360D01*
X0102437Y0152762D02*
X0090643Y0152762D01*
X0090643Y0152163D02*
X0102437Y0152163D01*
X0102544Y0151565D02*
X0090531Y0151565D01*
X0090283Y0150966D02*
X0102792Y0150966D01*
X0103074Y0150368D02*
X0089994Y0150368D01*
X0089396Y0149769D02*
X0103672Y0149769D01*
X0104534Y0149170D02*
X0088517Y0149170D01*
X0088111Y0146178D02*
X0104998Y0146178D01*
X0103864Y0145579D02*
X0089228Y0145579D01*
X0089826Y0144981D02*
X0103266Y0144981D01*
X0102871Y0144382D02*
X0090214Y0144382D01*
X0090462Y0143784D02*
X0102623Y0143784D01*
X0102437Y0143185D02*
X0090643Y0143185D01*
X0090643Y0142587D02*
X0102437Y0142587D01*
X0102437Y0141988D02*
X0090643Y0141988D01*
X0090459Y0141390D02*
X0102616Y0141390D01*
X0102864Y0140791D02*
X0090211Y0140791D01*
X0089820Y0140193D02*
X0103249Y0140193D01*
X0103847Y0139594D02*
X0089221Y0139594D01*
X0088095Y0138996D02*
X0104956Y0138996D01*
X0104576Y0136003D02*
X0088533Y0136003D01*
X0089402Y0135405D02*
X0103690Y0135405D01*
X0103091Y0134806D02*
X0090001Y0134806D01*
X0090286Y0134208D02*
X0102799Y0134208D01*
X0102551Y0133609D02*
X0090534Y0133609D01*
X0090643Y0133011D02*
X0102437Y0133011D01*
X0102437Y0132412D02*
X0090643Y0132412D01*
X0090634Y0131814D02*
X0102441Y0131814D01*
X0102689Y0131215D02*
X0090387Y0131215D01*
X0090139Y0130617D02*
X0102937Y0130617D01*
X0103423Y0130018D02*
X0089645Y0130018D01*
X0089046Y0129420D02*
X0104022Y0129420D01*
X0105378Y0128821D02*
X0087674Y0128821D01*
X0088954Y0125829D02*
X0104154Y0125829D01*
X0103515Y0125230D02*
X0089577Y0125230D01*
X0090110Y0124632D02*
X0102975Y0124632D01*
X0102727Y0124033D02*
X0090358Y0124033D01*
X0090606Y0123434D02*
X0102479Y0123434D01*
X0102437Y0122836D02*
X0090643Y0122836D01*
X0090643Y0122237D02*
X0102437Y0122237D01*
X0102513Y0121639D02*
X0090562Y0121639D01*
X0090314Y0121040D02*
X0102761Y0121040D01*
X0103009Y0120442D02*
X0090066Y0120442D01*
X0089470Y0119843D02*
X0103598Y0119843D01*
X0104355Y0119245D02*
X0088697Y0119245D01*
X0088775Y0095903D02*
X0104334Y0095903D01*
X0103589Y0095304D02*
X0089503Y0095304D01*
X0090080Y0094706D02*
X0103005Y0094706D01*
X0102757Y0094107D02*
X0090328Y0094107D01*
X0090575Y0093509D02*
X0102510Y0093509D01*
X0102437Y0092910D02*
X0090643Y0092910D01*
X0090643Y0092312D02*
X0102437Y0092312D01*
X0102482Y0091713D02*
X0090593Y0091713D01*
X0090345Y0091115D02*
X0102730Y0091115D01*
X0102978Y0090516D02*
X0090097Y0090516D01*
X0089545Y0089918D02*
X0103524Y0089918D01*
X0104175Y0089319D02*
X0088877Y0089319D01*
X0108461Y0085728D02*
X0115212Y0085728D01*
X0115212Y0085130D02*
X0109060Y0085130D01*
X0109541Y0084531D02*
X0115212Y0084531D01*
X0115213Y0083933D02*
X0109789Y0083933D01*
X0110037Y0083334D02*
X0115213Y0083334D01*
X0115213Y0082736D02*
X0110037Y0082736D01*
X0110037Y0082137D02*
X0115213Y0082137D01*
X0115214Y0081539D02*
X0109920Y0081539D01*
X0109672Y0080940D02*
X0115214Y0080940D01*
X0115214Y0080342D02*
X0109374Y0080342D01*
X0108776Y0079743D02*
X0115214Y0079743D01*
X0115215Y0079145D02*
X0107877Y0079145D01*
X0107539Y0076152D02*
X0115216Y0076152D01*
X0115216Y0075554D02*
X0108636Y0075554D01*
X0109234Y0074955D02*
X0115216Y0074955D01*
X0115216Y0074357D02*
X0109614Y0074357D01*
X0109862Y0073758D02*
X0115217Y0073758D01*
X0115217Y0073160D02*
X0110037Y0073160D01*
X0110037Y0072561D02*
X0115217Y0072561D01*
X0115217Y0071963D02*
X0110037Y0071963D01*
X0109847Y0071364D02*
X0115218Y0071364D01*
X0115218Y0070766D02*
X0109599Y0070766D01*
X0109200Y0070167D02*
X0115218Y0070167D01*
X0115218Y0069568D02*
X0108601Y0069568D01*
X0107456Y0068970D02*
X0115219Y0068970D01*
X0115220Y0065977D02*
X0107961Y0065977D01*
X0108811Y0065379D02*
X0115220Y0065379D01*
X0115220Y0064780D02*
X0109409Y0064780D01*
X0109686Y0064182D02*
X0115220Y0064182D01*
X0115221Y0063583D02*
X0109934Y0063583D01*
X0110037Y0062985D02*
X0115221Y0062985D01*
X0115221Y0062386D02*
X0110037Y0062386D01*
X0110023Y0061788D02*
X0115221Y0061788D01*
X0115222Y0061189D02*
X0109775Y0061189D01*
X0109527Y0060591D02*
X0115222Y0060591D01*
X0115222Y0059992D02*
X0109025Y0059992D01*
X0108427Y0059394D02*
X0115222Y0059394D01*
X0115227Y0048022D02*
X0005369Y0048022D01*
X0005369Y0047424D02*
X0115227Y0047424D01*
X0115227Y0046825D02*
X0005368Y0046825D01*
X0005370Y0048621D02*
X0012990Y0048621D01*
X0011599Y0049219D02*
X0005371Y0049219D01*
X0005372Y0049818D02*
X0011001Y0049818D01*
X0010500Y0050416D02*
X0005373Y0050416D01*
X0005374Y0051015D02*
X0010252Y0051015D01*
X0010004Y0051613D02*
X0005375Y0051613D01*
X0005376Y0052212D02*
X0009990Y0052212D01*
X0009990Y0052810D02*
X0005377Y0052810D01*
X0005377Y0053409D02*
X0010094Y0053409D01*
X0010342Y0054007D02*
X0005378Y0054007D01*
X0005379Y0054606D02*
X0010620Y0054606D01*
X0011218Y0055204D02*
X0005380Y0055204D01*
X0005340Y0028271D02*
X0115234Y0028271D01*
X0115234Y0027673D02*
X0005339Y0027673D01*
X0005324Y0017498D02*
X0115238Y0017498D01*
X0115238Y0018097D02*
X0075276Y0018097D01*
X0075874Y0018695D02*
X0115238Y0018695D01*
X0115239Y0015702D02*
X0109194Y0015702D01*
X0109717Y0015104D02*
X0115239Y0015104D01*
X0115240Y0014505D02*
X0110081Y0014505D01*
X0110327Y0013907D02*
X0115240Y0013907D01*
X0106537Y0013907D02*
X0105937Y0013907D01*
X0105937Y0014505D02*
X0106537Y0014505D01*
X0106537Y0015104D02*
X0105937Y0015104D01*
X0105937Y0015702D02*
X0106537Y0015702D01*
X0106537Y0016301D02*
X0105937Y0016301D01*
X0104072Y0016301D02*
X0089031Y0016301D01*
X0089812Y0015702D02*
X0103280Y0015702D01*
X0102757Y0015104D02*
X0090332Y0015104D01*
X0090693Y0014505D02*
X0102393Y0014505D01*
X0102148Y0013907D02*
X0090936Y0013907D01*
X0091083Y0013308D02*
X0101999Y0013308D01*
X0101957Y0012111D02*
X0091121Y0012111D01*
X0091014Y0011513D02*
X0102062Y0011513D01*
X0102259Y0010914D02*
X0090815Y0010914D01*
X0090506Y0010316D02*
X0102566Y0010316D01*
X0103017Y0009717D02*
X0090051Y0009717D01*
X0089381Y0009119D02*
X0103683Y0009119D01*
X0104811Y0008520D02*
X0088233Y0008520D01*
X0087143Y0008520D02*
X0086543Y0008520D01*
X0086543Y0009119D02*
X0087143Y0009119D01*
X0087143Y0009717D02*
X0086543Y0009717D01*
X0086543Y0010316D02*
X0087143Y0010316D01*
X0087143Y0010914D02*
X0086543Y0010914D01*
X0086543Y0011513D02*
X0087143Y0011513D01*
X0087143Y0012111D02*
X0086543Y0012111D01*
X0086543Y0013907D02*
X0087143Y0013907D01*
X0087143Y0014505D02*
X0086543Y0014505D01*
X0086543Y0015104D02*
X0087143Y0015104D01*
X0087143Y0015702D02*
X0086543Y0015702D01*
X0086543Y0016301D02*
X0087143Y0016301D01*
X0088814Y0019294D02*
X0104237Y0019294D01*
X0103549Y0019892D02*
X0089519Y0019892D01*
X0090086Y0020491D02*
X0102989Y0020491D01*
X0102741Y0021089D02*
X0090334Y0021089D01*
X0090582Y0021688D02*
X0102493Y0021688D01*
X0102437Y0022286D02*
X0090643Y0022286D01*
X0090643Y0022885D02*
X0102437Y0022885D01*
X0102499Y0023483D02*
X0090586Y0023483D01*
X0090338Y0024082D02*
X0102747Y0024082D01*
X0102995Y0024680D02*
X0090090Y0024680D01*
X0089528Y0025279D02*
X0103563Y0025279D01*
X0104271Y0025877D02*
X0088837Y0025877D01*
X0083352Y0021089D02*
X0076370Y0021089D01*
X0076371Y0020491D02*
X0083600Y0020491D01*
X0084167Y0019892D02*
X0076371Y0019892D01*
X0076371Y0019294D02*
X0084872Y0019294D01*
X0083104Y0021688D02*
X0075772Y0021688D01*
X0075173Y0022286D02*
X0083043Y0022286D01*
X0085453Y0008520D02*
X0005311Y0008520D01*
X0005312Y0009119D02*
X0011787Y0009119D01*
X0011638Y0009181D02*
X0013034Y0008602D01*
X0014546Y0008602D01*
X0015943Y0009181D01*
X0017012Y0010250D01*
X0017590Y0011646D01*
X0017590Y0013158D01*
X0017012Y0014555D01*
X0015943Y0015624D01*
X0014546Y0016202D01*
X0013034Y0016202D01*
X0011638Y0015624D01*
X0010569Y0014555D01*
X0009990Y0013158D01*
X0009990Y0011646D01*
X0010569Y0010250D01*
X0011638Y0009181D01*
X0011101Y0009717D02*
X0005313Y0009717D01*
X0005314Y0010316D02*
X0010541Y0010316D01*
X0010293Y0010914D02*
X0005315Y0010914D01*
X0005316Y0011513D02*
X0010046Y0011513D01*
X0009990Y0012111D02*
X0005316Y0012111D01*
X0005317Y0012710D02*
X0009990Y0012710D01*
X0010052Y0013308D02*
X0005318Y0013308D01*
X0005319Y0013907D02*
X0010300Y0013907D01*
X0010548Y0014505D02*
X0005320Y0014505D01*
X0005321Y0015104D02*
X0011118Y0015104D01*
X0011828Y0015702D02*
X0005322Y0015702D01*
X0015753Y0015702D02*
X0021828Y0015702D01*
X0021118Y0015104D02*
X0016463Y0015104D01*
X0017032Y0014505D02*
X0020548Y0014505D01*
X0020300Y0013907D02*
X0017280Y0013907D01*
X0017528Y0013308D02*
X0020052Y0013308D01*
X0019990Y0012710D02*
X0017590Y0012710D01*
X0017590Y0012111D02*
X0019990Y0012111D01*
X0020046Y0011513D02*
X0017535Y0011513D01*
X0017287Y0010914D02*
X0020293Y0010914D01*
X0020541Y0010316D02*
X0017039Y0010316D01*
X0016479Y0009717D02*
X0021101Y0009717D01*
X0021787Y0009119D02*
X0015793Y0009119D01*
X0046840Y0039643D02*
X0084416Y0039643D01*
X0085473Y0039044D02*
X0047438Y0039044D01*
X0038048Y0064182D02*
X0027166Y0064182D01*
X0026786Y0064780D02*
X0037450Y0064780D01*
X0036760Y0070766D02*
X0033474Y0070766D01*
X0033474Y0071364D02*
X0036993Y0071364D01*
X0037591Y0071963D02*
X0033474Y0071963D01*
X0012327Y0098896D02*
X0005445Y0098896D01*
X0005445Y0099494D02*
X0011325Y0099494D01*
X0010726Y0100093D02*
X0005446Y0100093D01*
X0005447Y0100691D02*
X0010386Y0100691D01*
X0010138Y0101290D02*
X0005448Y0101290D01*
X0005449Y0101888D02*
X0009990Y0101888D01*
X0009990Y0102487D02*
X0005450Y0102487D01*
X0005451Y0103085D02*
X0009990Y0103085D01*
X0010208Y0103684D02*
X0005452Y0103684D01*
X0005453Y0104282D02*
X0010456Y0104282D01*
X0010895Y0104881D02*
X0005453Y0104881D01*
X0005454Y0105479D02*
X0011493Y0105479D01*
X0015676Y0109070D02*
X0021905Y0109070D01*
X0021150Y0109669D02*
X0016431Y0109669D01*
X0017019Y0110267D02*
X0020562Y0110267D01*
X0020314Y0110866D02*
X0017267Y0110866D01*
X0017515Y0111464D02*
X0020066Y0111464D01*
X0019990Y0112063D02*
X0017590Y0112063D01*
X0017590Y0112661D02*
X0019990Y0112661D01*
X0020032Y0113260D02*
X0017548Y0113260D01*
X0017300Y0113858D02*
X0020280Y0113858D01*
X0020528Y0114457D02*
X0017052Y0114457D01*
X0016511Y0115055D02*
X0021069Y0115055D01*
X0021710Y0115654D02*
X0015870Y0115654D01*
X0025496Y0138996D02*
X0046301Y0138996D01*
X0046062Y0139594D02*
X0026356Y0139594D01*
X0026955Y0140193D02*
X0046062Y0140193D01*
X0046062Y0140791D02*
X0027236Y0140791D01*
X0027484Y0141390D02*
X0046241Y0141390D01*
X0046489Y0141988D02*
X0027590Y0141988D01*
X0027590Y0142587D02*
X0046944Y0142587D01*
X0047543Y0143185D02*
X0027579Y0143185D01*
X0024546Y0148602D02*
X0023034Y0148602D01*
X0021638Y0149181D01*
X0020569Y0150250D01*
X0019990Y0151646D01*
X0019990Y0153158D01*
X0020569Y0154555D01*
X0021638Y0155624D01*
X0023034Y0156202D01*
X0024546Y0156202D01*
X0025943Y0155624D01*
X0027012Y0154555D01*
X0027590Y0153158D01*
X0027590Y0151646D01*
X0027012Y0150250D01*
X0025943Y0149181D01*
X0024546Y0148602D01*
X0025918Y0149170D02*
X0085169Y0149170D01*
X0084290Y0149769D02*
X0026531Y0149769D01*
X0027060Y0150368D02*
X0083692Y0150368D01*
X0083403Y0150966D02*
X0027308Y0150966D01*
X0027556Y0151565D02*
X0083155Y0151565D01*
X0083043Y0152163D02*
X0067582Y0152163D01*
X0067313Y0151894D02*
X0068602Y0153183D01*
X0068602Y0155005D01*
X0067313Y0156294D01*
X0065491Y0156294D01*
X0064202Y0155005D01*
X0064202Y0153183D01*
X0065491Y0151894D01*
X0067313Y0151894D01*
X0068181Y0152762D02*
X0083043Y0152762D01*
X0083049Y0153360D02*
X0068602Y0153360D01*
X0068602Y0153959D02*
X0083297Y0153959D01*
X0083545Y0154557D02*
X0068602Y0154557D01*
X0068452Y0155156D02*
X0084034Y0155156D01*
X0084633Y0155754D02*
X0067853Y0155754D01*
X0065222Y0152163D02*
X0027590Y0152163D01*
X0027590Y0152762D02*
X0064623Y0152762D01*
X0064202Y0153360D02*
X0027507Y0153360D01*
X0027259Y0153959D02*
X0064202Y0153959D01*
X0064202Y0154557D02*
X0027009Y0154557D01*
X0026411Y0155156D02*
X0064352Y0155156D01*
X0064951Y0155754D02*
X0025628Y0155754D01*
X0024895Y0158747D02*
X0115184Y0158747D01*
X0115184Y0159345D02*
X0108362Y0159345D01*
X0108977Y0159944D02*
X0115183Y0159944D01*
X0115183Y0160542D02*
X0109507Y0160542D01*
X0109755Y0161141D02*
X0115183Y0161141D01*
X0115183Y0161739D02*
X0110003Y0161739D01*
X0110037Y0162338D02*
X0115182Y0162338D01*
X0115182Y0162936D02*
X0110037Y0162936D01*
X0109954Y0163535D02*
X0115182Y0163535D01*
X0115182Y0164133D02*
X0109706Y0164133D01*
X0109458Y0164732D02*
X0115181Y0164732D01*
X0115181Y0165330D02*
X0108859Y0165330D01*
X0104113Y0159345D02*
X0088939Y0159345D01*
X0089571Y0159944D02*
X0103498Y0159944D01*
X0102967Y0160542D02*
X0090108Y0160542D01*
X0090356Y0161141D02*
X0102719Y0161141D01*
X0102472Y0161739D02*
X0090604Y0161739D01*
X0090643Y0162338D02*
X0102437Y0162338D01*
X0102437Y0162936D02*
X0090643Y0162936D01*
X0090565Y0163535D02*
X0102520Y0163535D01*
X0102768Y0164133D02*
X0090317Y0164133D01*
X0090069Y0164732D02*
X0103017Y0164732D01*
X0103615Y0165330D02*
X0089477Y0165330D01*
X0084747Y0159345D02*
X0026107Y0159345D01*
X0026706Y0159944D02*
X0084115Y0159944D01*
X0083578Y0160542D02*
X0027133Y0160542D01*
X0027381Y0161141D02*
X0083330Y0161141D01*
X0083082Y0161739D02*
X0027590Y0161739D01*
X0027590Y0162338D02*
X0083043Y0162338D01*
X0083043Y0162936D02*
X0027590Y0162936D01*
X0027434Y0163535D02*
X0083121Y0163535D01*
X0083369Y0164133D02*
X0027186Y0164133D01*
X0026835Y0164732D02*
X0083617Y0164732D01*
X0084209Y0165330D02*
X0026236Y0165330D01*
X0021344Y0165330D02*
X0016236Y0165330D01*
X0016835Y0164732D02*
X0020746Y0164732D01*
X0020394Y0164133D02*
X0017186Y0164133D01*
X0017434Y0163535D02*
X0020146Y0163535D01*
X0019990Y0162936D02*
X0017590Y0162936D01*
X0017590Y0162338D02*
X0019990Y0162338D01*
X0019990Y0161739D02*
X0017590Y0161739D01*
X0017381Y0161141D02*
X0020200Y0161141D01*
X0020448Y0160542D02*
X0017133Y0160542D01*
X0016706Y0159944D02*
X0020875Y0159944D01*
X0021473Y0159345D02*
X0016107Y0159345D01*
X0014895Y0158747D02*
X0022686Y0158747D01*
X0021952Y0155754D02*
X0015628Y0155754D01*
X0015943Y0155624D02*
X0014546Y0156202D01*
X0013034Y0156202D01*
X0011638Y0155624D01*
X0010569Y0154555D01*
X0009990Y0153158D01*
X0009990Y0151646D01*
X0010569Y0150250D01*
X0011638Y0149181D01*
X0013034Y0148602D01*
X0014546Y0148602D01*
X0015943Y0149181D01*
X0017012Y0150250D01*
X0017590Y0151646D01*
X0017590Y0153158D01*
X0017012Y0154555D01*
X0015943Y0155624D01*
X0016411Y0155156D02*
X0021169Y0155156D01*
X0020571Y0154557D02*
X0017009Y0154557D01*
X0017259Y0153959D02*
X0020322Y0153959D01*
X0020074Y0153360D02*
X0017507Y0153360D01*
X0017590Y0152762D02*
X0019990Y0152762D01*
X0019990Y0152163D02*
X0017590Y0152163D01*
X0017556Y0151565D02*
X0020024Y0151565D01*
X0020272Y0150966D02*
X0017308Y0150966D01*
X0017060Y0150368D02*
X0020520Y0150368D01*
X0021050Y0149769D02*
X0016531Y0149769D01*
X0015918Y0149170D02*
X0021663Y0149170D01*
X0012686Y0158747D02*
X0005533Y0158747D01*
X0005534Y0159345D02*
X0011473Y0159345D01*
X0010875Y0159944D02*
X0005535Y0159944D01*
X0005536Y0160542D02*
X0010448Y0160542D01*
X0010200Y0161141D02*
X0005537Y0161141D01*
X0005537Y0161739D02*
X0009990Y0161739D01*
X0009990Y0162338D02*
X0005538Y0162338D01*
X0005539Y0162936D02*
X0009990Y0162936D01*
X0010146Y0163535D02*
X0005540Y0163535D01*
X0005541Y0164133D02*
X0010394Y0164133D01*
X0010746Y0164732D02*
X0005542Y0164732D01*
X0005543Y0165330D02*
X0011344Y0165330D01*
X0005532Y0158148D02*
X0115184Y0158148D01*
X0115184Y0157550D02*
X0005531Y0157550D01*
X0005530Y0156951D02*
X0115185Y0156951D01*
X0085997Y0156353D02*
X0005530Y0156353D01*
X0005529Y0155754D02*
X0011952Y0155754D01*
X0011169Y0155156D02*
X0005528Y0155156D01*
X0005527Y0154557D02*
X0010571Y0154557D01*
X0010322Y0153959D02*
X0005526Y0153959D01*
X0005525Y0153360D02*
X0010074Y0153360D01*
X0009990Y0152762D02*
X0005524Y0152762D01*
X0005523Y0152163D02*
X0009990Y0152163D01*
X0010024Y0151565D02*
X0005522Y0151565D01*
X0005522Y0150966D02*
X0010272Y0150966D01*
X0010520Y0150368D02*
X0005521Y0150368D01*
X0005520Y0149769D02*
X0011050Y0149769D01*
X0011663Y0149170D02*
X0005519Y0149170D01*
X0059934Y0080342D02*
X0068861Y0080342D01*
X0068861Y0080940D02*
X0060533Y0080940D01*
X0061131Y0081539D02*
X0069285Y0081539D01*
X0069884Y0082137D02*
X0061220Y0082137D01*
X0105937Y0012111D02*
X0106537Y0012111D01*
X0106537Y0011513D02*
X0105937Y0011513D01*
X0105937Y0010914D02*
X0106537Y0010914D01*
X0106537Y0010316D02*
X0105937Y0010316D01*
X0105937Y0009717D02*
X0106537Y0009717D01*
X0106537Y0009119D02*
X0105937Y0009119D01*
X0105937Y0008520D02*
X0106537Y0008520D01*
M02*
