G75*
%MOIN*%
%OFA0B0*%
%FSLAX25Y25*%
%IPPOS*%
%LPD*%
%AMOC8*
5,1,8,0,0,1.08239X$1,22.5*
%
%ADD10R,0.06000X0.06000*%
%ADD11OC8,0.06000*%
%ADD12C,0.05346*%
%ADD13R,0.02756X0.03543*%
%ADD14R,0.03543X0.02756*%
%ADD15C,0.00500*%
%ADD16C,0.02800*%
%ADD17C,0.00600*%
%ADD18C,0.02978*%
%ADD19C,0.00591*%
D10*
X0086843Y0162590D03*
X0106237Y0162578D03*
D11*
X0106237Y0152578D03*
X0106237Y0142578D03*
X0106237Y0132578D03*
X0106237Y0122578D03*
X0106237Y0112578D03*
X0106237Y0102578D03*
X0106237Y0092578D03*
X0106237Y0082578D03*
X0106237Y0072578D03*
X0106237Y0062578D03*
X0106237Y0052578D03*
X0106237Y0042578D03*
X0106237Y0032578D03*
X0106237Y0022578D03*
X0106237Y0012578D03*
X0086843Y0012590D03*
X0086843Y0022590D03*
X0086843Y0032590D03*
X0086843Y0042590D03*
X0086843Y0052590D03*
X0086843Y0062590D03*
X0086843Y0072590D03*
X0086843Y0082590D03*
X0086843Y0092590D03*
X0086843Y0102590D03*
X0086843Y0112590D03*
X0086843Y0122590D03*
X0086843Y0132590D03*
X0086843Y0142590D03*
X0086843Y0152590D03*
X0023790Y0152402D03*
X0023790Y0162402D03*
X0013790Y0162402D03*
X0013790Y0152402D03*
X0013790Y0142402D03*
X0013790Y0132402D03*
X0013790Y0122402D03*
X0013790Y0112402D03*
X0013790Y0102402D03*
X0013790Y0092402D03*
X0013790Y0082402D03*
X0013790Y0072402D03*
X0013790Y0062402D03*
X0013790Y0052402D03*
X0013790Y0042402D03*
X0013790Y0032402D03*
X0013790Y0022402D03*
X0013790Y0012402D03*
X0023790Y0012402D03*
X0023790Y0022402D03*
X0023790Y0032402D03*
X0023790Y0042402D03*
X0023790Y0052402D03*
X0023790Y0062402D03*
X0023790Y0072402D03*
X0023790Y0082402D03*
X0023790Y0092402D03*
X0023790Y0102402D03*
X0023790Y0112402D03*
X0023790Y0122402D03*
X0023790Y0132402D03*
X0023790Y0142402D03*
D12*
X0049535Y0140265D03*
X0049625Y0121291D03*
D13*
X0070246Y0091114D03*
X0075364Y0091114D03*
X0064866Y0078560D03*
X0059748Y0078560D03*
X0050035Y0067646D03*
X0044917Y0067646D03*
X0039165Y0049799D03*
X0034047Y0049799D03*
X0034308Y0044386D03*
X0039426Y0044386D03*
X0038458Y0089855D03*
X0033340Y0089855D03*
X0072408Y0007653D03*
X0077526Y0007653D03*
D14*
X0078266Y0014747D03*
X0078266Y0019865D03*
X0061313Y0020575D03*
X0061313Y0025693D03*
X0061377Y0032683D03*
X0061377Y0037801D03*
D15*
X0006878Y0007603D02*
X0006878Y0155490D01*
X0013790Y0162402D01*
X0024571Y0121909D02*
X0024690Y0121909D01*
X0028016Y0121909D01*
X0044256Y0105669D01*
X0044256Y0076141D01*
X0042288Y0074173D01*
X0038960Y0070220D01*
X0036829Y0071129D02*
X0036829Y0074313D01*
X0037650Y0075134D01*
X0040523Y0075134D01*
X0041960Y0076570D01*
X0041960Y0082480D01*
X0040893Y0083547D01*
X0036049Y0083547D01*
X0034169Y0081667D01*
X0034169Y0081374D01*
X0031363Y0079291D02*
X0031363Y0087878D01*
X0033340Y0089855D01*
X0036637Y0085786D02*
X0038546Y0087695D01*
X0038458Y0089855D01*
X0049178Y0082047D02*
X0059020Y0091889D01*
X0061170Y0082038D02*
X0061170Y0081648D01*
X0059728Y0080206D01*
X0059728Y0078540D01*
X0056542Y0075354D01*
X0054985Y0075354D01*
X0051048Y0071417D02*
X0048688Y0071417D01*
X0044917Y0067646D01*
X0047111Y0064721D02*
X0047111Y0063543D01*
X0047111Y0064721D02*
X0050035Y0067646D01*
X0052663Y0057481D02*
X0067038Y0071856D01*
X0067038Y0072885D01*
X0064843Y0073794D02*
X0066145Y0075097D01*
X0070021Y0075097D01*
X0071061Y0076137D01*
X0071061Y0080203D01*
X0071952Y0082353D02*
X0073211Y0081094D01*
X0073211Y0076018D01*
X0067190Y0069996D01*
X0067190Y0068661D01*
X0067501Y0065155D02*
X0064434Y0062362D01*
X0055079Y0052803D01*
X0055079Y0038775D01*
X0058036Y0035817D01*
X0058036Y0015610D01*
X0059512Y0014133D01*
X0055575Y0014133D02*
X0055575Y0027796D01*
X0045497Y0037874D01*
X0039748Y0031930D02*
X0039748Y0024801D01*
X0037598Y0023910D02*
X0046791Y0014717D01*
X0046791Y0010065D01*
X0063043Y0010065D01*
X0066389Y0013411D01*
X0066389Y0015614D01*
X0074818Y0024042D01*
X0080089Y0024042D01*
X0080089Y0057441D01*
X0079690Y0057441D01*
X0079690Y0064330D01*
X0078213Y0065807D01*
X0076245Y0065807D01*
X0075737Y0065299D01*
X0075737Y0062665D01*
X0071950Y0058879D01*
X0067512Y0058879D01*
X0067926Y0055130D02*
X0062465Y0049567D01*
X0062465Y0045536D01*
X0063541Y0044461D01*
X0066457Y0044860D02*
X0066457Y0048282D01*
X0077094Y0058929D01*
X0070255Y0062824D02*
X0074484Y0067053D01*
X0074484Y0071814D01*
X0066377Y0078560D02*
X0070171Y0082353D01*
X0071952Y0082353D01*
X0066377Y0078560D02*
X0064866Y0078560D01*
X0061170Y0082038D02*
X0070246Y0091114D01*
X0075364Y0091114D02*
X0066402Y0100075D01*
X0066402Y0101338D01*
X0059748Y0078560D02*
X0059728Y0078540D01*
X0052663Y0057481D02*
X0049178Y0053996D01*
X0049178Y0050731D01*
X0046611Y0051613D02*
X0045996Y0052133D01*
X0039198Y0058931D01*
X0037573Y0058931D01*
X0030707Y0065797D01*
X0029010Y0065797D01*
X0025541Y0069266D01*
X0029076Y0069266D01*
X0031185Y0071376D01*
X0031809Y0074384D02*
X0034222Y0074384D01*
X0034271Y0074334D01*
X0034271Y0074384D01*
X0031809Y0074384D02*
X0023790Y0082402D01*
X0022603Y0072204D02*
X0025541Y0069266D01*
X0034475Y0068776D02*
X0034475Y0067741D01*
X0034475Y0068776D02*
X0036829Y0071129D01*
X0037156Y0057933D02*
X0034345Y0057933D01*
X0037156Y0057933D02*
X0038308Y0056781D01*
X0028016Y0052027D02*
X0024571Y0052027D01*
X0034414Y0037263D02*
X0039748Y0031930D01*
X0037598Y0031499D02*
X0037598Y0023910D01*
X0037598Y0031499D02*
X0037436Y0031660D01*
X0024532Y0031660D01*
X0023790Y0032402D01*
X0006878Y0007603D02*
X0009230Y0005251D01*
X0042657Y0005253D01*
X0044003Y0006599D01*
X0044003Y0011421D01*
X0044515Y0011933D01*
X0068628Y0013229D02*
X0068899Y0013229D01*
X0068899Y0014957D01*
X0074082Y0020140D01*
X0078120Y0019865D02*
X0072670Y0014344D01*
X0072596Y0007771D01*
X0072408Y0007653D01*
X0069710Y0012418D02*
X0068899Y0013229D01*
X0078266Y0012556D02*
X0078266Y0014747D01*
X0080423Y0012590D01*
X0086843Y0012590D01*
X0086843Y0022590D02*
X0080991Y0022590D01*
X0078266Y0019865D01*
X0078120Y0019865D01*
X0078266Y0012556D02*
X0078301Y0012079D01*
X0078301Y0007039D01*
X0077526Y0007653D01*
X0067743Y0043575D02*
X0066457Y0044860D01*
D16*
X0067743Y0043575D03*
X0063541Y0044461D03*
X0067926Y0055130D03*
X0067512Y0058879D03*
X0070255Y0062824D03*
X0067501Y0065155D03*
X0067190Y0068661D03*
X0067038Y0072885D03*
X0071061Y0080203D03*
X0074484Y0071814D03*
X0077094Y0058929D03*
X0059020Y0082539D03*
X0054985Y0075354D03*
X0051048Y0071417D03*
X0054985Y0063543D03*
X0047111Y0063543D03*
X0046195Y0058221D03*
X0046611Y0051613D03*
X0050903Y0041245D03*
X0054099Y0035295D03*
X0045497Y0037874D03*
X0043961Y0034409D03*
X0039748Y0024801D03*
X0034414Y0037263D03*
X0038308Y0056781D03*
X0038960Y0066381D03*
X0038960Y0070220D03*
X0034475Y0067741D03*
X0034271Y0074334D03*
X0031363Y0079291D03*
X0034169Y0081374D03*
X0049178Y0082047D03*
X0059020Y0091889D03*
X0066402Y0101338D03*
X0066402Y0154094D03*
X0067411Y0028448D03*
X0063059Y0014920D03*
X0059512Y0014133D03*
X0055575Y0014133D03*
D17*
X0063059Y0014920D02*
X0064210Y0014920D01*
X0071258Y0021967D01*
X0061341Y0043549D02*
X0061341Y0044936D01*
X0061319Y0044957D01*
X0061319Y0046464D01*
X0061319Y0055141D01*
X0065312Y0059134D01*
X0065312Y0059790D01*
X0066601Y0061079D01*
X0068509Y0061079D01*
X0070255Y0062824D01*
X0034345Y0057933D02*
X0032038Y0060240D01*
X0024571Y0052027D02*
X0024165Y0052027D01*
X0023790Y0052402D01*
X0013790Y0052402D01*
X0023790Y0062402D02*
X0023831Y0062362D01*
X0023592Y0072204D02*
X0022603Y0072204D01*
X0013988Y0072204D01*
X0013790Y0072402D01*
X0013790Y0082402D02*
X0023790Y0082402D01*
X0024216Y0082402D01*
X0024571Y0082047D01*
X0023790Y0072402D02*
X0023592Y0072204D01*
X0024690Y0121909D02*
X0024197Y0122402D01*
X0023790Y0122402D01*
X0013790Y0122402D01*
D18*
X0036637Y0085786D03*
X0031185Y0071376D03*
X0032038Y0060240D03*
X0032255Y0027342D03*
X0032443Y0023118D03*
X0044515Y0011933D03*
X0068628Y0013229D03*
X0074082Y0020140D03*
X0068913Y0024737D03*
D19*
X0068913Y0026846D01*
X0069606Y0027539D01*
X0069606Y0029358D01*
X0061377Y0037587D01*
X0061377Y0037801D01*
X0063517Y0041379D02*
X0068652Y0041379D01*
X0069938Y0042665D01*
X0071621Y0044348D01*
X0072123Y0044850D01*
X0079044Y0044850D01*
X0079044Y0025088D01*
X0074378Y0025088D01*
X0071258Y0021967D01*
X0068913Y0024737D02*
X0064751Y0020575D01*
X0061313Y0020575D01*
X0061313Y0025693D02*
X0061313Y0032619D01*
X0061377Y0032683D01*
X0061377Y0028448D01*
X0067411Y0028448D01*
X0063517Y0041379D02*
X0061345Y0043551D01*
X0061345Y0046438D01*
X0061319Y0046464D01*
X0053309Y0038574D02*
X0053309Y0056836D01*
X0052663Y0057481D01*
X0050585Y0057234D02*
X0053948Y0060598D01*
X0053948Y0061475D01*
X0052790Y0062634D01*
X0052790Y0064452D01*
X0054075Y0065738D01*
X0055894Y0065738D01*
X0057019Y0064613D01*
X0057678Y0064613D01*
X0060674Y0067609D01*
X0060750Y0067609D01*
X0064979Y0071839D01*
X0064843Y0071976D01*
X0064843Y0073794D01*
X0059020Y0082539D02*
X0056463Y0085096D01*
X0053705Y0085096D01*
X0051373Y0082764D01*
X0051373Y0081138D01*
X0050087Y0079852D01*
X0045635Y0079852D01*
X0045302Y0079519D01*
X0045302Y0075440D01*
X0041631Y0071769D01*
X0041121Y0071163D01*
X0041155Y0071129D01*
X0041155Y0068577D01*
X0038960Y0066381D01*
X0046195Y0058221D02*
X0047182Y0057234D01*
X0050585Y0057234D01*
X0049178Y0050731D02*
X0048833Y0050731D01*
X0047520Y0049417D01*
X0045534Y0049417D01*
X0041736Y0053215D01*
X0029204Y0053215D01*
X0028016Y0052027D01*
X0034047Y0049799D02*
X0034047Y0044648D01*
X0034308Y0044386D01*
X0034308Y0044062D01*
X0043961Y0034409D01*
X0050903Y0041245D02*
X0047388Y0044386D01*
X0039426Y0044386D01*
X0039426Y0046690D01*
X0039790Y0046327D01*
X0039426Y0046690D02*
X0039426Y0049538D01*
X0039165Y0049799D01*
X0053309Y0038574D02*
X0054099Y0037783D01*
X0054099Y0035295D01*
M02*
