G75*
%MOIN*%
%OFA0B0*%
%FSLAX25Y25*%
%IPPOS*%
%LPD*%
%AMOC8*
5,1,8,0,0,1.08239X$1,22.5*
%
%ADD10R,0.03937X0.04331*%
%ADD11R,0.04331X0.03937*%
%ADD12C,0.01575*%
%ADD13R,0.02756X0.03543*%
D10*
X0069680Y0104936D03*
X0069680Y0111629D03*
X0069700Y0143703D03*
X0069700Y0150395D03*
D11*
X0069666Y0138001D03*
X0069666Y0131308D03*
X0069893Y0124675D03*
X0069893Y0117982D03*
X0074123Y0054110D03*
X0074123Y0047417D03*
X0074363Y0039156D03*
X0074363Y0032463D03*
D12*
X0061610Y0032172D03*
X0061610Y0028235D03*
X0061610Y0024298D03*
X0061610Y0020361D03*
X0057673Y0020361D03*
X0057673Y0016423D03*
X0053736Y0016423D03*
X0053736Y0020361D03*
X0053736Y0024298D03*
X0053736Y0028235D03*
X0053736Y0032172D03*
X0049799Y0032172D03*
X0049799Y0028235D03*
X0049799Y0024298D03*
X0045862Y0024298D03*
X0045862Y0028235D03*
X0045862Y0032172D03*
X0045862Y0020361D03*
X0045862Y0016423D03*
X0049799Y0016423D03*
X0049799Y0020361D03*
X0057673Y0024298D03*
X0057673Y0028235D03*
X0057673Y0032172D03*
X0057029Y0061602D03*
X0053092Y0061602D03*
X0053092Y0065539D03*
X0053092Y0069476D03*
X0053092Y0073413D03*
X0057029Y0073413D03*
X0057029Y0069476D03*
X0057029Y0065539D03*
X0060966Y0065539D03*
X0060966Y0069476D03*
X0060966Y0073413D03*
X0060966Y0077350D03*
X0057029Y0077350D03*
X0053092Y0077350D03*
X0049155Y0077350D03*
X0049155Y0073413D03*
X0049155Y0069476D03*
X0049155Y0065539D03*
X0049155Y0061602D03*
X0045218Y0061602D03*
X0045218Y0065539D03*
X0045218Y0069476D03*
X0045218Y0073413D03*
X0045218Y0077350D03*
D13*
X0032828Y0012729D03*
X0032552Y0018011D03*
X0037670Y0018011D03*
X0037946Y0012729D03*
M02*
