%
M48
M72
T01C0.01200
T02C0.01378
T03C0.03346
T04C0.04000
%
T01
X34414Y37263
X39748Y24801
X43961Y34409
X45497Y37874
X50903Y41245
X54099Y35295
X63541Y44461
X67743Y43575
X67926Y55130
X67512Y58879
X70255Y62824
X67501Y65155
X67190Y68661
X67038Y72885
X71061Y80203
X74484Y71814
X77094Y58929
X59020Y82539
X54985Y75354
X51048Y71417
X54985Y63543
X47111Y63543
X46195Y58221
X46611Y51613
X38308Y56781
X38960Y66381
X38960Y70220
X34475Y67741
X34271Y74334
X31363Y79291
X34169Y81374
X49178Y82047
X59020Y91889
X66402Y101338
X66402Y154094
X67411Y28448
X63059Y14920
X59512Y14133
X55575Y14133
T02
X44515Y11933
X32443Y23118
X32255Y27342
X32038Y60240
X31185Y71376
X36637Y85786
X68913Y24737
X74082Y20140
X68628Y13229
T03
X49625Y121291
X49535Y140265
T04
X13790Y12402
X13790Y22402
X13790Y32402
X13790Y42402
X13790Y52402
X13790Y62402
X13790Y72402
X13790Y82402
X13790Y92402
X13790Y102402
X13790Y112402
X13790Y122402
X13790Y132402
X13790Y142402
X13790Y152402
X13790Y162402
X23790Y162402
X23790Y152402
X23790Y142402
X23790Y132402
X23790Y122402
X23790Y112402
X23790Y102402
X23790Y92402
X23790Y82402
X23790Y72402
X23790Y62402
X23790Y52402
X23790Y42402
X23790Y32402
X23790Y22402
X23790Y12402
X86843Y12590
X86843Y22590
X86843Y32590
X86843Y42590
X86843Y52590
X86843Y62590
X86843Y72590
X86843Y82590
X86843Y92590
X86843Y102590
X86843Y112590
X86843Y122590
X86843Y132590
X86843Y142590
X86843Y152590
X86843Y162590
X106237Y162578
X106237Y152578
X106237Y142578
X106237Y132578
X106237Y122578
X106237Y112578
X106237Y102578
X106237Y92578
X106237Y82578
X106237Y72578
X106237Y62578
X106237Y52578
X106237Y42578
X106237Y32578
X106237Y22578
X106237Y12578
M30
